<svg width="106" height="105" viewBox="0 0 106 105" fill="none" xmlns="http://www.w3.org/2000/svg">
<g filter="url(#filter0_d_47_4)">
<path d="M6.69378 22.9758L6 23.7209C6.21204 23.4559 6.44469 23.2077 6.69378 22.9758L19.5 9.22086C20.6667 8.05419 24 5.62086 28 5.22086C32 4.82086 66.3333 5.05419 83 5.22086C87.5 5.72089 96.6 9.42095 97 20.2209C97.4 31.0209 97.1667 60.0543 97 73.2209C97 75.3876 95.1776 79.5138 92 83.2209C89 86.7209 81.1667 92.7209 78.5 95.7209C79.5 94.2209 81.5 90.4209 81.5 87.2209V35.7209C81.5 27.2209 75.5 20.7209 66.5 20.7209C58.8895 20.7209 30.3333 20.3876 14 20.2209C12.063 20.2209 8.7941 21.0201 6.69378 22.9758Z" fill="#F3F3F3"/>
<rect y="19.2209" width="82" height="82" rx="15" fill="white"/>
<circle cx="21.4561" cy="40.252" r="6.58549" fill="#AA43BD"/>
<circle cx="60.9688" cy="40.252" r="6.58549" fill="#AA43BD"/>
<circle cx="21.4561" cy="60.221" r="6.58549" fill="#AA43BD"/>
<circle cx="60.9688" cy="60.221" r="6.58549" fill="#AA43BD"/>
<circle cx="21.4561" cy="80.1897" r="6.58549" fill="#AA43BD"/>
<circle cx="60.9688" cy="80.1897" r="6.58549" fill="#AA43BD"/>
</g>
<defs>
<filter id="filter0_d_47_4" x="0" y="0" width="105.221" height="104.221" filterUnits="userSpaceOnUse" color-interpolation-filters="sRGB">
<feFlood flood-opacity="0" result="BackgroundImageFix"/>
<feColorMatrix in="SourceAlpha" type="matrix" values="0 0 0 0 0 0 0 0 0 0 0 0 0 0 0 0 0 0 127 0" result="hardAlpha"/>
<feOffset dx="4" dy="-1"/>
<feGaussianBlur stdDeviation="2"/>
<feComposite in2="hardAlpha" operator="out"/>
<feColorMatrix type="matrix" values="0 0 0 0 0 0 0 0 0 0 0 0 0 0 0 0 0 0 0.25 0"/>
<feBlend mode="normal" in2="BackgroundImageFix" result="effect1_dropShadow_47_4"/>
<feBlend mode="normal" in="SourceGraphic" in2="effect1_dropShadow_47_4" result="shape"/>
</filter>
</defs>
</svg>
