<?xml version="1.0" standalone="no"?>
<!DOCTYPE svg PUBLIC "-//W3C//DTD SVG 20010904//EN"
 "http://www.w3.org/TR/2001/REC-SVG-20010904/DTD/svg10.dtd">
<svg version="1.0" xmlns="http://www.w3.org/2000/svg"
 width="512.000000pt" height="512.000000pt" viewBox="0 0 512.000000 512.000000"
 preserveAspectRatio="xMidYMid meet">

<g transform="translate(0.000000,512.000000) scale(0.100000,-0.100000)"
fill="#000000" stroke="none">
<path d="M2315 5109 c-1080 -111 -1977 -887 -2238 -1934 -58 -232 -71 -349
-71 -615 0 -177 4 -265 18 -355 145 -950 773 -1720 1681 -2057 119 -44 363
-104 510 -125 180 -25 511 -25 690 1 1036 147 1885 910 2138 1921 55 219 72
366 72 615 0 249 -17 396 -72 615 -229 917 -957 1643 -1873 1869 -80 19 -192
43 -250 51 -126 19 -479 27 -605 14z m575 -628 c302 -52 597 -180 845 -366
105 -78 295 -268 374 -374 189 -250 317 -541 373 -851 29 -157 31 -487 4 -635
-40 -219 -93 -380 -186 -567 -53 -106 -154 -268 -167 -268 -10 0 -2713 2703
-2713 2713 0 10 145 103 240 154 177 95 435 178 626 202 49 6 100 13 114 15
63 11 381 -4 490 -23z m-543 -2133 c744 -744 1353 -1356 1353 -1361 0 -13
-165 -116 -277 -171 -393 -195 -825 -253 -1250 -166 -701 144 -1271 663 -1479
1349 -60 199 -77 317 -78 556 0 285 33 468 130 715 62 155 216 430 242 430 4
0 616 -609 1359 -1352z"/>
</g>
</svg>
