<svg width="1978" height="1986" viewBox="0 0 1978 1986" fill="none" xmlns="http://www.w3.org/2000/svg">
<rect width="1978" height="1986" rx="15" fill="#D9D9D9" fill-opacity="0.7"/>
<path d="M522 46.5H50.5V444.5H206.5V507.5H124.5V621.5H202V685H51.5V826L23 867.5V1021.5L52 1063V1208H125V1269.5H47.5V1380.5H126V1448H53.5V1919H212L265 1950H393.5L445 1919H528.5V1840.5H593V1923H702.5V1845.5H766V1917H846V1909.5H887V1899.5H928V1890.5L983 1896.5V1898.5H996V1896.5L1052.5 1891.5V1899.5H1093V1909.5H1134V1916.5H1212V1844H1450.5V1916.5L1507 1948H1714L1768.5 1916.5H1925V1600.5H1850.5V1532H1930V1415H1850.5V1373H1925L1951 1296.5V1208.5L1925 1131H1850.5V979H1930V504H1850.5V437H1925V41.5H1452V197.5H1383.5V120H1228.5V41.5H1127.5V150.5H847.5V41.5H746V120H590.5V197.5H522V46.5Z" fill="#FF0000" fill-opacity="0.1"/>
<path d="M522.5 519H512V56H61V434.5H216V508H439L442 505.5H448.5V519H442L439 517H134.5V611H212V684.5H445.5V758.5H678.5V898.5L681 902.5V909.5H667V902.5L669 898.5V773.5H662.5V768H443.5V774H430.5V761H436V699.5H430.5V694.5H67V700.5H61.5V829.5L33 869.5V1020L62 1061V1191H67.5V1197.5H515.5L519.5 1194H527.5V1209H519.5L515.5 1205.5H136V1280H58.5V1370H136V1447.5H516.5L520 1445.5H528.5V1461.5H520L516.5 1457.5H388.5V1473H270V1457.5H63.5V1909H215.5L268 1939.5H391L444.5 1908H518V1830H591V1445.5H602.5V1913H693V1834.5H766.5V1368.5H904L908.5 1366H916.5V1382H908.5L904 1378.5H795.5V1386.5H783.5V1397H776.5V1551H783.5V1576H776.5V1705.5H783.5V1731H776.5V1888.5H784.5V1900.5H795.5V1907H833.5V1896.5H872.5V1886H901V1881L908 1874.5H911L914 1878.5V1889.5H927V1899.5H886.5V1909.5H846V1917.5H766.5V1844.5H703V1923H593V1841H528.5V1919H444.5L391 1949.5H267L212 1919H53V1447.5H126V1380.5H47V1269.5H125V1205.5H52V1063L23.5 1021V867L52 825.5V684.5H202.5V621.5H125V508H206.5V444.5H51V46H521.5V197H590.5V119H745.5V40.5H847.5V149H1127.5V40.5H1229V118H1384.5V195.5H1451.5V42H1924.5V437H1850.5V505H1929.5V979H1851.5V1129.5H1925.5L1951.5 1207V1295L1924.5 1372.5H1852V1415.5H1930V1532.5H1852V1599.5H1927V1916.5H1767L1715 1948H1506.5L1450.5 1914V1843.5H1213V1916H1134V1909H1093V1899.5H1052.5V1890.5H1066.5V1876.5H1072.5L1078 1883V1887H1106.5V1896.5H1146V1905.5H1183V1899.5H1195.5V1887H1202.5V1730.5H1195.5V1704.5H1202.5V1575H1195.5V1550.5H1202.5V1396.5H1195.5V1385H1183V1379H994.5L991.5 1382H983.5V1366H991.5L994.5 1368.5H1211.5V1833.5H1376V1599H1387.5V1833.5H1461V1909L1509 1937.5H1712L1765 1907H1916.5V1610.5H1464.5L1461.5 1613.5H1453.5V1599H1461.5L1464.5 1601H1842V1522H1919V1426H1453.5V1352.5H1375.5V1297L1373.5 1294V1287H1389.5V1294L1387 1297V1341.5H1464V1416H1588V1390.5H1718V1416H1842V1363.5H1917L1941 1295V1207L1917 1140.5H1841V1066.5H1463.5V1146H1387V1207L1388.5 1211.5V1219.5H1373V1211.5L1375 1207V1133.5H1453V1056H1841V979H1771L1767.5 983H1760V967.5H1767.5L1771 970H1919V617.5H1463V663L1465 667.5V675.5H1451V667.5L1452.5 663V608H1919V514.5H1840.5V437H1540.5L1537.5 440H1530.5V425H1537.5L1540.5 428H1914.5V52H1461.5V440H1452V206H1374.5V128H1219V51H1137V235.5H1286.5V432.5L1288 435.5V442.5H1273.5V435.5L1277.5 431.5V244.5H1127.5V158.5H847.5V245.5H698.5V433L702 436V443.5H687.5V235.5H837V51H755V129.5H600V207H521.5V518L522.5 519Z" fill="#6E6E6E" fill-opacity="0.8"/>
<path d="M668.5 987.5L666.5 984.5V976.5H681V984.5L679 987.5V1206.5H606L601 1209H595V1194H603.5L606 1197.5H663.5V1192H669.5V987.5H668.5Z" fill="#6E6E6E" fill-opacity="0.8"/>
<path d="M688 520.5V511H702.5V517.5L700 521.5V584.5H826L828.5 581.5H838V597H830.5L827 595.5H689.5V523L688 520.5Z" fill="#6E6E6E" fill-opacity="0.8"/>
<path d="M905.5 581.5H913.5L916.5 584.5H1058.5L1063 581.5H1070.5V595.5H1062L1058.5 594H916.5L913.5 597H905.5V581.5Z" fill="#6E6E6E" fill-opacity="0.8"/>
<path d="M1138 581.5V595.5H1146.5L1148.5 593.5H1286.5V521.5L1288.5 519.5V509.5H1273.5V518.5L1276.5 520.5V583.5H1149.5L1146.5 581.5H1138Z" fill="#6E6E6E" fill-opacity="0.8"/>
<path d="M932.5 775.5H915.5V770.5H859V777.5H855.5V1267H861V1271H1192.5V1265.5H1197.5V775.5H1191.5V770H1136.5V775.5H1117.5V759H1210V1284H1192.5V1281.5H859.5V1284.5H843V759.5H932.5V775.5Z" fill="#6E6E6E" fill-opacity="0.8"/>
<path d="M1450.5 742V751.5L1452.5 753.5V980.5H1681L1683.5 983H1692.5V967.5H1683.5L1681 969.5H1463.5V753.5L1465.5 751.5V742H1450.5Z" fill="#6E6E6E" fill-opacity="0.8"/>
<path d="M522.5 519H512V56H61V434.5H216V508H439L442 505.5H448.5V519H442L439 517H134.5V611H212V684.5H445.5V758.5H678.5V898.5L681 902.5V909.5H667V902.5L669 898.5V773.5H662.5V768H443.5V774H430.5V761H436V699.5H430.5V694.5H67V700.5H61.5V829.5L33 869.5V1020L62 1061V1191H67.5V1197.5H515.5L519.5 1194H527.5V1209H519.5L515.5 1205.5H136V1280H58.5V1370H136V1447.5H516.5L520 1445.5H528.5V1461.5H520L516.5 1457.5H388.5V1473H270V1457.5H63.5V1909H215.5L268 1939.5H391L444.5 1908H518V1830H591V1445.5H602.5V1913H693V1834.5H766.5V1368.5H904L908.5 1366H916.5V1382H908.5L904 1378.5H795.5V1386.5H783.5V1397H776.5V1551H783.5V1576H776.5V1705.5H783.5V1731H776.5V1888.5H784.5V1900.5H795.5V1907H833.5V1896.5H872.5V1886H901V1881L908 1874.5H911L914 1878.5V1889.5H927V1899.5H886.5V1909.5H846V1917.5H766.5V1844.5H703V1923H593V1841H528.5V1919H444.5L391 1949.5H267L212 1919H53V1447.5H126V1380.5H47V1269.5H125V1205.5H52V1063L23.5 1021V867L52 825.5V684.5H202.5V621.5H125V508H206.5V444.5H51V46H521.5V197H590.5V119H745.5V40.5H847.5V149H1127.5V40.5H1229V118H1384.5V195.5H1451.5V42H1924.5V437H1850.5V505H1929.5V979H1851.5V1129.5H1925.5L1951.5 1207V1295L1924.5 1372.5H1852V1415.5H1930V1532.5H1852V1599.5H1927V1916.5H1767L1715 1948H1506.5L1450.5 1914V1843.5H1213V1916H1134V1909H1093V1899.5H1052.5V1890.5H1066.5V1876.5H1072.5L1078 1883V1887H1106.5V1896.5H1146V1905.5H1183V1899.5H1195.5V1887H1202.5V1730.5H1195.5V1704.5H1202.5V1575H1195.5V1550.5H1202.5V1396.5H1195.5V1385H1183V1379H994.5L991.5 1382H983.5V1366H991.5L994.5 1368.5H1211.5V1833.5H1376V1599H1387.5V1833.5H1461V1909L1509 1937.5H1712L1765 1907H1916.5V1610.5H1464.5L1461.5 1613.5H1453.5V1599H1461.5L1464.5 1601H1842V1522H1919V1426H1453.5V1352.5H1375.5V1297L1373.5 1294V1287H1389.5V1294L1387 1297V1341.5H1464V1416H1588V1390.5H1718V1416H1842V1363.5H1917L1941 1295V1207L1917 1140.5H1841V1066.5H1463.5V1146H1387V1207L1388.5 1211.5V1219.5H1373V1211.5L1375 1207V1133.5H1453V1056H1841V979H1771L1767.5 983H1760V967.5H1767.5L1771 970H1919V617.5H1463V663L1465 667.5V675.5H1451V667.5L1452.5 663V608H1919V514.5H1840.5V437H1540.5L1537.5 440H1530.5V425H1537.5L1540.5 428H1914.5V52H1461.5V440H1452V206H1374.5V128H1219V51H1137V235.5H1286.5V432.5L1288 435.5V442.5H1273.5V435.5L1277.5 431.5V244.5H1127.5V158.5H847.5V245.5H698.5V433L702 436V443.5H687.5V235.5H837V51H755V129.5H600V207H521.5V518L522.5 519Z" stroke="white" stroke-opacity="0.9" stroke-width="2"/>
<path d="M668.5 987.5L666.5 984.5V976.5H681V984.5L679 987.5V1206.5H606L601 1209H595V1194H603.5L606 1197.5H663.5V1192H669.5V987.5H668.5Z" stroke="white" stroke-opacity="0.9" stroke-width="2"/>
<path d="M688 520.5V511H702.5V517.5L700 521.5V584.5H826L828.5 581.5H838V597H830.5L827 595.5H689.5V523L688 520.5Z" stroke="white" stroke-opacity="0.9" stroke-width="2"/>
<path d="M905.5 581.5H913.5L916.5 584.5H1058.5L1063 581.5H1070.5V595.5H1062L1058.5 594H916.5L913.5 597H905.5V581.5Z" stroke="white" stroke-opacity="0.9" stroke-width="2"/>
<path d="M1138 581.5V595.5H1146.5L1148.5 593.5H1286.5V521.5L1288.5 519.5V509.5H1273.5V518.5L1276.5 520.5V583.5H1149.5L1146.5 581.5H1138Z" stroke="white" stroke-opacity="0.9" stroke-width="2"/>
<path d="M932.5 775.5H915.5V770.5H859V777.5H855.5V1267H861V1271H1192.5V1265.5H1197.5V775.5H1191.5V770H1136.5V775.5H1117.5V759H1210V1284H1192.5V1281.5H859.5V1284.5H843V759.5H932.5V775.5Z" stroke="white" stroke-opacity="0.9" stroke-width="2"/>
<path d="M1450.5 742V751.5L1452.5 753.5V980.5H1681L1683.5 983H1692.5V967.5H1683.5L1681 969.5H1463.5V753.5L1465.5 751.5V742H1450.5Z" stroke="white" stroke-opacity="0.9" stroke-width="2"/>
<path d="M774.497 97.5V151H826.997V97.5H774.497Z" fill="white"/>
<path d="M1148 97.5V151H1200.5V97.5H1148Z" fill="#618547"/>
<path d="M1871.5 544L1818 544L1818 596.5L1871.5 596.5L1871.5 544Z" fill="#4C599D"/>
<path d="M1871.5 1438L1818 1438L1818 1490.5L1871.5 1490.5L1871.5 1438Z" fill="#6C3C89"/>
<path d="M680.5 1865.5L680.5 1812L628 1812L628 1865.5L680.5 1865.5Z" fill="#872427"/>
<path d="M105 1344.5L158.5 1344.5L158.5 1292L105 1292L105 1344.5Z" fill="#C5A12F"/>
<rect x="477" y="1216" width="54" height="54" fill="#D9D9D9"/>
<rect x="477" y="1292" width="54" height="54" fill="#D9D9D9"/>
<rect x="477" y="1366" width="54" height="54" fill="#D9D9D9"/>
<rect x="552" y="1216" width="54" height="54" fill="#D9D9D9"/>
<rect x="552" y="1292" width="54" height="54" fill="#D9D9D9"/>
<rect x="552" y="1366" width="54" height="54" fill="#D9D9D9"/>
<rect x="627" y="1216" width="54" height="54" fill="#D9D9D9"/>
<rect x="627" y="1292" width="54" height="54" fill="#D9D9D9"/>
<rect x="627" y="1366" width="54" height="54" fill="#D9D9D9"/>
<rect x="627" y="1440" width="54" height="54" fill="#D9D9D9"/>
<rect x="627" y="1514" width="54" height="54" fill="#D9D9D9"/>
<rect x="627" y="1588" width="54" height="54" fill="#D9D9D9"/>
<rect x="627" y="1664" width="54" height="54" fill="#D9D9D9"/>
<rect x="627" y="1738" width="54" height="54" fill="#D9D9D9"/>
<rect x="702" y="1738" width="54" height="54" fill="#D9D9D9"/>
<rect x="702" y="1664" width="54" height="54" fill="#D9D9D9"/>
<rect x="702" y="1588" width="54" height="54" fill="#D9D9D9"/>
<rect x="702" y="1514" width="54" height="54" fill="#D9D9D9"/>
<rect x="702" y="1440" width="54" height="54" fill="#D9D9D9"/>
<rect x="702" y="1366" width="54" height="54" fill="#D9D9D9"/>
<rect x="702" y="1291" width="54" height="54" fill="#D9D9D9"/>
<rect x="775" y="1291" width="54" height="54" fill="#D9D9D9"/>
<rect x="850" y="1291" width="54" height="54" fill="#D9D9D9"/>
<rect x="925" y="1291" width="54" height="54" fill="#D9D9D9"/>
<rect x="1000" y="1291" width="54" height="54" fill="#D9D9D9"/>
<rect x="1073" y="1291" width="54" height="54" fill="#D9D9D9"/>
<rect x="1148" y="1291" width="54" height="54" fill="#D9D9D9"/>
<rect x="1223" y="1291" width="54" height="54" fill="#D9D9D9"/>
<rect x="1223" y="1214" width="54" height="54" fill="#D9D9D9"/>
<rect x="1223" y="1140" width="54" height="54" fill="#D9D9D9"/>
<rect x="1223" y="1066" width="54" height="54" fill="#D9D9D9"/>
<rect x="1223" y="992" width="54" height="54" fill="#D9D9D9"/>
<rect x="1223" y="915" width="54" height="54" fill="#D9D9D9"/>
<rect x="1223" y="843" width="54" height="54" fill="#D9D9D9"/>
<rect x="1223" y="768" width="54" height="54" fill="#D9D9D9"/>
<rect x="1223" y="693" width="54" height="54" fill="#D9D9D9"/>
<rect x="1223" y="618" width="54" height="54" fill="#D9D9D9"/>
<rect x="1147" y="618" width="54" height="54" fill="#D9D9D9"/>
<rect x="1073" y="618" width="54" height="54" fill="#D9D9D9"/>
<rect x="999" y="618" width="54" height="54" fill="#D9D9D9"/>
<rect x="924" y="618" width="54" height="54" fill="#D9D9D9"/>
<rect x="850" y="618" width="54" height="54" fill="#D9D9D9"/>
<rect x="850" y="694" width="54" height="54" fill="#D9D9D9"/>
<rect x="924" y="694" width="54" height="54" fill="#D9D9D9"/>
<rect x="999" y="694" width="54" height="54" fill="#D9D9D9"/>
<rect x="1073" y="694" width="54" height="54" fill="#D9D9D9"/>
<rect x="1147" y="694" width="54" height="54" fill="#D9D9D9"/>
<rect x="1223" y="1364" width="54" height="54" fill="#D9D9D9"/>
<rect x="1223" y="1439" width="54" height="54" fill="#D9D9D9"/>
<rect x="1223" y="1514" width="54" height="54" fill="#D9D9D9"/>
<rect x="1223" y="1588" width="54" height="54" fill="#D9D9D9"/>
<rect x="1223" y="1663" width="54" height="54" fill="#D9D9D9"/>
<rect x="1223" y="1738" width="54" height="54" fill="#D9D9D9"/>
<rect x="1298" y="1738" width="54" height="54" fill="#D9D9D9"/>
<rect x="1298" y="1663" width="54" height="54" fill="#D9D9D9"/>
<rect x="1298" y="1588" width="54" height="54" fill="#D9D9D9"/>
<rect x="1298" y="1514" width="54" height="54" fill="#D9D9D9"/>
<rect x="1373" y="1514" width="54" height="54" fill="#D9D9D9"/>
<rect x="1446" y="1514" width="54" height="54" fill="#D9D9D9"/>
<rect x="1521" y="1514" width="54" height="54" fill="#D9D9D9"/>
<rect x="1596" y="1514" width="54" height="54" fill="#D9D9D9"/>
<rect x="1671" y="1514" width="54" height="54" fill="#D9D9D9"/>
<rect x="1746" y="1514" width="54" height="54" fill="#D9D9D9"/>
<rect x="1746" y="1437" width="54" height="54" fill="#D9D9D9"/>
<rect x="1671" y="1437" width="54" height="54" fill="#D9D9D9"/>
<rect x="1596" y="1437" width="54" height="54" fill="#D9D9D9"/>
<rect x="1521" y="1437" width="54" height="54" fill="#D9D9D9"/>
<rect x="1446" y="1437" width="54" height="54" fill="#D9D9D9"/>
<rect x="1373" y="1437" width="54" height="54" fill="#D9D9D9"/>
<rect x="1298" y="1437" width="54" height="54" fill="#D9D9D9"/>
<rect x="1298" y="1364" width="54" height="54" fill="#D9D9D9"/>
<rect x="1373" y="1364" width="54" height="54" fill="#D9D9D9"/>
<rect x="1298" y="1291" width="54" height="54" fill="#D9D9D9"/>
<rect x="1298" y="1214" width="54" height="54" fill="#D9D9D9"/>
<rect x="1298" y="1140" width="54" height="54" fill="#D9D9D9"/>
<rect x="1298" y="1066" width="54" height="54" fill="#D9D9D9"/>
<rect x="1298" y="991" width="54" height="54" fill="#D9D9D9"/>
<rect x="1298" y="843" width="54" height="54" fill="#D9D9D9"/>
<rect x="1298" y="768" width="54" height="54" fill="#D9D9D9"/>
<rect x="1298" y="693" width="54" height="54" fill="#D9D9D9"/>
<rect x="1298" y="618" width="54" height="54" fill="#D9D9D9"/>
<rect x="1298" y="543" width="54" height="54" fill="#D9D9D9"/>
<rect x="1298" y="468" width="54" height="54" fill="#D9D9D9"/>
<rect x="1298" y="393" width="54" height="54" fill="#D9D9D9"/>
<rect x="1298" y="320" width="54" height="54" fill="#D9D9D9"/>
<rect x="1298" y="247" width="54" height="54" fill="#D9D9D9"/>
<rect x="1371" y="247" width="54" height="54" fill="#D9D9D9"/>
<rect x="1371" y="320" width="54" height="54" fill="#D9D9D9"/>
<rect x="1298" y="172" width="54" height="54" fill="#D9D9D9"/>
<rect x="1222" y="172" width="54" height="54" fill="#D9D9D9"/>
<rect x="1146" y="172" width="54" height="54" fill="#D9D9D9"/>
<rect x="1298" y="915" width="54" height="54" fill="#D9D9D9"/>
<rect x="1371" y="991" width="54" height="54" fill="#D9D9D9"/>
<rect x="1371" y="915" width="54" height="54" fill="#D9D9D9"/>
<rect x="1371" y="843" width="54" height="54" fill="#D9D9D9"/>
<rect x="1371" y="768" width="54" height="54" fill="#D9D9D9"/>
<rect x="1371" y="694" width="54" height="54" fill="#D9D9D9"/>
<rect x="1371" y="618" width="54" height="54" fill="#D9D9D9"/>
<rect x="1371" y="543" width="54" height="54" fill="#D9D9D9"/>
<rect x="1444" y="543" width="54" height="54" fill="#D9D9D9"/>
<rect x="1520" y="543" width="54" height="54" fill="#D9D9D9"/>
<rect x="1596" y="543" width="54" height="54" fill="#D9D9D9"/>
<rect x="1669" y="543" width="54" height="54" fill="#D9D9D9"/>
<rect x="1742" y="543" width="54" height="54" fill="#D9D9D9"/>
<rect x="1742" y="468" width="54" height="54" fill="#D9D9D9"/>
<rect x="1669" y="468" width="54" height="54" fill="#D9D9D9"/>
<rect x="1596" y="468" width="54" height="54" fill="#D9D9D9"/>
<rect x="1520" y="468" width="54" height="54" fill="#D9D9D9"/>
<rect x="1444" y="468" width="54" height="54" fill="#D9D9D9"/>
<rect x="1371" y="468" width="54" height="54" fill="#D9D9D9"/>
<rect x="1371" y="393" width="54" height="54" fill="#D9D9D9"/>
<rect x="1446" y="991" width="54" height="54" fill="#D9D9D9"/>
<rect x="1521" y="991" width="54" height="54" fill="#D9D9D9"/>
<rect x="1596" y="991" width="54" height="54" fill="#D9D9D9"/>
<rect x="1669" y="991" width="54" height="54" fill="#D9D9D9"/>
<rect x="1744" y="991" width="54" height="54" fill="#D9D9D9"/>
<rect x="1371" y="1066" width="54" height="54" fill="#D9D9D9"/>
<rect x="702" y="1216" width="54" height="54" fill="#D9D9D9"/>
<rect x="702" y="1141" width="54" height="54" fill="#D9D9D9"/>
<rect x="702" y="1066" width="54" height="54" fill="#D9D9D9"/>
<rect x="702" y="992" width="54" height="54" fill="#D9D9D9"/>
<rect x="702" y="917" width="54" height="54" fill="#D9D9D9"/>
<rect x="702" y="842" width="54" height="54" fill="#D9D9D9"/>
<rect x="702" y="767" width="54" height="54" fill="#D9D9D9"/>
<rect x="702" y="694" width="54" height="54" fill="#D9D9D9"/>
<rect x="625" y="694" width="54" height="54" fill="#D9D9D9"/>
<rect x="552" y="694" width="54" height="54" fill="#D9D9D9"/>
<rect x="477" y="694" width="54" height="54" fill="#D9D9D9"/>
<rect x="702" y="619" width="54" height="54" fill="#D9D9D9"/>
<rect x="625" y="619" width="54" height="54" fill="#D9D9D9"/>
<rect x="552" y="619" width="54" height="54" fill="#D9D9D9"/>
<rect x="477" y="619" width="54" height="54" fill="#D9D9D9"/>
<rect x="402" y="619" width="54" height="54" fill="#D9D9D9"/>
<rect x="329" y="619" width="54" height="54" fill="#D9D9D9"/>
<rect x="254" y="619" width="54" height="54" fill="#D9D9D9"/>
<rect x="254" y="546" width="54" height="54" fill="#D9D9D9"/>
<rect x="179" y="546" width="54" height="54" fill="#D9D9D9"/>
<rect x="329" y="546" width="54" height="54" fill="#D9D9D9"/>
<rect x="402" y="546" width="54" height="54" fill="#D9D9D9"/>
<rect x="477" y="546" width="54" height="54" fill="#D9D9D9"/>
<rect x="552" y="546" width="54" height="54" fill="#D9D9D9"/>
<rect x="552" y="471" width="54" height="54" fill="#D9D9D9"/>
<rect x="552" y="396" width="54" height="54" fill="#D9D9D9"/>
<rect x="552" y="321" width="54" height="54" fill="#D9D9D9"/>
<rect x="552" y="246" width="54" height="54" fill="#D9D9D9"/>
<rect x="625" y="246" width="54" height="54" fill="#D9D9D9"/>
<rect x="625" y="171" width="54" height="54" fill="#D9D9D9"/>
<rect x="700" y="171" width="54" height="54" fill="#D9D9D9"/>
<rect x="775" y="171" width="54" height="54" fill="#D9D9D9"/>
<rect x="625" y="321" width="54" height="54" fill="#D9D9D9"/>
<rect x="625" y="396" width="54" height="54" fill="#D9D9D9"/>
<rect x="625" y="546" width="54" height="54" fill="#D9D9D9"/>
<rect x="625" y="471" width="54" height="54" fill="#D9D9D9"/>
<rect x="775" y="1216" width="54" height="54" fill="#D9D9D9"/>
<rect x="775" y="1141" width="54" height="54" fill="#D9D9D9"/>
<rect x="775" y="1066" width="54" height="54" fill="#D9D9D9"/>
<rect x="775" y="992" width="54" height="54" fill="#D9D9D9"/>
<rect x="775" y="917" width="54" height="54" fill="#D9D9D9"/>
<rect x="775" y="842" width="54" height="54" fill="#D9D9D9"/>
<rect x="775" y="767" width="54" height="54" fill="#D9D9D9"/>
<rect x="775" y="694" width="54" height="54" fill="#D9D9D9"/>
<rect x="775" y="619" width="54" height="54" fill="#D9D9D9"/>
<rect x="404" y="1216" width="54" height="54" fill="#D9D9D9"/>
<rect x="404" y="1292" width="54" height="54" fill="#D9D9D9"/>
<rect x="404" y="1366" width="54" height="54" fill="#D9D9D9"/>
<rect x="329" y="1216" width="54" height="54" fill="#D9D9D9"/>
<rect x="329" y="1292" width="54" height="54" fill="#D9D9D9"/>
<rect x="329" y="1366" width="54" height="54" fill="#D9D9D9"/>
<rect x="254" y="1216" width="54" height="54" fill="#D9D9D9"/>
<rect x="254" y="1292" width="54" height="54" fill="#D9D9D9"/>
<rect x="254" y="1366" width="54" height="54" fill="#D9D9D9"/>
<rect x="179" y="1216" width="54" height="54" fill="#D9D9D9"/>
<rect x="179" y="1292" width="54" height="54" fill="#D9D9D9"/>
<rect x="179" y="1366" width="54" height="54" fill="#D9D9D9"/>
<path d="M1452.5 1598H1388.5V1832.5H1462V1908.5L1509 1936.5H1712L1764.72 1906H1915.5V1611.5H1465L1462 1614.5H1452.5V1598Z" fill="#003B66" fill-opacity="0.4"/>
<path d="M590 1444.5H529.5V1462.5H519.5L516 1458.5H389.5V1474H269V1458.5H64.5V1908H216L268.5 1938.5H390.5L444 1907H517V1829H590V1444.5Z" fill="#003B66" fill-opacity="0.4"/>
<path d="M1372.5 1286V1220.5H1389.5V1211.5L1388 1206.81V1147H1464.5V1067.5H1840V1141.5H1916.5L1940 1207.18V1295L1916.29 1362.5H1841V1415H1719V1389.5H1587V1415H1465V1340.5H1388V1297.5L1390.5 1294.5V1286H1372.5Z" fill="#003B66" fill-opacity="0.4"/>
<path d="M511 520H449.5V504.5H441.5L438.5 507H217V433.5H62V57H511V520Z" fill="#003B66" fill-opacity="0.4"/>
<path d="M682 910.5V975.5H665.5V984.5L668 988.5H668.5V1191H662.5V1196.5H606.5L604 1193H594V1210H528.5V1193H519L515 1196.5H68.5V1190H63V1060.5L34 1019.5V870L62.5 830V701.5H68V695.5H429.5V700.5H435V760H429.5V775H444.5V769H661.5V774.5H668V898L666 902V910.5H682Z" fill="#003B66" fill-opacity="0.4"/>
<path d="M1116.5 760H933.5V776.5H914.5V771.5H860V778.5H856.5V1266H862V1270H1191.5V1264.5H1196.5V776.5H1190.5V771H1137.5V776.5H1116.5V760Z" fill="#003B66" fill-opacity="0.4"/>
<path d="M1529.5 441H1462.5V53H1913.5V427H1541L1538 424H1529.5V441Z" fill="#003B66" fill-opacity="0.4"/>
<path d="M1450 741V676.5H1466V667.5L1464 662.5V618.5H1918V969H1771.5L1768 966.5H1759V984H1693.5V966.5H1683L1680.5 968.5H1464.5V754L1466.5 752V741H1450Z" fill="#003B66" fill-opacity="0.4"/>
<path d="M687 510V444.5H703V435.5L699.5 432.5V246.5H848.5V159.5H1126.5V245.5H1276.5V431L1272.5 435V443.5H1289V508.5H1272.5V519L1275.5 521V582.5H1150L1147 580.5H1137V596.5H1071.5V580.5H1062.5L1058.21 583.5H917L914 580.5H904.5V598H839V580.5H828L825.5 583.5H701V522L703.5 518V510H687Z" fill="#003B66" fill-opacity="0.4"/>
<path d="M982.5 1365H917.5V1383H908L903.667 1379.5H796.5V1387.5H784.5V1398H777.5V1550H784.5V1577H777.5V1704.5H784.5V1732H777.5V1887.5H785.5V1899.5H796.5V1906H832.5V1895.5H871.5V1885H900V1880.5L907.5 1873.5H911.5L915 1878V1888.5H928V1900.5H1051.5V1889.5H1065.5V1875.5H1073L1079 1882.5V1886H1107.5V1895.5H1147V1904.5H1182V1898.5H1194.5V1886H1201.5V1731.5H1194.5V1703.5H1201.5V1576H1194.5V1549.5H1201.5V1397.5H1194.5V1386H1182V1380H995L992 1383H982.5V1365Z" fill="#003B66" fill-opacity="0.4"/>
</svg>
