<svg width="34" height="34" viewBox="0 0 34 34" fill="none" xmlns="http://www.w3.org/2000/svg">
<rect x="2.5" y="2.5" width="29" height="29" rx="2.5" stroke="#044210" stroke-opacity="0.95" stroke-width="5"/>
<rect x="5" y="5" width="24" height="24" fill="#114B1C"/>
<path d="M28.0642 23.5369C29.3119 24.7835 29.3119 26.8001 28.0642 28.043C27.4404 28.6663 26.633 29 25.789 29C24.9817 29 24.1743 28.7067 23.5505 28.043L17.0183 21.557L10.4862 28.043C9.86239 28.6663 9.05505 29 8.21101 29C7.40367 29 6.55963 28.6663 5.93578 28.043C4.68807 26.8001 4.68807 24.7835 5.93578 23.5002L12.4679 17.0105L5.93578 10.4805C4.68807 9.23756 4.68807 7.18432 5.93578 5.93771C7.18349 4.68743 9.20183 4.68743 10.4862 5.93771L17.0183 12.4604L23.5138 5.93771C24.7982 4.68743 26.8165 4.68743 28.0642 5.93771C29.3119 7.18432 29.3119 9.23756 28.0642 10.4805L21.5321 17.0105L28.0642 23.5369Z" fill="white"/>
</svg>
