<?xml version="1.0" standalone="no"?>
<!DOCTYPE svg PUBLIC "-//W3C//DTD SVG 20010904//EN"
 "http://www.w3.org/TR/2001/REC-SVG-20010904/DTD/svg10.dtd">
<svg version="1.0" xmlns="http://www.w3.org/2000/svg"
 width="512.000000pt" height="512.000000pt" viewBox="0 0 512.000000 512.000000"
 preserveAspectRatio="xMidYMid meet">

<g transform="translate(0.000000,512.000000) scale(0.100000,-0.100000)"
fill="#000000" stroke="none">
<path d="M3170 5102 c-19 -9 -45 -32 -57 -51 l-23 -34 0 -2457 0 -2457 23 -34
c26 -40 79 -69 124 -69 40 0 1796 761 1832 793 54 50 51 -44 51 1767 0 1811 3
1717 -51 1767 -36 32 -1792 793 -1832 793 -17 0 -48 -8 -67 -18z m615 -2339
c80 -40 127 -116 127 -203 0 -146 -130 -249 -274 -219 -42 9 -62 22 -103 63
-65 65 -84 126 -64 208 16 70 95 151 160 166 51 12 112 6 154 -15z"/>
<path d="M790 3910 c-40 -10 -96 -65 -107 -107 -7 -28 60 -612 78 -685 12 -47
66 -94 118 -103 54 -9 123 22 151 67 27 45 26 74 -19 432 -42 332 -45 342
-107 377 -40 23 -73 28 -114 19z"/>
<path d="M1505 3592 c-16 -11 -35 -25 -42 -33 -22 -27 -183 -444 -183 -474 0
-43 30 -96 69 -122 63 -43 165 -23 205 39 33 52 176 430 176 466 0 107 -133
180 -225 124z"/>
<path d="M73 3290 c-40 -24 -62 -57 -70 -103 -11 -68 11 -102 169 -263 167
-170 209 -203 266 -211 46 -6 113 24 138 62 19 30 29 94 19 132 -7 31 -331
365 -377 389 -39 20 -107 18 -145 -6z"/>
<path d="M2335 2470 l-450 -450 370 -370 370 -370 83 83 82 82 -2 738 -3 737
-450 -450z"/>
<path d="M534 2139 c-95 -36 -184 -135 -199 -221 -4 -21 -2 -61 5 -90 12 -51
23 -63 323 -365 171 -172 322 -316 336 -322 21 -8 235 -41 263 -41 4 0 0 -16
-8 -35 -20 -48 -17 -132 5 -180 11 -25 84 -105 192 -211 167 -165 176 -172
230 -184 48 -11 64 -10 115 5 57 16 67 25 337 293 l277 277 -393 393 -393 393
-464 154 c-508 169 -525 173 -626 134z"/>
</g>
</svg>
