<svg width="141" height="135" viewBox="0 0 141 135" fill="none" xmlns="http://www.w3.org/2000/svg">
<path d="M77.9212 3.16215C77.6469 3.24444 66.9502 11.6646 54.1417 21.9225L30.8558 40.5182L18.7329 40.6005C6.74714 40.6828 6.55514 40.6828 5.32091 41.3136C3.29129 42.301 1.89249 43.6998 0.905104 45.702L0 47.5397V68.5216V89.5036L0.905104 91.3412C1.89249 93.3434 3.29129 94.7422 5.32091 95.7296C6.55514 96.3604 6.74714 96.3604 18.7329 96.4427L30.8558 96.525L54.1142 115.121C66.9228 125.351 77.6744 133.799 78.0583 133.881C80.1154 134.43 82.337 133.552 83.3792 131.769L84.0649 130.59V68.5216V6.45344L83.3792 5.27406C82.337 3.49128 80.0605 2.61361 77.9212 3.16215Z" fill="#E7E4E4"/>
<path d="M116.403 21.0724C114.455 21.6484 113.139 23.4586 113.139 25.5979C113.139 27.2436 113.331 27.5727 115.991 30.5349C120.215 35.2249 122.766 38.9551 125.234 44.0017C131.625 57.112 132.64 72.1422 128.059 86.0479C125.508 93.7824 121.833 100.008 115.991 106.509C113.331 109.471 113.139 109.8 113.139 111.446C113.139 114.6 115.909 116.767 118.953 115.971C119.886 115.724 120.599 115.176 122.245 113.503C130.226 105.302 136.287 93.9195 138.783 82.3726C143.309 61.4181 137.302 39.6407 122.574 23.8426C120.078 21.1547 118.487 20.4416 116.403 21.0724Z" fill="#E7E4E4"/>
<path d="M103.264 34.3197C101.152 35.0054 99.9727 36.5962 99.9727 38.7081C99.9727 40.4086 100.411 41.204 102.715 43.7273C108.887 50.5293 112.096 58.9769 112.096 68.5216C112.096 77.9841 108.941 86.4043 102.825 93.1788C100.384 95.9216 99.9727 96.6347 99.9727 98.2803C99.9727 100.502 101.289 102.23 103.401 102.778C104.718 103.108 106.199 102.833 107.323 102.038C108.475 101.188 111.931 97.101 113.769 94.3582C115.551 91.7526 117.91 87.0077 118.98 84.0181C120.955 78.4503 121.915 70.7707 121.393 64.8738C120.461 54.3965 116.868 45.8118 110.148 37.9401C107.213 34.4842 105.486 33.5791 103.264 34.3197Z" fill="#E7E4E4"/>
<rect x="114.529" width="16" height="165.312" rx="5" transform="rotate(41.4951 114.529 0)" fill="#FF0000"/>
</svg>
