<svg width="420" height="502" viewBox="0 0 420 502" fill="none" xmlns="http://www.w3.org/2000/svg">
<path d="M0 0.5382V501.522H420V45.8486H240.22C240.22 -1.68391 240.22 0.538219 175.171 0.538219L0 0.5382Z" fill="white"/>
<path d="M240.22 48.3486H417.5V499.022H2.5V3.0382L175.171 3.03822C178.094 3.03822 180.881 3.03381 183.539 3.0296C195.726 3.01032 205.2 2.99534 212.631 3.42945C221.761 3.96278 227.25 5.16246 230.708 7.45293C233.944 9.59658 235.77 12.9661 236.733 19.1037C237.712 25.3398 237.72 33.8771 237.72 45.8486V48.3486H240.22Z" stroke="#044210" stroke-opacity="0.95" stroke-width="5"/>
<path d="M50.5373 50.522V24.3402H60.8668C62.8441 24.3402 64.5316 24.6938 65.9293 25.4012C67.3356 26.1001 68.4052 27.093 69.1381 28.3799C69.8796 29.6583 70.2504 31.1626 70.2504 32.8927C70.2504 34.6313 69.8754 36.1271 69.1254 37.3799C68.3754 38.6242 67.2887 39.5788 65.8654 40.2436C64.4506 40.9083 62.7376 41.2407 60.7262 41.2407H53.81V36.7919H59.8313C60.8881 36.7919 61.766 36.647 62.4648 36.3572C63.1637 36.0674 63.6836 35.6328 64.0245 35.0532C64.3739 34.4737 64.5487 33.7535 64.5487 32.8927C64.5487 32.0234 64.3739 31.2904 64.0245 30.6938C63.6836 30.0973 63.1594 29.6456 62.4521 29.3387C61.7532 29.0234 60.8711 28.8657 59.8058 28.8657H56.0728V50.522H50.5373ZM64.6765 38.6072L71.1836 50.522H65.0728L58.7063 38.6072H64.6765ZM98.2219 37.4311C98.2219 40.2862 97.6808 42.7152 96.5984 44.718C95.5245 46.7208 94.0586 48.2507 92.2006 49.3075C90.3512 50.3558 88.2717 50.8799 85.962 50.8799C83.6353 50.8799 81.5472 50.3515 79.6978 49.2947C77.8484 48.2379 76.3867 46.7081 75.3129 44.7052C74.239 42.7024 73.7021 40.2777 73.7021 37.4311C73.7021 34.5759 74.239 32.147 75.3129 30.1441C76.3867 28.1413 77.8484 26.6157 79.6978 25.5674C81.5472 24.5106 83.6353 23.9822 85.962 23.9822C88.2717 23.9822 90.3512 24.5106 92.2006 25.5674C94.0586 26.6157 95.5245 28.1413 96.5984 30.1441C97.6808 32.147 98.2219 34.5759 98.2219 37.4311ZM92.6097 37.4311C92.6097 35.5816 92.3327 34.022 91.7788 32.7521C91.2333 31.4822 90.462 30.5191 89.4648 29.8629C88.4677 29.2066 87.3001 28.8785 85.962 28.8785C84.6239 28.8785 83.4563 29.2066 82.4592 29.8629C81.462 30.5191 80.6864 31.4822 80.1325 32.7521C79.587 34.022 79.3143 35.5816 79.3143 37.4311C79.3143 39.2805 79.587 40.8402 80.1325 42.11C80.6864 43.3799 81.462 44.343 82.4592 44.9992C83.4563 45.6555 84.6239 45.9836 85.962 45.9836C87.3001 45.9836 88.4677 45.6555 89.4648 44.9992C90.462 44.343 91.2333 43.3799 91.7788 42.11C92.3327 40.8402 92.6097 39.2805 92.6097 37.4311ZM126.382 37.4311C126.382 40.2862 125.841 42.7152 124.759 44.718C123.685 46.7208 122.219 48.2507 120.361 49.3075C118.511 50.3558 116.432 50.8799 114.122 50.8799C111.795 50.8799 109.707 50.3515 107.858 49.2947C106.009 48.2379 104.547 46.7081 103.473 44.7052C102.399 42.7024 101.862 40.2777 101.862 37.4311C101.862 34.5759 102.399 32.147 103.473 30.1441C104.547 28.1413 106.009 26.6157 107.858 25.5674C109.707 24.5106 111.795 23.9822 114.122 23.9822C116.432 23.9822 118.511 24.5106 120.361 25.5674C122.219 26.6157 123.685 28.1413 124.759 30.1441C125.841 32.147 126.382 34.5759 126.382 37.4311ZM120.77 37.4311C120.77 35.5816 120.493 34.022 119.939 32.7521C119.393 31.4822 118.622 30.5191 117.625 29.8629C116.628 29.2066 115.46 28.8785 114.122 28.8785C112.784 28.8785 111.616 29.2066 110.619 29.8629C109.622 30.5191 108.847 31.4822 108.293 32.7521C107.747 34.022 107.474 35.5816 107.474 37.4311C107.474 39.2805 107.747 40.8402 108.293 42.11C108.847 43.3799 109.622 44.343 110.619 44.9992C111.616 45.6555 112.784 45.9836 114.122 45.9836C115.46 45.9836 116.628 45.6555 117.625 44.9992C118.622 44.343 119.393 43.3799 119.939 42.11C120.493 40.8402 120.77 39.2805 120.77 37.4311ZM130.483 24.3402H137.309L144.52 41.9311H144.826L152.037 24.3402H158.863V50.522H153.494V33.4808H153.277L146.501 50.3941H142.845L136.069 33.4169H135.852V50.522H130.483V24.3402ZM177.627 31.87C177.525 30.8387 177.086 30.0376 176.31 29.4666C175.535 28.8956 174.482 28.61 173.153 28.61C172.249 28.61 171.487 28.7379 170.864 28.9936C170.242 29.2407 169.765 29.5859 169.433 30.0291C169.109 30.4723 168.947 30.9751 168.947 31.5376C168.93 32.0063 169.028 32.4154 169.241 32.7649C169.462 33.1143 169.765 33.4169 170.148 33.6725C170.532 33.9197 170.975 34.137 171.478 34.3245C171.981 34.5035 172.518 34.6569 173.089 34.7848L175.441 35.3473C176.583 35.6029 177.631 35.9438 178.586 36.37C179.54 36.7961 180.367 37.3203 181.066 37.9424C181.765 38.5646 182.306 39.2975 182.69 40.1413C183.082 40.985 183.282 41.9524 183.29 43.0433C183.282 44.6456 182.873 46.0348 182.063 47.2109C181.262 48.3785 180.103 49.2862 178.586 49.9339C177.077 50.5731 175.258 50.8927 173.127 50.8927C171.013 50.8927 169.173 50.5688 167.604 49.9211C166.045 49.2734 164.826 48.3146 163.948 47.0447C163.079 45.7663 162.623 44.1853 162.58 42.3018H167.937C167.996 43.1796 168.248 43.9126 168.691 44.5007C169.143 45.0802 169.744 45.5191 170.494 45.8174C171.252 46.1072 172.109 46.2521 173.063 46.2521C174.001 46.2521 174.815 46.1157 175.505 45.843C176.204 45.5703 176.745 45.191 177.129 44.7052C177.512 44.2194 177.704 43.6612 177.704 43.0305C177.704 42.4424 177.529 41.9481 177.18 41.5475C176.839 41.147 176.336 40.8061 175.671 40.5248C175.015 40.2436 174.21 39.9879 173.255 39.7578L170.404 39.0419C168.197 38.5049 166.454 37.6654 165.175 36.5234C163.897 35.3813 163.262 33.843 163.271 31.9083C163.262 30.3231 163.684 28.9382 164.536 27.7535C165.397 26.5688 166.577 25.6441 168.077 24.9794C169.577 24.3146 171.282 23.9822 173.191 23.9822C175.134 23.9822 176.83 24.3146 178.279 24.9794C179.737 25.6441 180.87 26.5688 181.68 27.7535C182.489 28.9382 182.907 30.3103 182.933 31.87H177.627Z" fill="#044210"/>
<path d="M101.97 128.522V111.067H105.661V118.269H113.152V111.067H116.834V128.522H113.152V121.312H105.661V128.522H101.97ZM122.885 128.522H118.93L124.956 111.067H129.712L135.729 128.522H131.774L127.402 115.056H127.266L122.885 128.522ZM122.638 121.661H131.979V124.542H122.638V121.661ZM137.83 128.522V111.067H141.52V125.479H149.003V128.522H137.83ZM151.447 128.522V111.067H155.137V125.479H162.62V128.522H151.447Z" fill="#044210"/>
<rect x="39.5" y="105.5" width="29" height="29" rx="2.5" stroke="#044210" stroke-opacity="0.95" stroke-width="5"/>
<rect x="42" y="108" width="24" height="24" fill="#114B1C"/>
<path d="M65.0642 126.537C66.3119 127.784 66.3119 129.8 65.0642 131.043C64.4404 131.666 63.633 132 62.789 132C61.9817 132 61.1743 131.707 60.5505 131.043L54.0183 124.557L47.4862 131.043C46.8624 131.666 46.055 132 45.211 132C44.4037 132 43.5596 131.666 42.9358 131.043C41.6881 129.8 41.6881 127.784 42.9358 126.5L49.4679 120.011L42.9358 113.481C41.6881 112.238 41.6881 110.184 42.9358 108.938C44.1835 107.687 46.2018 107.687 47.4862 108.938L54.0183 115.46L60.5138 108.938C61.7982 107.687 63.8165 107.687 65.0642 108.938C66.3119 110.184 66.3119 112.238 65.0642 113.481L58.5321 120.011L65.0642 126.537Z" fill="white"/>
<path d="M101.607 167.522V150.067H105.297V164.479H112.78V167.522H101.607ZM130.584 158.795C130.584 160.698 130.223 162.317 129.502 163.653C128.786 164.988 127.809 166.008 126.57 166.712C125.337 167.411 123.951 167.761 122.411 167.761C120.86 167.761 119.468 167.408 118.235 166.704C117.002 165.999 116.027 164.979 115.311 163.644C114.596 162.309 114.238 160.692 114.238 158.795C114.238 156.891 114.596 155.272 115.311 153.937C116.027 152.602 117.002 151.584 118.235 150.886C119.468 150.181 120.86 149.829 122.411 149.829C123.951 149.829 125.337 150.181 126.57 150.886C127.809 151.584 128.786 152.602 129.502 153.937C130.223 155.272 130.584 156.891 130.584 158.795ZM126.843 158.795C126.843 157.562 126.658 156.522 126.289 155.675C125.925 154.829 125.411 154.187 124.746 153.749C124.081 153.312 123.303 153.093 122.411 153.093C121.519 153.093 120.74 153.312 120.076 153.749C119.411 154.187 118.894 154.829 118.525 155.675C118.161 156.522 117.979 157.562 117.979 158.795C117.979 160.028 118.161 161.067 118.525 161.914C118.894 162.761 119.411 163.403 120.076 163.84C120.74 164.278 121.519 164.496 122.411 164.496C123.303 164.496 124.081 164.278 124.746 163.84C125.411 163.403 125.925 162.761 126.289 161.914C126.658 161.067 126.843 160.028 126.843 158.795ZM144.099 150.067H147.789V161.403C147.789 162.675 147.485 163.789 146.877 164.744C146.275 165.698 145.431 166.442 144.346 166.977C143.261 167.505 141.997 167.769 140.554 167.769C139.105 167.769 137.838 167.505 136.752 166.977C135.667 166.442 134.824 165.698 134.221 164.744C133.619 163.789 133.318 162.675 133.318 161.403V150.067H137.008V161.087C137.008 161.752 137.153 162.343 137.443 162.86C137.738 163.377 138.153 163.783 138.687 164.079C139.221 164.374 139.843 164.522 140.554 164.522C141.27 164.522 141.892 164.374 142.42 164.079C142.954 163.783 143.366 163.377 143.656 162.86C143.951 162.343 144.099 161.752 144.099 161.087V150.067ZM165.425 150.067V167.522H162.238L154.644 156.536H154.516V167.522H150.826V150.067H154.064L161.598 161.045H161.752V150.067H165.425ZM180.048 155.709C179.929 155.295 179.761 154.928 179.545 154.61C179.329 154.286 179.065 154.013 178.752 153.792C178.446 153.565 178.093 153.391 177.696 153.272C177.304 153.153 176.869 153.093 176.392 153.093C175.5 153.093 174.716 153.315 174.039 153.758C173.369 154.201 172.846 154.846 172.471 155.692C172.096 156.533 171.909 157.562 171.909 158.778C171.909 159.994 172.093 161.028 172.463 161.88C172.832 162.732 173.355 163.383 174.031 163.832C174.707 164.275 175.505 164.496 176.426 164.496C177.261 164.496 177.974 164.349 178.565 164.053C179.162 163.752 179.616 163.329 179.929 162.783C180.247 162.238 180.406 161.593 180.406 160.849L181.156 160.959H176.656V158.181H183.96V160.38C183.96 161.914 183.636 163.232 182.988 164.334C182.341 165.431 181.449 166.278 180.312 166.874C179.176 167.465 177.875 167.761 176.409 167.761C174.772 167.761 173.335 167.4 172.096 166.678C170.858 165.951 169.892 164.92 169.199 163.584C168.511 162.244 168.167 160.653 168.167 158.812C168.167 157.397 168.372 156.136 168.781 155.028C169.196 153.914 169.775 152.971 170.52 152.198C171.264 151.425 172.13 150.837 173.119 150.434C174.108 150.03 175.179 149.829 176.332 149.829C177.321 149.829 178.241 149.974 179.093 150.263C179.946 150.548 180.701 150.951 181.36 151.474C182.025 151.996 182.568 152.619 182.988 153.34C183.409 154.056 183.679 154.846 183.798 155.709H180.048ZM186.732 167.522V150.067H198.493V153.11H190.422V157.269H197.888V160.312H190.422V164.479H198.527V167.522H186.732Z" fill="#044210"/>
<rect x="39.5" y="144.5" width="29" height="29" rx="2.5" stroke="#044210" stroke-opacity="0.95" stroke-width="5"/>
<rect x="42" y="147" width="24" height="24" fill="#114B1C"/>
<path d="M65.0642 165.537C66.3119 166.784 66.3119 168.8 65.0642 170.043C64.4404 170.666 63.633 171 62.789 171C61.9817 171 61.1743 170.707 60.5505 170.043L54.0183 163.557L47.4862 170.043C46.8624 170.666 46.055 171 45.211 171C44.4037 171 43.5596 170.666 42.9358 170.043C41.6881 168.8 41.6881 166.784 42.9358 165.5L49.4679 159.011L42.9358 152.481C41.6881 151.238 41.6881 149.184 42.9358 147.938C44.1835 146.687 46.2018 146.687 47.4862 147.938L54.0183 154.46L60.5138 147.938C61.7982 146.687 63.8165 146.687 65.0642 147.938C66.3119 149.184 66.3119 151.238 65.0642 152.481L58.5321 159.011L65.0642 165.537Z" fill="white"/>
<path d="M108.064 206.522H101.876V189.067H108.115C109.871 189.067 111.382 189.417 112.649 190.116C113.916 190.809 114.891 191.806 115.572 193.107C116.26 194.408 116.604 195.965 116.604 197.778C116.604 199.596 116.26 201.158 115.572 202.465C114.891 203.772 113.911 204.775 112.632 205.474C111.359 206.173 109.837 206.522 108.064 206.522ZM105.567 203.36H107.911C109.001 203.36 109.919 203.167 110.663 202.78C111.413 202.388 111.976 201.783 112.351 200.965C112.732 200.141 112.922 199.079 112.922 197.778C112.922 196.488 112.732 195.434 112.351 194.616C111.976 193.798 111.416 193.195 110.672 192.809C109.928 192.423 109.01 192.229 107.919 192.229H105.567V203.36ZM123.028 189.067V206.522H119.337V189.067H123.028ZM140.663 189.067V206.522H137.476L129.882 195.536H129.754V206.522H126.064V189.067H129.303L136.837 200.045H136.99V189.067H140.663ZM147.403 189.067V206.522H143.712V189.067H147.403ZM165.038 189.067V206.522H161.851L154.257 195.536H154.129V206.522H150.439V189.067H153.678L161.212 200.045H161.365V189.067H165.038ZM179.661 194.709C179.542 194.295 179.374 193.928 179.158 193.61C178.942 193.286 178.678 193.013 178.366 192.792C178.059 192.565 177.707 192.391 177.309 192.272C176.917 192.153 176.482 192.093 176.005 192.093C175.113 192.093 174.329 192.315 173.653 192.758C172.982 193.201 172.46 193.846 172.085 194.692C171.71 195.533 171.522 196.562 171.522 197.778C171.522 198.994 171.707 200.028 172.076 200.88C172.445 201.732 172.968 202.383 173.644 202.832C174.32 203.275 175.119 203.496 176.039 203.496C176.874 203.496 177.587 203.349 178.178 203.053C178.775 202.752 179.229 202.329 179.542 201.783C179.86 201.238 180.019 200.593 180.019 199.849L180.769 199.959H176.269V197.181H183.573V199.38C183.573 200.914 183.249 202.232 182.602 203.334C181.954 204.431 181.062 205.278 179.925 205.874C178.789 206.465 177.488 206.761 176.022 206.761C174.386 206.761 172.948 206.4 171.71 205.678C170.471 204.951 169.505 203.92 168.812 202.584C168.124 201.244 167.781 199.653 167.781 197.812C167.781 196.397 167.985 195.136 168.394 194.028C168.809 192.914 169.388 191.971 170.133 191.198C170.877 190.425 171.744 189.837 172.732 189.434C173.721 189.03 174.792 188.829 175.945 188.829C176.934 188.829 177.854 188.974 178.707 189.263C179.559 189.548 180.315 189.951 180.974 190.474C181.638 190.996 182.181 191.619 182.602 192.34C183.022 193.056 183.292 193.846 183.411 194.709H179.661ZM191.9 206.522V189.067H198.786C200.104 189.067 201.229 189.303 202.161 189.775C203.099 190.241 203.812 190.903 204.3 191.761C204.795 192.613 205.042 193.616 205.042 194.769C205.042 195.928 204.792 196.925 204.292 197.761C203.792 198.59 203.067 199.227 202.119 199.67C201.175 200.113 200.033 200.334 198.692 200.334H194.082V197.369H198.096C198.8 197.369 199.386 197.272 199.852 197.079C200.317 196.886 200.664 196.596 200.891 196.209C201.124 195.823 201.241 195.343 201.241 194.769C201.241 194.19 201.124 193.701 200.891 193.303C200.664 192.905 200.315 192.604 199.843 192.4C199.377 192.19 198.789 192.084 198.079 192.084H195.59V206.522H191.9ZM201.326 198.579L205.664 206.522H201.59L197.346 198.579H201.326ZM223.69 197.795C223.69 199.698 223.329 201.317 222.607 202.653C221.891 203.988 220.914 205.008 219.675 205.712C218.442 206.411 217.056 206.761 215.516 206.761C213.965 206.761 212.573 206.408 211.34 205.704C210.107 204.999 209.133 203.979 208.417 202.644C207.701 201.309 207.343 199.692 207.343 197.795C207.343 195.891 207.701 194.272 208.417 192.937C209.133 191.602 210.107 190.584 211.34 189.886C212.573 189.181 213.965 188.829 215.516 188.829C217.056 188.829 218.442 189.181 219.675 189.886C220.914 190.584 221.891 191.602 222.607 192.937C223.329 194.272 223.69 195.891 223.69 197.795ZM219.948 197.795C219.948 196.562 219.763 195.522 219.394 194.675C219.031 193.829 218.516 193.187 217.852 192.749C217.187 192.312 216.408 192.093 215.516 192.093C214.624 192.093 213.846 192.312 213.181 192.749C212.516 193.187 211.999 193.829 211.63 194.675C211.266 195.522 211.085 196.562 211.085 197.795C211.085 199.028 211.266 200.067 211.63 200.914C211.999 201.761 212.516 202.403 213.181 202.84C213.846 203.278 214.624 203.496 215.516 203.496C216.408 203.496 217.187 203.278 217.852 202.84C218.516 202.403 219.031 201.761 219.394 200.914C219.763 200.067 219.948 199.028 219.948 197.795ZM242.463 197.795C242.463 199.698 242.102 201.317 241.381 202.653C240.665 203.988 239.688 205.008 238.449 205.712C237.216 206.411 235.83 206.761 234.29 206.761C232.739 206.761 231.347 206.408 230.114 205.704C228.881 204.999 227.906 203.979 227.19 202.644C226.474 201.309 226.116 199.692 226.116 197.795C226.116 195.891 226.474 194.272 227.19 192.937C227.906 191.602 228.881 190.584 230.114 189.886C231.347 189.181 232.739 188.829 234.29 188.829C235.83 188.829 237.216 189.181 238.449 189.886C239.688 190.584 240.665 191.602 241.381 192.937C242.102 194.272 242.463 195.891 242.463 197.795ZM238.722 197.795C238.722 196.562 238.537 195.522 238.168 194.675C237.804 193.829 237.29 193.187 236.625 192.749C235.96 192.312 235.182 192.093 234.29 192.093C233.398 192.093 232.619 192.312 231.955 192.749C231.29 193.187 230.773 193.829 230.403 194.675C230.04 195.522 229.858 196.562 229.858 197.795C229.858 199.028 230.04 200.067 230.403 200.914C230.773 201.761 231.29 202.403 231.955 202.84C232.619 203.278 233.398 203.496 234.29 203.496C235.182 203.496 235.96 203.278 236.625 202.84C237.29 202.403 237.804 201.761 238.168 200.914C238.537 200.067 238.722 199.028 238.722 197.795ZM245.197 189.067H249.748L254.555 200.795H254.759L259.566 189.067H264.117V206.522H260.538V195.161H260.393L255.876 206.437H253.438L248.921 195.119H248.776V206.522H245.197V189.067Z" fill="#044210"/>
<rect x="39.5" y="183.5" width="29" height="29" rx="2.5" stroke="#044210" stroke-opacity="0.95" stroke-width="5"/>
<rect x="42" y="186" width="24" height="24" fill="#114B1C"/>
<path d="M65.0642 204.537C66.3119 205.784 66.3119 207.8 65.0642 209.043C64.4404 209.666 63.633 210 62.789 210C61.9817 210 61.1743 209.707 60.5505 209.043L54.0183 202.557L47.4862 209.043C46.8624 209.666 46.055 210 45.211 210C44.4037 210 43.5596 209.666 42.9358 209.043C41.6881 207.8 41.6881 205.784 42.9358 204.5L49.4679 198.011L42.9358 191.481C41.6881 190.238 41.6881 188.184 42.9358 186.938C44.1835 185.687 46.2018 185.687 47.4862 186.938L54.0183 193.46L60.5138 186.938C61.7982 185.687 63.8165 185.687 65.0642 186.938C66.3119 188.184 66.3119 190.238 65.0642 191.481L58.5321 198.011L65.0642 204.537Z" fill="white"/>
<path d="M101.615 245.522V228.067H105.305V235.763H105.535L111.816 228.067H116.24L109.762 235.883L116.316 245.522H111.902L107.12 238.346L105.305 240.562V245.522H101.615ZM121.852 228.067V245.522H118.162V228.067H121.852ZM124.223 231.11V228.067H138.559V231.11H133.215V245.522H129.567V231.11H124.223ZM155.523 234.178H151.79C151.722 233.695 151.583 233.266 151.373 232.891C151.162 232.511 150.892 232.187 150.563 231.92C150.233 231.653 149.853 231.448 149.421 231.306C148.995 231.164 148.532 231.093 148.032 231.093C147.128 231.093 146.341 231.317 145.671 231.766C145 232.209 144.48 232.857 144.111 233.709C143.742 234.556 143.557 235.584 143.557 236.795C143.557 238.039 143.742 239.084 144.111 239.931C144.486 240.778 145.009 241.417 145.679 241.849C146.35 242.28 147.125 242.496 148.006 242.496C148.5 242.496 148.958 242.431 149.378 242.3C149.804 242.17 150.182 241.979 150.512 241.729C150.841 241.474 151.114 241.164 151.33 240.8C151.551 240.437 151.705 240.022 151.79 239.556L155.523 239.573C155.426 240.374 155.185 241.147 154.799 241.891C154.418 242.63 153.904 243.292 153.256 243.877C152.614 244.457 151.847 244.917 150.955 245.258C150.069 245.593 149.066 245.761 147.946 245.761C146.39 245.761 144.998 245.408 143.77 244.704C142.549 243.999 141.583 242.979 140.873 241.644C140.168 240.309 139.816 238.692 139.816 236.795C139.816 234.891 140.174 233.272 140.89 231.937C141.605 230.602 142.577 229.584 143.804 228.886C145.032 228.181 146.412 227.829 147.946 227.829C148.958 227.829 149.895 227.971 150.759 228.255C151.628 228.539 152.398 228.954 153.069 229.499C153.739 230.039 154.284 230.701 154.705 231.485C155.131 232.269 155.404 233.167 155.523 234.178ZM158.169 245.522V228.067H161.86V235.269H169.351V228.067H173.033V245.522H169.351V238.312H161.86V245.522H158.169ZM176.076 245.522V228.067H187.837V231.11H179.766V235.269H187.232V238.312H179.766V242.479H187.871V245.522H176.076ZM205.37 228.067V245.522H202.183L194.589 234.536H194.461V245.522H190.771V228.067H194.01L201.544 239.045H201.697V228.067H205.37Z" fill="#044210"/>
<rect x="39.5" y="222.5" width="29" height="29" rx="2.5" stroke="#044210" stroke-opacity="0.95" stroke-width="5"/>
<rect x="42" y="225" width="24" height="24" fill="#114B1C"/>
<path d="M65.0642 243.537C66.3119 244.784 66.3119 246.8 65.0642 248.043C64.4404 248.666 63.633 249 62.789 249C61.9817 249 61.1743 248.707 60.5505 248.043L54.0183 241.557L47.4862 248.043C46.8624 248.666 46.055 249 45.211 249C44.4037 249 43.5596 248.666 42.9358 248.043C41.6881 246.8 41.6881 244.784 42.9358 243.5L49.4679 237.011L42.9358 230.481C41.6881 229.238 41.6881 227.184 42.9358 225.938C44.1835 224.687 46.2018 224.687 47.4862 225.938L54.0183 232.46L60.5138 225.938C61.7982 224.687 63.8165 224.687 65.0642 225.938C66.3119 227.184 66.3119 229.238 65.0642 230.481L58.5321 237.011L65.0642 243.537Z" fill="white"/>
<path d="M101.861 284.522V267.067H108.849C110.134 267.067 111.205 267.258 112.062 267.638C112.92 268.019 113.565 268.548 113.997 269.224C114.429 269.894 114.645 270.667 114.645 271.542C114.645 272.224 114.509 272.823 114.236 273.34C113.963 273.852 113.588 274.272 113.111 274.602C112.639 274.925 112.099 275.155 111.491 275.292V275.462C112.156 275.491 112.778 275.678 113.358 276.025C113.943 276.371 114.418 276.857 114.781 277.482C115.145 278.102 115.327 278.84 115.327 279.698C115.327 280.624 115.097 281.451 114.636 282.178C114.182 282.9 113.509 283.471 112.616 283.891C111.724 284.312 110.625 284.522 109.318 284.522H101.861ZM105.551 281.505H108.56C109.588 281.505 110.338 281.309 110.81 280.917C111.281 280.519 111.517 279.991 111.517 279.332C111.517 278.849 111.401 278.423 111.168 278.053C110.935 277.684 110.602 277.394 110.17 277.184C109.744 276.974 109.236 276.869 108.645 276.869H105.551V281.505ZM105.551 274.371H108.287C108.793 274.371 109.241 274.283 109.634 274.107C110.031 273.925 110.344 273.67 110.571 273.34C110.804 273.011 110.92 272.616 110.92 272.155C110.92 271.525 110.696 271.016 110.247 270.63C109.804 270.244 109.173 270.05 108.355 270.05H105.551V274.371ZM120.737 284.522H116.782L122.808 267.067H127.563L133.58 284.522H129.626L125.254 271.056H125.117L120.737 284.522ZM120.489 277.661H129.83V280.542H120.489V277.661ZM135.681 284.522V267.067H139.371V281.479H146.854V284.522H135.681ZM149.298 284.522V267.067H152.989V281.479H160.472V284.522H149.298ZM162.915 284.522V267.067H169.802C171.12 267.067 172.245 267.303 173.177 267.775C174.114 268.241 174.827 268.903 175.316 269.761C175.81 270.613 176.058 271.616 176.058 272.769C176.058 273.928 175.808 274.925 175.308 275.761C174.808 276.59 174.083 277.227 173.134 277.67C172.191 278.113 171.049 278.334 169.708 278.334H165.097V275.369H169.112C169.816 275.369 170.401 275.272 170.867 275.079C171.333 274.886 171.68 274.596 171.907 274.209C172.14 273.823 172.256 273.343 172.256 272.769C172.256 272.19 172.14 271.701 171.907 271.303C171.68 270.905 171.33 270.604 170.859 270.4C170.393 270.19 169.805 270.084 169.094 270.084H166.606V284.522H162.915ZM172.342 276.579L176.68 284.522H172.606L168.362 276.579H172.342ZM194.705 275.795C194.705 277.698 194.344 279.317 193.623 280.653C192.907 281.988 191.93 283.008 190.691 283.712C189.458 284.411 188.072 284.761 186.532 284.761C184.981 284.761 183.589 284.408 182.356 283.704C181.123 282.999 180.148 281.979 179.433 280.644C178.717 279.309 178.359 277.692 178.359 275.795C178.359 273.891 178.717 272.272 179.433 270.937C180.148 269.602 181.123 268.584 182.356 267.886C183.589 267.181 184.981 266.829 186.532 266.829C188.072 266.829 189.458 267.181 190.691 267.886C191.93 268.584 192.907 269.602 193.623 270.937C194.344 272.272 194.705 273.891 194.705 275.795ZM190.964 275.795C190.964 274.562 190.779 273.522 190.41 272.675C190.046 271.829 189.532 271.187 188.867 270.749C188.202 270.312 187.424 270.093 186.532 270.093C185.64 270.093 184.862 270.312 184.197 270.749C183.532 271.187 183.015 271.829 182.646 272.675C182.282 273.522 182.1 274.562 182.1 275.795C182.1 277.028 182.282 278.067 182.646 278.914C183.015 279.761 183.532 280.403 184.197 280.84C184.862 281.278 185.64 281.496 186.532 281.496C187.424 281.496 188.202 281.278 188.867 280.84C189.532 280.403 190.046 279.761 190.41 278.914C190.779 278.067 190.964 277.028 190.964 275.795ZM213.479 275.795C213.479 277.698 213.118 279.317 212.396 280.653C211.68 281.988 210.703 283.008 209.464 283.712C208.232 284.411 206.845 284.761 205.305 284.761C203.754 284.761 202.362 284.408 201.129 283.704C199.896 282.999 198.922 281.979 198.206 280.644C197.49 279.309 197.132 277.692 197.132 275.795C197.132 273.891 197.49 272.272 198.206 270.937C198.922 269.602 199.896 268.584 201.129 267.886C202.362 267.181 203.754 266.829 205.305 266.829C206.845 266.829 208.232 267.181 209.464 267.886C210.703 268.584 211.68 269.602 212.396 270.937C213.118 272.272 213.479 273.891 213.479 275.795ZM209.737 275.795C209.737 274.562 209.553 273.522 209.183 272.675C208.82 271.829 208.305 271.187 207.641 270.749C206.976 270.312 206.197 270.093 205.305 270.093C204.413 270.093 203.635 270.312 202.97 270.749C202.305 271.187 201.788 271.829 201.419 272.675C201.055 273.522 200.874 274.562 200.874 275.795C200.874 277.028 201.055 278.067 201.419 278.914C201.788 279.761 202.305 280.403 202.97 280.84C203.635 281.278 204.413 281.496 205.305 281.496C206.197 281.496 206.976 281.278 207.641 280.84C208.305 280.403 208.82 279.761 209.183 278.914C209.553 278.067 209.737 277.028 209.737 275.795ZM216.212 267.067H220.763L225.57 278.795H225.775L230.582 267.067H235.133V284.522H231.553V273.161H231.408L226.891 284.437H224.454L219.937 273.119H219.792V284.522H216.212V267.067Z" fill="#044210"/>
<rect x="39.5" y="261.5" width="29" height="29" rx="2.5" stroke="#044210" stroke-opacity="0.95" stroke-width="5"/>
<rect x="42" y="264" width="24" height="24" fill="#114B1C"/>
<path d="M65.0642 282.537C66.3119 283.784 66.3119 285.8 65.0642 287.043C64.4404 287.666 63.633 288 62.789 288C61.9817 288 61.1743 287.707 60.5505 287.043L54.0183 280.557L47.4862 287.043C46.8624 287.666 46.055 288 45.211 288C44.4037 288 43.5596 287.666 42.9358 287.043C41.6881 285.8 41.6881 283.784 42.9358 282.5L49.4679 276.011L42.9358 269.481C41.6881 268.238 41.6881 266.184 42.9358 264.938C44.1835 263.687 46.2018 263.687 47.4862 264.938L54.0183 271.46L60.5138 264.938C61.7982 263.687 63.8165 263.687 65.0642 264.938C66.3119 266.184 66.3119 268.238 65.0642 269.481L58.5321 276.011L65.0642 282.537Z" fill="white"/>
<path d="M117.394 312.178H113.661C113.593 311.695 113.454 311.266 113.244 310.891C113.033 310.511 112.763 310.187 112.434 309.92C112.104 309.653 111.724 309.448 111.292 309.306C110.866 309.164 110.403 309.093 109.903 309.093C108.999 309.093 108.212 309.317 107.542 309.766C106.871 310.209 106.352 310.857 105.982 311.709C105.613 312.556 105.428 313.584 105.428 314.795C105.428 316.039 105.613 317.084 105.982 317.931C106.357 318.778 106.88 319.417 107.55 319.849C108.221 320.28 108.996 320.496 109.877 320.496C110.371 320.496 110.829 320.431 111.249 320.3C111.675 320.17 112.053 319.979 112.383 319.729C112.712 319.474 112.985 319.164 113.201 318.8C113.423 318.437 113.576 318.022 113.661 317.556L117.394 317.573C117.298 318.374 117.056 319.147 116.67 319.891C116.289 320.63 115.775 321.292 115.127 321.877C114.485 322.457 113.718 322.917 112.826 323.258C111.94 323.593 110.937 323.761 109.817 323.761C108.261 323.761 106.869 323.408 105.641 322.704C104.42 321.999 103.454 320.979 102.744 319.644C102.039 318.309 101.687 316.692 101.687 314.795C101.687 312.891 102.045 311.272 102.761 309.937C103.477 308.602 104.448 307.584 105.675 306.886C106.903 306.181 108.283 305.829 109.817 305.829C110.829 305.829 111.766 305.971 112.63 306.255C113.499 306.539 114.269 306.954 114.94 307.499C115.61 308.039 116.156 308.701 116.576 309.485C117.002 310.269 117.275 311.167 117.394 312.178ZM136.08 314.795C136.08 316.698 135.719 318.317 134.998 319.653C134.282 320.988 133.305 322.008 132.066 322.712C130.833 323.411 129.447 323.761 127.907 323.761C126.356 323.761 124.964 323.408 123.731 322.704C122.498 321.999 121.523 320.979 120.808 319.644C120.092 318.309 119.734 316.692 119.734 314.795C119.734 312.891 120.092 311.272 120.808 309.937C121.523 308.602 122.498 307.584 123.731 306.886C124.964 306.181 126.356 305.829 127.907 305.829C129.447 305.829 130.833 306.181 132.066 306.886C133.305 307.584 134.282 308.602 134.998 309.937C135.719 311.272 136.08 312.891 136.08 314.795ZM132.339 314.795C132.339 313.562 132.154 312.522 131.785 311.675C131.421 310.829 130.907 310.187 130.242 309.749C129.577 309.312 128.799 309.093 127.907 309.093C127.015 309.093 126.237 309.312 125.572 309.749C124.907 310.187 124.39 310.829 124.021 311.675C123.657 312.522 123.475 313.562 123.475 314.795C123.475 316.028 123.657 317.067 124.021 317.914C124.39 318.761 124.907 319.403 125.572 319.84C126.237 320.278 127.015 320.496 127.907 320.496C128.799 320.496 129.577 320.278 130.242 319.84C130.907 319.403 131.421 318.761 131.785 317.914C132.154 317.067 132.339 316.028 132.339 314.795ZM153.413 306.067V323.522H150.226L142.632 312.536H142.504V323.522H138.814V306.067H142.053L149.587 317.045H149.74V306.067H153.413ZM165.931 311.087C165.863 310.4 165.57 309.866 165.053 309.485C164.536 309.104 163.835 308.914 162.948 308.914C162.346 308.914 161.837 308.999 161.423 309.17C161.008 309.334 160.69 309.565 160.468 309.86C160.252 310.155 160.144 310.491 160.144 310.866C160.133 311.178 160.198 311.451 160.34 311.684C160.488 311.917 160.69 312.119 160.945 312.289C161.201 312.454 161.496 312.599 161.832 312.724C162.167 312.843 162.525 312.945 162.906 313.03L164.474 313.405C165.235 313.576 165.934 313.803 166.57 314.087C167.207 314.371 167.758 314.721 168.224 315.136C168.69 315.55 169.05 316.039 169.306 316.602C169.567 317.164 169.701 317.809 169.707 318.536C169.701 319.604 169.428 320.53 168.888 321.315C168.354 322.093 167.582 322.698 166.57 323.13C165.565 323.556 164.352 323.769 162.931 323.769C161.522 323.769 160.295 323.553 159.249 323.121C158.21 322.69 157.397 322.05 156.812 321.204C156.232 320.352 155.928 319.298 155.9 318.042H159.471C159.511 318.627 159.678 319.116 159.974 319.508C160.275 319.894 160.675 320.187 161.175 320.386C161.681 320.579 162.252 320.675 162.888 320.675C163.513 320.675 164.056 320.584 164.516 320.403C164.982 320.221 165.343 319.968 165.599 319.644C165.854 319.32 165.982 318.948 165.982 318.528C165.982 318.136 165.866 317.806 165.633 317.539C165.406 317.272 165.07 317.045 164.627 316.857C164.19 316.67 163.653 316.499 163.016 316.346L161.116 315.869C159.644 315.511 158.482 314.951 157.63 314.19C156.778 313.428 156.354 312.403 156.36 311.113C156.354 310.056 156.636 309.133 157.204 308.343C157.778 307.553 158.565 306.937 159.565 306.494C160.565 306.05 161.701 305.829 162.974 305.829C164.269 305.829 165.4 306.05 166.366 306.494C167.337 306.937 168.093 307.553 168.633 308.343C169.173 309.133 169.451 310.048 169.468 311.087H165.931ZM172.189 323.522V306.067H183.95V309.11H175.879V313.269H183.345V316.312H175.879V320.479H183.984V323.522H172.189ZM186.884 323.522V306.067H193.771C195.089 306.067 196.214 306.303 197.146 306.775C198.083 307.241 198.796 307.903 199.285 308.761C199.779 309.613 200.026 310.616 200.026 311.769C200.026 312.928 199.776 313.925 199.276 314.761C198.776 315.59 198.052 316.227 197.103 316.67C196.16 317.113 195.018 317.334 193.677 317.334H189.066V314.369H193.08C193.785 314.369 194.37 314.272 194.836 314.079C195.302 313.886 195.648 313.596 195.876 313.209C196.109 312.823 196.225 312.343 196.225 311.769C196.225 311.19 196.109 310.701 195.876 310.303C195.648 309.905 195.299 309.604 194.827 309.4C194.362 309.19 193.773 309.084 193.063 309.084H190.575V323.522H186.884ZM196.31 315.579L200.648 323.522H196.575L192.33 315.579H196.31ZM205.319 306.067L209.538 319.329H209.7L213.927 306.067H218.018L212.001 323.522H207.245L201.219 306.067H205.319ZM220.807 323.522H216.852L222.878 306.067H227.634L233.651 323.522H229.696L225.324 310.056H225.188L220.807 323.522ZM220.56 316.661H229.901V319.542H220.56V316.661ZM232.954 309.11V306.067H247.289V309.11H241.945V323.522H238.298V309.11H232.954ZM264.893 314.795C264.893 316.698 264.532 318.317 263.81 319.653C263.094 320.988 262.117 322.008 260.879 322.712C259.646 323.411 258.259 323.761 256.719 323.761C255.168 323.761 253.776 323.408 252.543 322.704C251.31 321.999 250.336 320.979 249.62 319.644C248.904 318.309 248.546 316.692 248.546 314.795C248.546 312.891 248.904 311.272 249.62 309.937C250.336 308.602 251.31 307.584 252.543 306.886C253.776 306.181 255.168 305.829 256.719 305.829C258.259 305.829 259.646 306.181 260.879 306.886C262.117 307.584 263.094 308.602 263.81 309.937C264.532 311.272 264.893 312.891 264.893 314.795ZM261.151 314.795C261.151 313.562 260.967 312.522 260.597 311.675C260.234 310.829 259.719 310.187 259.055 309.749C258.39 309.312 257.612 309.093 256.719 309.093C255.827 309.093 255.049 309.312 254.384 309.749C253.719 310.187 253.202 310.829 252.833 311.675C252.469 312.522 252.288 313.562 252.288 314.795C252.288 316.028 252.469 317.067 252.833 317.914C253.202 318.761 253.719 319.403 254.384 319.84C255.049 320.278 255.827 320.496 256.719 320.496C257.612 320.496 258.39 320.278 259.055 319.84C259.719 319.403 260.234 318.761 260.597 317.914C260.967 317.067 261.151 316.028 261.151 314.795ZM267.626 323.522V306.067H274.513C275.831 306.067 276.956 306.303 277.888 306.775C278.825 307.241 279.538 307.903 280.027 308.761C280.521 309.613 280.768 310.616 280.768 311.769C280.768 312.928 280.518 313.925 280.018 314.761C279.518 315.59 278.794 316.227 277.845 316.67C276.902 317.113 275.76 317.334 274.419 317.334H269.808V314.369H273.822C274.527 314.369 275.112 314.272 275.578 314.079C276.044 313.886 276.391 313.596 276.618 313.209C276.851 312.823 276.967 312.343 276.967 311.769C276.967 311.19 276.851 310.701 276.618 310.303C276.391 309.905 276.041 309.604 275.57 309.4C275.104 309.19 274.516 309.084 273.805 309.084H271.317V323.522H267.626ZM277.053 315.579L281.391 323.522H277.317L273.072 315.579H277.053ZM281.627 306.067H285.761L289.741 313.584H289.911L293.891 306.067H298.025L291.658 317.352V323.522H287.994V317.352L281.627 306.067Z" fill="#044210"/>
<rect x="39.5" y="300.5" width="29" height="29" rx="2.5" stroke="#044210" stroke-opacity="0.95" stroke-width="5"/>
<rect x="42" y="303" width="24" height="24" fill="#114B1C"/>
<path d="M65.0642 321.537C66.3119 322.784 66.3119 324.8 65.0642 326.043C64.4404 326.666 63.633 327 62.789 327C61.9817 327 61.1743 326.707 60.5505 326.043L54.0183 319.557L47.4862 326.043C46.8624 326.666 46.055 327 45.211 327C44.4037 327 43.5596 326.666 42.9358 326.043C41.6881 324.8 41.6881 322.784 42.9358 321.5L49.4679 315.011L42.9358 308.481C41.6881 307.238 41.6881 305.184 42.9358 303.938C44.1835 302.687 46.2018 302.687 47.4862 303.938L54.0183 310.46L60.5138 303.938C61.7982 302.687 63.8165 302.687 65.0642 303.938C66.3119 305.184 66.3119 307.238 65.0642 308.481L58.5321 315.011L65.0642 321.537Z" fill="white"/>
<path d="M101.751 362.522V345.067H108.74C110.024 345.067 111.095 345.258 111.953 345.638C112.811 346.019 113.456 346.548 113.888 347.224C114.32 347.894 114.536 348.667 114.536 349.542C114.536 350.224 114.399 350.823 114.126 351.34C113.854 351.852 113.479 352.272 113.001 352.602C112.53 352.925 111.99 353.155 111.382 353.292V353.462C112.047 353.491 112.669 353.678 113.249 354.025C113.834 354.371 114.308 354.857 114.672 355.482C115.036 356.102 115.217 356.84 115.217 357.698C115.217 358.624 114.987 359.451 114.527 360.178C114.072 360.9 113.399 361.471 112.507 361.891C111.615 362.312 110.516 362.522 109.209 362.522H101.751ZM105.442 359.505H108.45C109.479 359.505 110.229 359.309 110.7 358.917C111.172 358.519 111.408 357.991 111.408 357.332C111.408 356.849 111.291 356.423 111.058 356.053C110.825 355.684 110.493 355.394 110.061 355.184C109.635 354.974 109.126 354.869 108.536 354.869H105.442V359.505ZM105.442 352.371H108.178C108.683 352.371 109.132 352.283 109.524 352.107C109.922 351.925 110.234 351.67 110.462 351.34C110.695 351.011 110.811 350.616 110.811 350.155C110.811 349.525 110.587 349.016 110.138 348.63C109.695 348.244 109.064 348.05 108.246 348.05H105.442V352.371ZM121.309 345.067V362.522H117.619V345.067H121.309ZM124.345 362.522V345.067H128.036V359.479H135.518V362.522H124.345ZM137.962 362.522V345.067H141.653V359.479H149.136V362.522H137.962ZM155.27 345.067V362.522H151.58V345.067H155.27ZM161.315 362.522H157.36L163.386 345.067H168.141L174.158 362.522H170.204L165.832 349.056H165.695L161.315 362.522ZM161.067 355.661H170.408V358.542H161.067V355.661ZM176.259 362.522V345.067H183.146C184.464 345.067 185.589 345.303 186.521 345.775C187.458 346.241 188.171 346.903 188.66 347.761C189.154 348.613 189.401 349.616 189.401 350.769C189.401 351.928 189.151 352.925 188.651 353.761C188.151 354.59 187.427 355.227 186.478 355.67C185.535 356.113 184.393 356.334 183.052 356.334H178.441V353.369H182.455C183.16 353.369 183.745 353.272 184.211 353.079C184.677 352.886 185.023 352.596 185.251 352.209C185.484 351.823 185.6 351.343 185.6 350.769C185.6 350.19 185.484 349.701 185.251 349.303C185.023 348.905 184.674 348.604 184.202 348.4C183.737 348.19 183.148 348.084 182.438 348.084H179.95V362.522H176.259ZM185.685 354.579L190.023 362.522H185.95L181.705 354.579H185.685ZM198.197 362.522H192.009V345.067H198.248C200.004 345.067 201.515 345.417 202.782 346.116C204.049 346.809 205.023 347.806 205.705 349.107C206.393 350.408 206.737 351.965 206.737 353.778C206.737 355.596 206.393 357.158 205.705 358.465C205.023 359.772 204.043 360.775 202.765 361.474C201.492 362.173 199.969 362.522 198.197 362.522ZM195.7 359.36H198.043C199.134 359.36 200.052 359.167 200.796 358.78C201.546 358.388 202.109 357.783 202.484 356.965C202.864 356.141 203.055 355.079 203.055 353.778C203.055 352.488 202.864 351.434 202.484 350.616C202.109 349.798 201.549 349.195 200.805 348.809C200.06 348.423 199.143 348.229 198.052 348.229H195.7V359.36ZM215.025 362.522V345.067H221.911C223.229 345.067 224.354 345.303 225.286 345.775C226.224 346.241 226.937 346.903 227.425 347.761C227.92 348.613 228.167 349.616 228.167 350.769C228.167 351.928 227.917 352.925 227.417 353.761C226.917 354.59 226.192 355.227 225.244 355.67C224.3 356.113 223.158 356.334 221.817 356.334H217.207V353.369H221.221C221.925 353.369 222.511 353.272 222.977 353.079C223.442 352.886 223.789 352.596 224.016 352.209C224.249 351.823 224.366 351.343 224.366 350.769C224.366 350.19 224.249 349.701 224.016 349.303C223.789 348.905 223.44 348.604 222.968 348.4C222.502 348.19 221.914 348.084 221.204 348.084H218.715V362.522H215.025ZM224.451 354.579L228.789 362.522H224.715L220.471 354.579H224.451ZM246.815 353.795C246.815 355.698 246.454 357.317 245.732 358.653C245.016 359.988 244.039 361.008 242.8 361.712C241.567 362.411 240.181 362.761 238.641 362.761C237.09 362.761 235.698 362.408 234.465 361.704C233.232 360.999 232.258 359.979 231.542 358.644C230.826 357.309 230.468 355.692 230.468 353.795C230.468 351.891 230.826 350.272 231.542 348.937C232.258 347.602 233.232 346.584 234.465 345.886C235.698 345.181 237.09 344.829 238.641 344.829C240.181 344.829 241.567 345.181 242.8 345.886C244.039 346.584 245.016 347.602 245.732 348.937C246.454 350.272 246.815 351.891 246.815 353.795ZM243.073 353.795C243.073 352.562 242.888 351.522 242.519 350.675C242.156 349.829 241.641 349.187 240.977 348.749C240.312 348.312 239.533 348.093 238.641 348.093C237.749 348.093 236.971 348.312 236.306 348.749C235.641 349.187 235.124 349.829 234.755 350.675C234.391 351.522 234.21 352.562 234.21 353.795C234.21 355.028 234.391 356.067 234.755 356.914C235.124 357.761 235.641 358.403 236.306 358.84C236.971 359.278 237.749 359.496 238.641 359.496C239.533 359.496 240.312 359.278 240.977 358.84C241.641 358.403 242.156 357.761 242.519 356.914C242.888 356.067 243.073 355.028 243.073 353.795ZM265.588 353.795C265.588 355.698 265.227 357.317 264.506 358.653C263.79 359.988 262.813 361.008 261.574 361.712C260.341 362.411 258.955 362.761 257.415 362.761C255.864 362.761 254.472 362.408 253.239 361.704C252.006 360.999 251.031 359.979 250.315 358.644C249.599 357.309 249.241 355.692 249.241 353.795C249.241 351.891 249.599 350.272 250.315 348.937C251.031 347.602 252.006 346.584 253.239 345.886C254.472 345.181 255.864 344.829 257.415 344.829C258.955 344.829 260.341 345.181 261.574 345.886C262.813 346.584 263.79 347.602 264.506 348.937C265.227 350.272 265.588 351.891 265.588 353.795ZM261.847 353.795C261.847 352.562 261.662 351.522 261.293 350.675C260.929 349.829 260.415 349.187 259.75 348.749C259.085 348.312 258.307 348.093 257.415 348.093C256.523 348.093 255.744 348.312 255.08 348.749C254.415 349.187 253.898 349.829 253.528 350.675C253.165 351.522 252.983 352.562 252.983 353.795C252.983 355.028 253.165 356.067 253.528 356.914C253.898 357.761 254.415 358.403 255.08 358.84C255.744 359.278 256.523 359.496 257.415 359.496C258.307 359.496 259.085 359.278 259.75 358.84C260.415 358.403 260.929 357.761 261.293 356.914C261.662 356.067 261.847 355.028 261.847 353.795ZM268.322 345.067H272.873L277.68 356.795H277.884L282.691 345.067H287.242V362.522H283.663V351.161H283.518L279.001 362.437H276.563L272.046 351.119H271.901V362.522H268.322V345.067Z" fill="#044210"/>
<rect x="39.5" y="339.5" width="29" height="29" rx="2.5" stroke="#044210" stroke-opacity="0.95" stroke-width="5"/>
<rect x="42" y="342" width="24" height="24" fill="#114B1C"/>
<path d="M65.0642 360.537C66.3119 361.784 66.3119 363.8 65.0642 365.043C64.4404 365.666 63.633 366 62.789 366C61.9817 366 61.1743 365.707 60.5505 365.043L54.0183 358.557L47.4862 365.043C46.8624 365.666 46.055 366 45.211 366C44.4037 366 43.5596 365.666 42.9358 365.043C41.6881 363.8 41.6881 361.784 42.9358 360.5L49.4679 354.011L42.9358 347.481C41.6881 346.238 41.6881 344.184 42.9358 342.938C44.1835 341.687 46.2018 341.687 47.4862 342.938L54.0183 349.46L60.5138 342.938C61.7982 341.687 63.8165 341.687 65.0642 342.938C66.3119 344.184 66.3119 346.238 65.0642 347.481L58.5321 354.011L65.0642 360.537Z" fill="white"/>
<path d="M101.853 401.522V384.067H105.543V398.479H113.026V401.522H101.853ZM119.161 384.067V401.522H115.47V384.067H119.161ZM122.197 401.522V384.067H129.185C130.469 384.067 131.54 384.258 132.398 384.638C133.256 385.019 133.901 385.548 134.333 386.224C134.765 386.894 134.981 387.667 134.981 388.542C134.981 389.224 134.844 389.823 134.572 390.34C134.299 390.852 133.924 391.272 133.447 391.602C132.975 391.925 132.435 392.155 131.827 392.292V392.462C132.492 392.491 133.114 392.678 133.694 393.025C134.279 393.371 134.754 393.857 135.117 394.482C135.481 395.102 135.663 395.84 135.663 396.698C135.663 397.624 135.433 398.451 134.972 399.178C134.518 399.9 133.844 400.471 132.952 400.891C132.06 401.312 130.961 401.522 129.654 401.522H122.197ZM125.887 398.505H128.896C129.924 398.505 130.674 398.309 131.146 397.917C131.617 397.519 131.853 396.991 131.853 396.332C131.853 395.849 131.737 395.423 131.504 395.053C131.271 394.684 130.938 394.394 130.506 394.184C130.08 393.974 129.572 393.869 128.981 393.869H125.887V398.505ZM125.887 391.371H128.623C129.129 391.371 129.577 391.283 129.969 391.107C130.367 390.925 130.68 390.67 130.907 390.34C131.14 390.011 131.256 389.616 131.256 389.155C131.256 388.525 131.032 388.016 130.583 387.63C130.14 387.244 129.509 387.05 128.691 387.05H125.887V391.371ZM138.064 401.522V384.067H144.95C146.268 384.067 147.393 384.303 148.325 384.775C149.263 385.241 149.976 385.903 150.464 386.761C150.959 387.613 151.206 388.616 151.206 389.769C151.206 390.928 150.956 391.925 150.456 392.761C149.956 393.59 149.232 394.227 148.283 394.67C147.339 395.113 146.197 395.334 144.857 395.334H140.246V392.369H144.26C144.964 392.369 145.55 392.272 146.016 392.079C146.482 391.886 146.828 391.596 147.055 391.209C147.288 390.823 147.405 390.343 147.405 389.769C147.405 389.19 147.288 388.701 147.055 388.303C146.828 387.905 146.479 387.604 146.007 387.4C145.541 387.19 144.953 387.084 144.243 387.084H141.754V401.522H138.064ZM147.49 393.579L151.828 401.522H147.754L143.51 393.579H147.49ZM156.822 401.522H152.868L158.893 384.067H163.649L169.666 401.522H165.712L161.339 388.056H161.203L156.822 401.522ZM156.575 394.661H165.916V397.542H156.575V394.661ZM171.767 401.522V384.067H178.653C179.972 384.067 181.097 384.303 182.028 384.775C182.966 385.241 183.679 385.903 184.168 386.761C184.662 387.613 184.909 388.616 184.909 389.769C184.909 390.928 184.659 391.925 184.159 392.761C183.659 393.59 182.935 394.227 181.986 394.67C181.043 395.113 179.901 395.334 178.56 395.334H173.949V392.369H177.963C178.668 392.369 179.253 392.272 179.719 392.079C180.185 391.886 180.531 391.596 180.759 391.209C180.991 390.823 181.108 390.343 181.108 389.769C181.108 389.19 180.991 388.701 180.759 388.303C180.531 387.905 180.182 387.604 179.71 387.4C179.244 387.19 178.656 387.084 177.946 387.084H175.457V401.522H171.767ZM181.193 393.579L185.531 401.522H181.457L177.213 393.579H181.193ZM185.768 384.067H189.901L193.881 391.584H194.052L198.032 384.067H202.165L195.799 395.352V401.522H192.134V395.352L185.768 384.067Z" fill="#044210"/>
<rect x="39.5" y="378.5" width="29" height="29" rx="2.5" stroke="#044210" stroke-opacity="0.95" stroke-width="5"/>
<rect x="42" y="381" width="24" height="24" fill="#114B1C"/>
<path d="M65.0642 399.537C66.3119 400.784 66.3119 402.8 65.0642 404.043C64.4404 404.666 63.633 405 62.789 405C61.9817 405 61.1743 404.707 60.5505 404.043L54.0183 397.557L47.4862 404.043C46.8624 404.666 46.055 405 45.211 405C44.4037 405 43.5596 404.666 42.9358 404.043C41.6881 402.8 41.6881 400.784 42.9358 399.5L49.4679 393.011L42.9358 386.481C41.6881 385.238 41.6881 383.184 42.9358 381.938C44.1835 380.687 46.2018 380.687 47.4862 381.938L54.0183 388.46L60.5138 381.938C61.7982 380.687 63.8165 380.687 65.0642 381.938C66.3119 383.184 66.3119 385.238 65.0642 386.481L58.5321 393.011L65.0642 399.537Z" fill="white"/>
<path d="M111.455 428.087C111.386 427.4 111.094 426.866 110.577 426.485C110.06 426.104 109.358 425.914 108.472 425.914C107.869 425.914 107.361 425.999 106.946 426.17C106.531 426.334 106.213 426.565 105.991 426.86C105.776 427.155 105.668 427.491 105.668 427.866C105.656 428.178 105.722 428.451 105.864 428.684C106.011 428.917 106.213 429.119 106.469 429.289C106.724 429.454 107.02 429.599 107.355 429.724C107.69 429.843 108.048 429.945 108.429 430.03L109.997 430.405C110.759 430.576 111.457 430.803 112.094 431.087C112.73 431.371 113.281 431.721 113.747 432.136C114.213 432.55 114.574 433.039 114.83 433.602C115.091 434.164 115.224 434.809 115.23 435.536C115.224 436.604 114.952 437.53 114.412 438.315C113.878 439.093 113.105 439.698 112.094 440.13C111.088 440.556 109.875 440.769 108.455 440.769C107.045 440.769 105.818 440.553 104.773 440.121C103.733 439.69 102.92 439.05 102.335 438.204C101.756 437.352 101.452 436.298 101.423 435.042H104.994C105.034 435.627 105.202 436.116 105.497 436.508C105.798 436.894 106.199 437.187 106.699 437.386C107.205 437.579 107.776 437.675 108.412 437.675C109.037 437.675 109.58 437.584 110.04 437.403C110.506 437.221 110.866 436.968 111.122 436.644C111.378 436.32 111.506 435.948 111.506 435.528C111.506 435.136 111.389 434.806 111.156 434.539C110.929 434.272 110.594 434.045 110.151 433.857C109.713 433.67 109.176 433.499 108.54 433.346L106.639 432.869C105.168 432.511 104.006 431.951 103.153 431.19C102.301 430.428 101.878 429.403 101.884 428.113C101.878 427.056 102.159 426.133 102.727 425.343C103.301 424.553 104.088 423.937 105.088 423.494C106.088 423.05 107.224 422.829 108.497 422.829C109.793 422.829 110.923 423.05 111.889 423.494C112.861 423.937 113.616 424.553 114.156 425.343C114.696 426.133 114.974 427.048 114.991 428.087H111.455ZM117.048 426.11V423.067H131.383V426.11H126.039V440.522H122.391V426.11H117.048ZM144.525 423.067H148.215V434.403C148.215 435.675 147.911 436.789 147.303 437.744C146.701 438.698 145.857 439.442 144.772 439.977C143.687 440.505 142.423 440.769 140.979 440.769C139.531 440.769 138.263 440.505 137.178 439.977C136.093 439.442 135.249 438.698 134.647 437.744C134.045 436.789 133.744 435.675 133.744 434.403V423.067H137.434V434.087C137.434 434.752 137.579 435.343 137.869 435.86C138.164 436.377 138.579 436.783 139.113 437.079C139.647 437.374 140.269 437.522 140.979 437.522C141.695 437.522 142.317 437.374 142.846 437.079C143.38 436.783 143.792 436.377 144.082 435.86C144.377 435.343 144.525 434.752 144.525 434.087V423.067ZM157.439 440.522H151.251V423.067H157.49C159.246 423.067 160.757 423.417 162.024 424.116C163.291 424.809 164.266 425.806 164.947 427.107C165.635 428.408 165.979 429.965 165.979 431.778C165.979 433.596 165.635 435.158 164.947 436.465C164.266 437.772 163.286 438.775 162.007 439.474C160.734 440.173 159.212 440.522 157.439 440.522ZM154.942 437.36H157.286C158.376 437.36 159.294 437.167 160.038 436.78C160.788 436.388 161.351 435.783 161.726 434.965C162.107 434.141 162.297 433.079 162.297 431.778C162.297 430.488 162.107 429.434 161.726 428.616C161.351 427.798 160.791 427.195 160.047 426.809C159.303 426.423 158.385 426.229 157.294 426.229H154.942V437.36ZM166.635 423.067H170.768L174.749 430.584H174.919L178.899 423.067H183.033L176.666 434.352V440.522H173.001V434.352L166.635 423.067Z" fill="#044210"/>
<rect x="39.5" y="417.5" width="29" height="29" rx="2.5" stroke="#044210" stroke-opacity="0.95" stroke-width="5"/>
<rect x="42" y="420" width="24" height="24" fill="#114B1C"/>
<path d="M65.0642 438.537C66.3119 439.784 66.3119 441.8 65.0642 443.043C64.4404 443.666 63.633 444 62.789 444C61.9817 444 61.1743 443.707 60.5505 443.043L54.0183 436.557L47.4862 443.043C46.8624 443.666 46.055 444 45.211 444C44.4037 444 43.5596 443.666 42.9358 443.043C41.6881 441.8 41.6881 439.784 42.9358 438.5L49.4679 432.011L42.9358 425.481C41.6881 424.238 41.6881 422.184 42.9358 420.938C44.1835 419.687 46.2018 419.687 47.4862 420.938L54.0183 427.46L60.5138 420.938C61.7982 419.687 63.8165 419.687 65.0642 420.938C66.3119 422.184 66.3119 424.238 65.0642 425.481L58.5321 432.011L65.0642 438.537Z" fill="white"/>
</svg>
