<svg width="410" height="490" viewBox="0 0 410 490" fill="none" xmlns="http://www.w3.org/2000/svg">
<path d="M0 0.0219064V489.522H410V61.1899H234.5C234.5 -2.9779 234.5 0.0219322 171 0.0219322L0 0.0219064Z" fill="white"/>
<path d="M31.7287 28.8701C31.6264 27.8389 31.1875 27.0377 30.4119 26.4667C29.6364 25.8957 28.5838 25.6102 27.2543 25.6102C26.3509 25.6102 25.5881 25.738 24.9659 25.9937C24.3438 26.2408 23.8665 26.586 23.5341 27.0292C23.2102 27.4724 23.0483 27.9752 23.0483 28.5377C23.0313 29.0065 23.1293 29.4156 23.3423 29.765C23.5639 30.1144 23.8665 30.417 24.25 30.6727C24.6335 30.9198 25.0767 31.1372 25.5795 31.3247C26.0824 31.5036 26.6193 31.657 27.1903 31.7849L29.5426 32.3474C30.6847 32.6031 31.733 32.944 32.6875 33.3701C33.642 33.7962 34.4688 34.3204 35.1676 34.9425C35.8665 35.5647 36.4077 36.2977 36.7912 37.1414C37.1832 37.9852 37.3835 38.9525 37.392 40.0434C37.3835 41.6457 36.9744 43.0349 36.1648 44.211C35.3636 45.3786 34.2045 46.2863 32.6875 46.934C31.179 47.5732 29.3594 47.8928 27.2287 47.8928C25.1151 47.8928 23.2741 47.569 21.706 46.9212C20.1463 46.2735 18.9276 45.3147 18.0497 44.0448C17.1804 42.7664 16.7244 41.1854 16.6818 39.3019H22.0384C22.098 40.1798 22.3494 40.9127 22.7926 41.5008C23.2443 42.0803 23.8452 42.5193 24.5952 42.8175C25.3537 43.1073 26.2102 43.2522 27.1648 43.2522C28.1023 43.2522 28.9162 43.1158 29.6065 42.8431C30.3054 42.5704 30.8466 42.1911 31.2301 41.7053C31.6136 41.2195 31.8054 40.6613 31.8054 40.0306C31.8054 39.4425 31.6307 38.9482 31.2812 38.5477C30.9403 38.1471 30.4375 37.8062 29.7727 37.5249C29.1165 37.2437 28.3111 36.988 27.3565 36.7579L24.5057 36.042C22.2983 35.505 20.5554 34.6656 19.277 33.5235C17.9986 32.3815 17.3636 30.8431 17.3722 28.9085C17.3636 27.3232 17.7855 25.9383 18.6378 24.7536C19.4986 23.569 20.679 22.6443 22.179 21.9795C23.679 21.3147 25.3835 20.9823 27.2926 20.9823C29.2358 20.9823 30.9318 21.3147 32.3807 21.9795C33.8381 22.6443 34.9716 23.569 35.7812 24.7536C36.5909 25.9383 37.0085 27.3104 37.0341 28.8701H31.7287ZM57.2873 21.3403H62.8228V38.3431C62.8228 40.2522 62.3668 41.9227 61.4549 43.3545C60.5515 44.7863 59.2859 45.9028 57.658 46.7039C56.0302 47.4965 54.1339 47.8928 51.9691 47.8928C49.7958 47.8928 47.8952 47.4965 46.2674 46.7039C44.6396 45.9028 43.3739 44.7863 42.4705 43.3545C41.5671 41.9227 41.1154 40.2522 41.1154 38.3431V21.3403H46.6509V37.8701C46.6509 38.8673 46.8683 39.7536 47.3029 40.5292C47.7461 41.3048 48.3683 41.9141 49.1694 42.3573C49.9705 42.8005 50.9038 43.0221 51.9691 43.0221C53.043 43.0221 53.9762 42.8005 54.7688 42.3573C55.57 41.9141 56.1879 41.3048 56.6225 40.5292C57.0657 39.7536 57.2873 38.8673 57.2873 37.8701V21.3403ZM81.5803 28.8701C81.478 27.8389 81.0391 27.0377 80.2635 26.4667C79.4879 25.8957 78.4354 25.6102 77.1058 25.6102C76.2024 25.6102 75.4396 25.738 74.8175 25.9937C74.1953 26.2408 73.718 26.586 73.3857 27.0292C73.0618 27.4724 72.8999 27.9752 72.8999 28.5377C72.8828 29.0065 72.9808 29.4156 73.1939 29.765C73.4155 30.1144 73.718 30.417 74.1016 30.6727C74.4851 30.9198 74.9283 31.1372 75.4311 31.3247C75.9339 31.5036 76.4709 31.657 77.0419 31.7849L79.3942 32.3474C80.5362 32.6031 81.5845 32.944 82.5391 33.3701C83.4936 33.7962 84.3203 34.3204 85.0192 34.9425C85.718 35.5647 86.2592 36.2977 86.6428 37.1414C87.0348 37.9852 87.2351 38.9525 87.2436 40.0434C87.2351 41.6457 86.826 43.0349 86.0163 44.211C85.2152 45.3786 84.0561 46.2863 82.5391 46.934C81.0305 47.5732 79.2109 47.8928 77.0803 47.8928C74.9666 47.8928 73.1257 47.569 71.5575 46.9212C69.9979 46.2735 68.7791 45.3147 67.9013 44.0448C67.032 42.7664 66.576 41.1854 66.5334 39.3019H71.8899C71.9496 40.1798 72.201 40.9127 72.6442 41.5008C73.0959 42.0803 73.6967 42.5193 74.4467 42.8175C75.2053 43.1073 76.0618 43.2522 77.0163 43.2522C77.9538 43.2522 78.7678 43.1158 79.4581 42.8431C80.157 42.5704 80.6982 42.1911 81.0817 41.7053C81.4652 41.2195 81.657 40.6613 81.657 40.0306C81.657 39.4425 81.4822 38.9482 81.1328 38.5477C80.7919 38.1471 80.2891 37.8062 79.6243 37.5249C78.968 37.2437 78.1626 36.988 77.2081 36.7579L74.3572 36.042C72.1499 35.505 70.407 34.6656 69.1286 33.5235C67.8501 32.3815 67.2152 30.8431 67.2237 28.9085C67.2152 27.3232 67.6371 25.9383 68.4893 24.7536C69.3501 23.569 70.5305 22.6443 72.0305 21.9795C73.5305 21.3147 75.2351 20.9823 77.1442 20.9823C79.0874 20.9823 80.7834 21.3147 82.2322 21.9795C83.6896 22.6443 84.8232 23.569 85.6328 24.7536C86.4425 25.9383 86.8601 27.3104 86.8857 28.8701H81.5803ZM90.967 47.5221V21.3403H101.297C103.282 21.3403 104.974 21.7195 106.372 22.4781C107.77 23.2281 108.835 24.2721 109.568 25.6102C110.309 26.9397 110.68 28.4738 110.68 30.2124C110.68 31.9511 110.305 33.4852 109.555 34.8147C108.805 36.1443 107.718 37.1798 106.295 37.9212C104.88 38.6627 103.167 39.0335 101.156 39.0335H94.5721V34.5974H100.261C101.326 34.5974 102.204 34.4141 102.895 34.0477C103.593 33.6727 104.113 33.157 104.454 32.5008C104.804 31.836 104.978 31.0732 104.978 30.2124C104.978 29.3431 104.804 28.5846 104.454 27.9369C104.113 27.2806 103.593 26.7735 102.895 26.4156C102.196 26.0491 101.309 25.8658 100.235 25.8658H96.5025V47.5221H90.967ZM114.276 47.5221V21.3403H131.918V25.9042H119.811V32.1428H131.01V36.7068H119.811V42.9582H131.969V47.5221H114.276ZM159.419 30.5065H153.82C153.718 29.782 153.509 29.1386 153.194 28.5761C152.878 28.005 152.473 27.5193 151.979 27.1187C151.485 26.7181 150.914 26.4113 150.266 26.1982C149.627 25.9852 148.932 25.8786 148.182 25.8786C146.827 25.8786 145.647 26.2153 144.641 26.8886C143.635 27.5533 142.855 28.5249 142.301 29.8033C141.748 31.0732 141.471 32.6158 141.471 34.4312C141.471 36.2977 141.748 37.8658 142.301 39.1357C142.864 40.4056 143.648 41.3644 144.654 42.0122C145.659 42.6599 146.823 42.9837 148.144 42.9837C148.885 42.9837 149.571 42.8857 150.202 42.6897C150.841 42.4937 151.408 42.2082 151.902 41.8332C152.397 41.4497 152.806 40.9852 153.13 40.4397C153.462 39.8943 153.692 39.2721 153.82 38.5732L159.419 38.5988C159.275 39.8005 158.912 40.9596 158.333 42.0761C157.762 43.184 156.99 44.1769 156.019 45.0548C155.056 45.9241 153.905 46.6144 152.567 47.1258C151.238 47.6286 149.733 47.88 148.054 47.88C145.719 47.88 143.631 47.3516 141.79 46.2948C139.958 45.238 138.509 43.7082 137.444 41.7053C136.387 39.7025 135.858 37.2778 135.858 34.4312C135.858 31.5761 136.395 29.1471 137.469 27.1443C138.543 25.1414 140 23.6158 141.841 22.5675C143.682 21.5107 145.753 20.9823 148.054 20.9823C149.571 20.9823 150.978 21.1954 152.273 21.6215C153.577 22.0477 154.732 22.6698 155.738 23.488C156.743 24.2977 157.561 25.2906 158.192 26.4667C158.831 27.6428 159.24 28.9894 159.419 30.5065ZM162.392 25.9042V21.3403H183.895V25.9042H175.879V47.5221H170.407V25.9042H162.392ZM201.639 28.8701C201.537 27.8389 201.098 27.0377 200.322 26.4667C199.547 25.8957 198.494 25.6102 197.164 25.6102C196.261 25.6102 195.498 25.738 194.876 25.9937C194.254 26.2408 193.777 26.586 193.444 27.0292C193.12 27.4724 192.958 27.9752 192.958 28.5377C192.941 29.0065 193.039 29.4156 193.252 29.765C193.474 30.1144 193.777 30.417 194.16 30.6727C194.544 30.9198 194.987 31.1372 195.49 31.3247C195.993 31.5036 196.529 31.657 197.1 31.7849L199.453 32.3474C200.595 32.6031 201.643 32.944 202.598 33.3701C203.552 33.7962 204.379 34.3204 205.078 34.9425C205.777 35.5647 206.318 36.2977 206.701 37.1414C207.093 37.9852 207.294 38.9525 207.302 40.0434C207.294 41.6457 206.885 43.0349 206.075 44.211C205.274 45.3786 204.115 46.2863 202.598 46.934C201.089 47.5732 199.27 47.8928 197.139 47.8928C195.025 47.8928 193.184 47.569 191.616 46.9212C190.056 46.2735 188.838 45.3147 187.96 44.0448C187.091 42.7664 186.635 41.1854 186.592 39.3019H191.949C192.008 40.1798 192.26 40.9127 192.703 41.5008C193.154 42.0803 193.755 42.5193 194.505 42.8175C195.264 43.1073 196.12 43.2522 197.075 43.2522C198.012 43.2522 198.826 43.1158 199.517 42.8431C200.216 42.5704 200.757 42.1911 201.14 41.7053C201.524 41.2195 201.716 40.6613 201.716 40.0306C201.716 39.4425 201.541 38.9482 201.191 38.5477C200.85 38.1471 200.348 37.8062 199.683 37.5249C199.027 37.2437 198.221 36.988 197.267 36.7579L194.416 36.042C192.208 35.505 190.466 34.6656 189.187 33.5235C187.909 32.3815 187.274 30.8431 187.282 28.9085C187.274 27.3232 187.696 25.9383 188.548 24.7536C189.409 23.569 190.589 22.6443 192.089 21.9795C193.589 21.3147 195.294 20.9823 197.203 20.9823C199.146 20.9823 200.842 21.3147 202.291 21.9795C203.748 22.6443 204.882 23.569 205.691 24.7536C206.501 25.9383 206.919 27.3104 206.944 28.8701H201.639Z" fill="#044210"/>
<path d="M112.265 94.1783H108.532C108.464 93.6954 108.325 93.2664 108.115 92.8914C107.904 92.5107 107.635 92.1869 107.305 91.9198C106.975 91.6528 106.595 91.4482 106.163 91.3062C105.737 91.1641 105.274 91.0931 104.774 91.0931C103.87 91.0931 103.083 91.3175 102.413 91.7664C101.743 92.2096 101.223 92.8573 100.853 93.7096C100.484 94.5562 100.299 95.5846 100.299 96.7948C100.299 98.0391 100.484 99.0846 100.853 99.9312C101.228 100.778 101.751 101.417 102.422 101.849C103.092 102.281 103.868 102.497 104.748 102.497C105.243 102.497 105.7 102.431 106.12 102.301C106.547 102.17 106.924 101.979 107.254 101.729C107.583 101.474 107.856 101.164 108.072 100.801C108.294 100.437 108.447 100.022 108.532 99.5562L112.265 99.5732C112.169 100.374 111.927 101.147 111.541 101.891C111.16 102.63 110.646 103.292 109.998 103.877C109.356 104.457 108.589 104.917 107.697 105.258C106.811 105.593 105.808 105.761 104.689 105.761C103.132 105.761 101.74 105.408 100.512 104.704C99.2908 103.999 98.3249 102.979 97.6147 101.644C96.9102 100.309 96.5579 98.6925 96.5579 96.7948C96.5579 94.8914 96.9158 93.2721 97.6317 91.9369C98.3477 90.6016 99.3192 89.5846 100.547 88.8857C101.774 88.1812 103.154 87.8289 104.689 87.8289C105.7 87.8289 106.637 87.971 107.501 88.255C108.37 88.5391 109.14 88.9539 109.811 89.4994C110.481 90.0391 111.027 90.7011 111.447 91.4852C111.873 92.2693 112.146 93.167 112.265 94.1783ZM130.951 96.7948C130.951 98.6982 130.591 100.318 129.869 101.653C129.153 102.988 128.176 104.008 126.937 104.712C125.704 105.411 124.318 105.761 122.778 105.761C121.227 105.761 119.835 105.408 118.602 104.704C117.369 103.999 116.395 102.979 115.679 101.644C114.963 100.309 114.605 98.6925 114.605 96.7948C114.605 94.8914 114.963 93.2721 115.679 91.9369C116.395 90.6016 117.369 89.5846 118.602 88.8857C119.835 88.1812 121.227 87.8289 122.778 87.8289C124.318 87.8289 125.704 88.1812 126.937 88.8857C128.176 89.5846 129.153 90.6016 129.869 91.9369C130.591 93.2721 130.951 94.8914 130.951 96.7948ZM127.21 96.7948C127.21 95.5619 127.025 94.5221 126.656 93.6755C126.292 92.8289 125.778 92.1869 125.113 91.7494C124.449 91.3119 123.67 91.0931 122.778 91.0931C121.886 91.0931 121.108 91.3119 120.443 91.7494C119.778 92.1869 119.261 92.8289 118.892 93.6755C118.528 94.5221 118.346 95.5619 118.346 96.7948C118.346 98.0278 118.528 99.0675 118.892 99.9141C119.261 100.761 119.778 101.403 120.443 101.84C121.108 102.278 121.886 102.497 122.778 102.497C123.67 102.497 124.449 102.278 125.113 101.84C125.778 101.403 126.292 100.761 126.656 99.9141C127.025 99.0675 127.21 98.0278 127.21 96.7948ZM133.685 105.522V88.0675H137.375V102.479H144.858V105.522H133.685ZM162.662 96.7948C162.662 98.6982 162.301 100.318 161.58 101.653C160.864 102.988 159.887 104.008 158.648 104.712C157.415 105.411 156.029 105.761 154.489 105.761C152.938 105.761 151.546 105.408 150.313 104.704C149.08 103.999 148.105 102.979 147.39 101.644C146.674 100.309 146.316 98.6925 146.316 96.7948C146.316 94.8914 146.674 93.2721 147.39 91.9369C148.105 90.6016 149.08 89.5846 150.313 88.8857C151.546 88.1812 152.938 87.8289 154.489 87.8289C156.029 87.8289 157.415 88.1812 158.648 88.8857C159.887 89.5846 160.864 90.6016 161.58 91.9369C162.301 93.2721 162.662 94.8914 162.662 96.7948ZM158.921 96.7948C158.921 95.5619 158.736 94.5221 158.367 93.6755C158.003 92.8289 157.489 92.1869 156.824 91.7494C156.159 91.3119 155.381 91.0931 154.489 91.0931C153.597 91.0931 152.819 91.3119 152.154 91.7494C151.489 92.1869 150.972 92.8289 150.603 93.6755C150.239 94.5221 150.057 95.5619 150.057 96.7948C150.057 98.0278 150.239 99.0675 150.603 99.9141C150.972 100.761 151.489 101.403 152.154 101.84C152.819 102.278 153.597 102.497 154.489 102.497C155.381 102.497 156.159 102.278 156.824 101.84C157.489 101.403 158.003 100.761 158.367 99.9141C158.736 99.0675 158.921 98.0278 158.921 96.7948ZM179.995 88.0675V105.522H176.808L169.214 94.5363H169.086V105.522H165.396V88.0675H168.635L176.169 99.0448H176.322V88.0675H179.995ZM183.044 105.522V88.0675H194.806V91.1102H186.735V95.2693H194.201V98.3119H186.735V102.479H194.84V105.522H183.044ZM197.74 105.522V88.0675H201.43V102.479H208.913V105.522H197.74ZM216.912 88.0675H221.463L226.27 99.7948H226.474L231.281 88.0675H235.832V105.522H232.252V94.1613H232.108L227.591 105.437H225.153L220.636 94.1187H220.491V105.522H216.912V88.0675ZM249.654 88.0675H253.344V99.4028C253.344 100.676 253.04 101.789 252.432 102.744C251.83 103.698 250.986 104.443 249.901 104.977C248.816 105.505 247.551 105.769 246.108 105.769C244.659 105.769 243.392 105.505 242.307 104.977C241.222 104.443 240.378 103.698 239.776 102.744C239.174 101.789 238.873 100.676 238.873 99.4028V88.0675H242.563V99.0874C242.563 99.7522 242.708 100.343 242.998 100.86C243.293 101.377 243.708 101.783 244.242 102.079C244.776 102.374 245.398 102.522 246.108 102.522C246.824 102.522 247.446 102.374 247.975 102.079C248.509 101.783 248.921 101.377 249.211 100.86C249.506 100.343 249.654 99.7522 249.654 99.0874V88.0675ZM265.849 93.0874C265.781 92.3999 265.488 91.8658 264.971 91.4852C264.454 91.1045 263.752 90.9141 262.866 90.9141C262.264 90.9141 261.755 90.9994 261.341 91.1698C260.926 91.3346 260.608 91.5647 260.386 91.8602C260.17 92.1556 260.062 92.4908 260.062 92.8658C260.051 93.1783 260.116 93.4511 260.258 93.684C260.406 93.917 260.608 94.1187 260.863 94.2891C261.119 94.4539 261.414 94.5988 261.75 94.7238C262.085 94.8431 262.443 94.9454 262.824 95.0306L264.392 95.4056C265.153 95.5761 265.852 95.8033 266.488 96.0874C267.125 96.3715 267.676 96.721 268.142 97.1357C268.608 97.5505 268.968 98.0391 269.224 98.6016C269.485 99.1641 269.619 99.809 269.625 100.536C269.619 101.604 269.346 102.531 268.806 103.315C268.272 104.093 267.5 104.698 266.488 105.13C265.483 105.556 264.27 105.769 262.849 105.769C261.44 105.769 260.213 105.553 259.167 105.122C258.127 104.69 257.315 104.051 256.73 103.204C256.15 102.352 255.846 101.298 255.818 100.042H259.389C259.429 100.627 259.596 101.116 259.892 101.508C260.193 101.894 260.593 102.187 261.093 102.386C261.599 102.579 262.17 102.676 262.806 102.676C263.431 102.676 263.974 102.585 264.434 102.403C264.9 102.221 265.261 101.968 265.517 101.644C265.772 101.32 265.9 100.948 265.9 100.528C265.9 100.136 265.784 99.8062 265.551 99.5391C265.324 99.2721 264.988 99.0448 264.545 98.8573C264.108 98.6698 263.571 98.4994 262.934 98.346L261.034 97.8687C259.562 97.5107 258.4 96.9511 257.548 96.1897C256.696 95.4283 256.272 94.4028 256.278 93.113C256.272 92.0562 256.554 91.1329 257.122 90.3431C257.696 89.5533 258.483 88.9369 259.483 88.4937C260.483 88.0505 261.619 87.8289 262.892 87.8289C264.187 87.8289 265.318 88.0505 266.284 88.4937C267.255 88.9369 268.011 89.5533 268.551 90.3431C269.091 91.1329 269.369 92.0477 269.386 93.0874H265.849ZM271.442 91.1102V88.0675H285.777V91.1102H280.434V105.522H276.786V91.1102H271.442ZM289.014 105.522H285.059L291.085 88.0675H295.841L301.858 105.522H297.903L293.531 92.0562H293.395L289.014 105.522ZM288.767 98.6613H298.108V101.542H288.767V98.6613ZM303.958 105.522V88.0675H310.845C312.163 88.0675 313.288 88.3033 314.22 88.7749C315.157 89.2408 315.87 89.9028 316.359 90.7607C316.853 91.613 317.1 92.6158 317.1 93.7693C317.1 94.9283 316.85 95.9255 316.35 96.7607C315.85 97.5903 315.126 98.2266 314.177 98.6698C313.234 99.113 312.092 99.3346 310.751 99.3346H306.14V96.3687H310.154C310.859 96.3687 311.444 96.2721 311.91 96.0789C312.376 95.8857 312.723 95.596 312.95 95.2096C313.183 94.8232 313.299 94.3431 313.299 93.7693C313.299 93.1897 313.183 92.7011 312.95 92.3033C312.723 91.9056 312.373 91.6045 311.902 91.3999C311.436 91.1897 310.848 91.0846 310.137 91.0846H307.649V105.522H303.958ZM313.385 97.5789L317.723 105.522H313.649L309.404 97.5789H313.385ZM325.896 105.522H319.708V88.0675H325.947C327.703 88.0675 329.214 88.417 330.481 89.1158C331.748 89.809 332.723 90.8062 333.404 92.1073C334.092 93.4085 334.436 94.9653 334.436 96.7778C334.436 98.596 334.092 100.158 333.404 101.465C332.723 102.772 331.743 103.775 330.464 104.474C329.191 105.173 327.669 105.522 325.896 105.522ZM323.399 102.36H325.743C326.833 102.36 327.751 102.167 328.495 101.781C329.245 101.389 329.808 100.783 330.183 99.9653C330.564 99.1414 330.754 98.0789 330.754 96.7778C330.754 95.488 330.564 94.434 330.183 93.6158C329.808 92.7977 329.248 92.1954 328.504 91.809C327.76 91.4227 326.842 91.2295 325.751 91.2295H323.399V102.36Z" fill="#044210"/>
<rect x="34.5" y="82.5" width="29" height="29" rx="2.5" stroke="#044210" stroke-opacity="0.95" stroke-width="5"/>
<rect x="37" y="85" width="24" height="24" fill="#114B1C"/>
<path d="M60.0642 103.537C61.3119 104.784 61.3119 106.8 60.0642 108.043C59.4404 108.666 58.633 109 57.789 109C56.9817 109 56.1743 108.707 55.5505 108.043L49.0183 101.557L42.4862 108.043C41.8624 108.666 41.055 109 40.211 109C39.4037 109 38.5596 108.666 37.9358 108.043C36.6881 106.8 36.6881 104.784 37.9358 103.5L44.4679 97.0105L37.9358 90.4805C36.6881 89.2376 36.6881 87.1843 37.9358 85.9377C39.1835 84.6874 41.2018 84.6874 42.4862 85.9377L49.0183 92.4604L55.5138 85.9377C56.7982 84.6874 58.8165 84.6874 60.0642 85.9377C61.3119 87.1843 61.3119 89.2376 60.0642 90.4805L53.5321 97.0105L60.0642 103.537Z" fill="white"/>
<path d="M96.5405 144.522V127.068H103.427C104.751 127.068 105.879 127.32 106.81 127.826C107.742 128.326 108.452 129.022 108.941 129.914C109.435 130.801 109.683 131.823 109.683 132.982C109.683 134.141 109.433 135.164 108.933 136.051C108.433 136.937 107.708 137.627 106.759 138.122C105.816 138.616 104.674 138.863 103.333 138.863H98.9439V135.906H102.737C103.447 135.906 104.032 135.783 104.492 135.539C104.958 135.289 105.305 134.945 105.532 134.508C105.765 134.065 105.881 133.556 105.881 132.982C105.881 132.403 105.765 131.897 105.532 131.465C105.305 131.028 104.958 130.69 104.492 130.451C104.026 130.207 103.435 130.085 102.719 130.085H100.231V144.522H96.5405ZM112.08 144.522V127.068H118.966C120.284 127.068 121.409 127.303 122.341 127.775C123.278 128.241 123.991 128.903 124.48 129.761C124.974 130.613 125.222 131.616 125.222 132.769C125.222 133.928 124.972 134.926 124.472 135.761C123.972 136.59 123.247 137.227 122.298 137.67C121.355 138.113 120.213 138.335 118.872 138.335H114.261V135.369H118.276C118.98 135.369 119.565 135.272 120.031 135.079C120.497 134.886 120.844 134.596 121.071 134.21C121.304 133.823 121.42 133.343 121.42 132.769C121.42 132.19 121.304 131.701 121.071 131.303C120.844 130.906 120.494 130.604 120.023 130.4C119.557 130.19 118.969 130.085 118.259 130.085H115.77V144.522H112.08ZM121.506 136.579L125.844 144.522H121.77L117.526 136.579H121.506ZM143.869 135.795C143.869 137.698 143.509 139.318 142.787 140.653C142.071 141.988 141.094 143.008 139.855 143.712C138.622 144.411 137.236 144.761 135.696 144.761C134.145 144.761 132.753 144.408 131.52 143.704C130.287 142.999 129.313 141.979 128.597 140.644C127.881 139.309 127.523 137.693 127.523 135.795C127.523 133.891 127.881 132.272 128.597 130.937C129.313 129.602 130.287 128.585 131.52 127.886C132.753 127.181 134.145 126.829 135.696 126.829C137.236 126.829 138.622 127.181 139.855 127.886C141.094 128.585 142.071 129.602 142.787 130.937C143.509 132.272 143.869 133.891 143.869 135.795ZM140.128 135.795C140.128 134.562 139.943 133.522 139.574 132.676C139.21 131.829 138.696 131.187 138.031 130.749C137.366 130.312 136.588 130.093 135.696 130.093C134.804 130.093 134.026 130.312 133.361 130.749C132.696 131.187 132.179 131.829 131.81 132.676C131.446 133.522 131.264 134.562 131.264 135.795C131.264 137.028 131.446 138.068 131.81 138.914C132.179 139.761 132.696 140.403 133.361 140.84C134.026 141.278 134.804 141.497 135.696 141.497C136.588 141.497 137.366 141.278 138.031 140.84C138.696 140.403 139.21 139.761 139.574 138.914C139.943 138.068 140.128 137.028 140.128 135.795ZM146.603 144.522V127.068H158.16V130.11H150.293V134.269H157.393V137.312H150.293V144.522H146.603ZM160.642 144.522V127.068H172.403V130.11H164.332V134.269H171.798V137.312H164.332V141.479H172.438V144.522H160.642ZM184.806 132.087C184.738 131.4 184.445 130.866 183.928 130.485C183.411 130.104 182.71 129.914 181.823 129.914C181.221 129.914 180.712 129.999 180.298 130.17C179.883 130.335 179.565 130.565 179.343 130.86C179.127 131.156 179.019 131.491 179.019 131.866C179.008 132.178 179.073 132.451 179.215 132.684C179.363 132.917 179.565 133.119 179.82 133.289C180.076 133.454 180.371 133.599 180.707 133.724C181.042 133.843 181.4 133.945 181.781 134.031L183.349 134.406C184.11 134.576 184.809 134.803 185.445 135.087C186.082 135.372 186.633 135.721 187.099 136.136C187.565 136.551 187.925 137.039 188.181 137.602C188.442 138.164 188.576 138.809 188.582 139.536C188.576 140.604 188.303 141.531 187.763 142.315C187.229 143.093 186.457 143.698 185.445 144.13C184.44 144.556 183.227 144.769 181.806 144.769C180.397 144.769 179.17 144.553 178.124 144.122C177.085 143.69 176.272 143.051 175.687 142.204C175.107 141.352 174.803 140.298 174.775 139.042H178.346C178.386 139.627 178.553 140.116 178.849 140.508C179.15 140.894 179.55 141.187 180.05 141.386C180.556 141.579 181.127 141.676 181.763 141.676C182.388 141.676 182.931 141.585 183.391 141.403C183.857 141.221 184.218 140.968 184.474 140.644C184.729 140.32 184.857 139.948 184.857 139.528C184.857 139.136 184.741 138.806 184.508 138.539C184.281 138.272 183.945 138.045 183.502 137.857C183.065 137.67 182.528 137.499 181.891 137.346L179.991 136.869C178.519 136.511 177.357 135.951 176.505 135.19C175.653 134.428 175.229 133.403 175.235 132.113C175.229 131.056 175.511 130.133 176.079 129.343C176.653 128.553 177.44 127.937 178.44 127.494C179.44 127.051 180.576 126.829 181.849 126.829C183.144 126.829 184.275 127.051 185.241 127.494C186.212 127.937 186.968 128.553 187.508 129.343C188.048 130.133 188.326 131.048 188.343 132.087H184.806ZM200.533 132.087C200.464 131.4 200.172 130.866 199.655 130.485C199.138 130.104 198.436 129.914 197.55 129.914C196.947 129.914 196.439 129.999 196.024 130.17C195.609 130.335 195.291 130.565 195.07 130.86C194.854 131.156 194.746 131.491 194.746 131.866C194.734 132.178 194.8 132.451 194.942 132.684C195.089 132.917 195.291 133.119 195.547 133.289C195.803 133.454 196.098 133.599 196.433 133.724C196.768 133.843 197.126 133.945 197.507 134.031L199.075 134.406C199.837 134.576 200.536 134.803 201.172 135.087C201.808 135.372 202.359 135.721 202.825 136.136C203.291 136.551 203.652 137.039 203.908 137.602C204.169 138.164 204.303 138.809 204.308 139.536C204.303 140.604 204.03 141.531 203.49 142.315C202.956 143.093 202.183 143.698 201.172 144.13C200.166 144.556 198.953 144.769 197.533 144.769C196.124 144.769 194.896 144.553 193.851 144.122C192.811 143.69 191.999 143.051 191.413 142.204C190.834 141.352 190.53 140.298 190.501 139.042H194.072C194.112 139.627 194.28 140.116 194.575 140.508C194.876 140.894 195.277 141.187 195.777 141.386C196.283 141.579 196.854 141.676 197.49 141.676C198.115 141.676 198.658 141.585 199.118 141.403C199.584 141.221 199.945 140.968 200.2 140.644C200.456 140.32 200.584 139.948 200.584 139.528C200.584 139.136 200.467 138.806 200.234 138.539C200.007 138.272 199.672 138.045 199.229 137.857C198.791 137.67 198.254 137.499 197.618 137.346L195.717 136.869C194.246 136.511 193.084 135.951 192.232 135.19C191.379 134.428 190.956 133.403 190.962 132.113C190.956 131.056 191.237 130.133 191.805 129.343C192.379 128.553 193.166 127.937 194.166 127.494C195.166 127.051 196.303 126.829 197.575 126.829C198.871 126.829 200.001 127.051 200.967 127.494C201.939 127.937 202.695 128.553 203.234 129.343C203.774 130.133 204.053 131.048 204.07 132.087H200.533ZM222.83 135.795C222.83 137.698 222.469 139.318 221.748 140.653C221.032 141.988 220.055 143.008 218.816 143.712C217.583 144.411 216.197 144.761 214.657 144.761C213.106 144.761 211.714 144.408 210.481 143.704C209.248 142.999 208.273 141.979 207.558 140.644C206.842 139.309 206.484 137.693 206.484 135.795C206.484 133.891 206.842 132.272 207.558 130.937C208.273 129.602 209.248 128.585 210.481 127.886C211.714 127.181 213.106 126.829 214.657 126.829C216.197 126.829 217.583 127.181 218.816 127.886C220.055 128.585 221.032 129.602 221.748 130.937C222.469 132.272 222.83 133.891 222.83 135.795ZM219.089 135.795C219.089 134.562 218.904 133.522 218.535 132.676C218.171 131.829 217.657 131.187 216.992 130.749C216.327 130.312 215.549 130.093 214.657 130.093C213.765 130.093 212.987 130.312 212.322 130.749C211.657 131.187 211.14 131.829 210.771 132.676C210.407 133.522 210.225 134.562 210.225 135.795C210.225 137.028 210.407 138.068 210.771 138.914C211.14 139.761 211.657 140.403 212.322 140.84C212.987 141.278 213.765 141.497 214.657 141.497C215.549 141.497 216.327 141.278 216.992 140.84C217.657 140.403 218.171 139.761 218.535 138.914C218.904 138.068 219.089 137.028 219.089 135.795ZM225.564 144.522V127.068H232.45C233.768 127.068 234.893 127.303 235.825 127.775C236.763 128.241 237.476 128.903 237.964 129.761C238.459 130.613 238.706 131.616 238.706 132.769C238.706 133.928 238.456 134.926 237.956 135.761C237.456 136.59 236.732 137.227 235.783 137.67C234.839 138.113 233.697 138.335 232.357 138.335H227.746V135.369H231.76C232.464 135.369 233.05 135.272 233.516 135.079C233.982 134.886 234.328 134.596 234.555 134.21C234.788 133.823 234.905 133.343 234.905 132.769C234.905 132.19 234.788 131.701 234.555 131.303C234.328 130.906 233.979 130.604 233.507 130.4C233.041 130.19 232.453 130.085 231.743 130.085H229.254V144.522H225.564ZM234.99 136.579L239.328 144.522H235.254L231.01 136.579H234.99ZM246.869 144.522V127.068H253.755C255.079 127.068 256.207 127.32 257.138 127.826C258.07 128.326 258.781 129.022 259.269 129.914C259.763 130.801 260.011 131.823 260.011 132.982C260.011 134.141 259.761 135.164 259.261 136.051C258.761 136.937 258.036 137.627 257.087 138.122C256.144 138.616 255.002 138.863 253.661 138.863H249.272V135.906H253.065C253.775 135.906 254.36 135.783 254.82 135.539C255.286 135.289 255.633 134.945 255.86 134.508C256.093 134.065 256.21 133.556 256.21 132.982C256.21 132.403 256.093 131.897 255.86 131.465C255.633 131.028 255.286 130.69 254.82 130.451C254.354 130.207 253.763 130.085 253.048 130.085H250.559V144.522H246.869ZM262.408 144.522V127.068H266.098V141.479H273.581V144.522H262.408ZM286.806 127.068H290.496V138.403C290.496 139.676 290.192 140.789 289.585 141.744C288.982 142.698 288.138 143.443 287.053 143.977C285.968 144.505 284.704 144.769 283.261 144.769C281.812 144.769 280.545 144.505 279.46 143.977C278.374 143.443 277.531 142.698 276.928 141.744C276.326 140.789 276.025 139.676 276.025 138.403V127.068H279.715V138.087C279.715 138.752 279.86 139.343 280.15 139.86C280.445 140.377 280.86 140.783 281.394 141.079C281.928 141.374 282.55 141.522 283.261 141.522C283.977 141.522 284.599 141.374 285.127 141.079C285.661 140.783 286.073 140.377 286.363 139.86C286.658 139.343 286.806 138.752 286.806 138.087V127.068ZM293.533 127.068H298.084L302.891 138.795H303.095L307.902 127.068H312.453V144.522H308.874V133.161H308.729L304.212 144.437H301.774L297.257 133.119H297.112V144.522H293.533V127.068Z" fill="#044210"/>
<rect x="34.5" y="121.5" width="29" height="29" rx="2.5" stroke="#044210" stroke-opacity="0.95" stroke-width="5"/>
<rect x="37" y="124" width="24" height="24" fill="#114B1C"/>
<path d="M60.0642 142.537C61.3119 143.784 61.3119 145.8 60.0642 147.043C59.4404 147.666 58.633 148 57.789 148C56.9817 148 56.1743 147.707 55.5505 147.043L49.0183 140.557L42.4862 147.043C41.8624 147.666 41.055 148 40.211 148C39.4037 148 38.5596 147.666 37.9358 147.043C36.6881 145.8 36.6881 143.784 37.9358 142.5L44.4679 136.011L37.9358 129.481C36.6881 128.238 36.6881 126.184 37.9358 124.938C39.1835 123.687 41.2018 123.687 42.4862 124.938L49.0183 131.46L55.5138 124.938C56.7982 123.687 58.8165 123.687 60.0642 124.938C61.3119 126.184 61.3119 128.238 60.0642 129.481L53.5321 136.011L60.0642 142.537Z" fill="white"/>
<path d="M96.6967 166.068H101.248L106.055 177.795H106.259L111.066 166.068H115.617V183.522H112.038V172.161H111.893L107.376 183.437H104.938L100.421 172.119H100.276V183.522H96.6967V166.068ZM118.658 183.522V166.068H125.544C126.862 166.068 127.987 166.303 128.919 166.775C129.857 167.241 130.57 167.903 131.058 168.761C131.553 169.613 131.8 170.616 131.8 171.769C131.8 172.928 131.55 173.926 131.05 174.761C130.55 175.59 129.825 176.227 128.876 176.67C127.933 177.113 126.791 177.335 125.45 177.335H120.839V174.369H124.854C125.558 174.369 126.143 174.272 126.609 174.079C127.075 173.886 127.422 173.596 127.649 173.21C127.882 172.823 127.999 172.343 127.999 171.769C127.999 171.19 127.882 170.701 127.649 170.303C127.422 169.906 127.072 169.604 126.601 169.4C126.135 169.19 125.547 169.085 124.837 169.085H122.348V183.522H118.658ZM128.084 175.579L132.422 183.522H128.348L124.104 175.579H128.084ZM136.462 183.744C135.899 183.744 135.416 183.545 135.013 183.147C134.615 182.744 134.416 182.261 134.416 181.698C134.416 181.141 134.615 180.664 135.013 180.266C135.416 179.869 135.899 179.67 136.462 179.67C137.007 179.67 137.484 179.869 137.893 180.266C138.303 180.664 138.507 181.141 138.507 181.698C138.507 182.073 138.411 182.417 138.217 182.729C138.03 183.036 137.783 183.283 137.476 183.471C137.169 183.653 136.831 183.744 136.462 183.744ZM157.864 171.71C157.745 171.295 157.577 170.928 157.362 170.61C157.146 170.286 156.881 170.014 156.569 169.792C156.262 169.565 155.91 169.391 155.512 169.272C155.12 169.153 154.685 169.093 154.208 169.093C153.316 169.093 152.532 169.315 151.856 169.758C151.185 170.201 150.663 170.846 150.288 171.693C149.913 172.533 149.725 173.562 149.725 174.778C149.725 175.994 149.91 177.028 150.279 177.88C150.648 178.732 151.171 179.383 151.847 179.832C152.523 180.275 153.322 180.497 154.242 180.497C155.077 180.497 155.79 180.349 156.381 180.053C156.978 179.752 157.433 179.329 157.745 178.783C158.063 178.238 158.222 177.593 158.222 176.849L158.972 176.96H154.472V174.181H161.776V176.38C161.776 177.914 161.452 179.232 160.805 180.335C160.157 181.431 159.265 182.278 158.129 182.874C156.992 183.465 155.691 183.761 154.225 183.761C152.589 183.761 151.151 183.4 149.913 182.678C148.674 181.951 147.708 180.92 147.015 179.585C146.327 178.244 145.984 176.653 145.984 174.812C145.984 173.397 146.188 172.136 146.597 171.028C147.012 169.914 147.592 168.971 148.336 168.198C149.08 167.426 149.947 166.837 150.935 166.434C151.924 166.031 152.995 165.829 154.148 165.829C155.137 165.829 156.058 165.974 156.91 166.264C157.762 166.548 158.518 166.951 159.177 167.474C159.842 167.997 160.384 168.619 160.805 169.34C161.225 170.056 161.495 170.846 161.614 171.71H157.864ZM164.548 183.522V166.068H171.435C172.753 166.068 173.878 166.303 174.81 166.775C175.747 167.241 176.46 167.903 176.949 168.761C177.443 169.613 177.69 170.616 177.69 171.769C177.69 172.928 177.44 173.926 176.94 174.761C176.44 175.59 175.716 176.227 174.767 176.67C173.824 177.113 172.682 177.335 171.341 177.335H166.73V174.369H170.744C171.449 174.369 172.034 174.272 172.5 174.079C172.966 173.886 173.313 173.596 173.54 173.21C173.773 172.823 173.889 172.343 173.889 171.769C173.889 171.19 173.773 170.701 173.54 170.303C173.313 169.906 172.963 169.604 172.491 169.4C172.026 169.19 171.438 169.085 170.727 169.085H168.239V183.522H164.548ZM173.974 175.579L178.312 183.522H174.239L169.994 175.579H173.974ZM180.298 183.522V166.068H192.06V169.11H183.989V173.269H191.455V176.312H183.989V180.479H192.094V183.522H180.298ZM194.994 183.522V166.068H206.755V169.11H198.684V173.269H206.15V176.312H198.684V180.479H206.789V183.522H194.994ZM224.288 166.068V183.522H221.101L213.507 172.536H213.379V183.522H209.689V166.068H212.928L220.462 177.045H220.615V166.068H224.288Z" fill="#044210"/>
<rect x="34.5" y="160.5" width="29" height="29" rx="2.5" stroke="#044210" stroke-opacity="0.95" stroke-width="5"/>
<rect x="37" y="163" width="24" height="24" fill="#114B1C"/>
<path d="M60.0642 181.537C61.3119 182.784 61.3119 184.8 60.0642 186.043C59.4404 186.666 58.633 187 57.789 187C56.9817 187 56.1743 186.707 55.5505 186.043L49.0183 179.557L42.4862 186.043C41.8624 186.666 41.055 187 40.211 187C39.4037 187 38.5596 186.666 37.9358 186.043C36.6881 184.8 36.6881 182.784 37.9358 181.5L44.4679 175.011L37.9358 168.481C36.6881 167.238 36.6881 165.184 37.9358 163.938C39.1835 162.687 41.2018 162.687 42.4862 163.938L49.0183 170.46L55.5138 163.938C56.7982 162.687 58.8165 162.687 60.0642 163.938C61.3119 165.184 61.3119 167.238 60.0642 168.481L53.5321 175.011L60.0642 181.537Z" fill="white"/>
<path d="M96.9663 205.068H101.517L106.324 216.795H106.529L111.336 205.068H115.887V222.522H112.307V211.161H112.162L107.645 222.437H105.208L100.691 211.119H100.546V222.522H96.9663V205.068ZM118.927 222.522V205.068H125.814C127.132 205.068 128.257 205.303 129.189 205.775C130.126 206.241 130.839 206.903 131.328 207.761C131.822 208.613 132.069 209.616 132.069 210.769C132.069 211.928 131.819 212.926 131.319 213.761C130.819 214.59 130.095 215.227 129.146 215.67C128.203 216.113 127.061 216.335 125.72 216.335H121.109V213.369H125.123C125.828 213.369 126.413 213.272 126.879 213.079C127.345 212.886 127.691 212.596 127.919 212.21C128.152 211.823 128.268 211.343 128.268 210.769C128.268 210.19 128.152 209.701 127.919 209.303C127.691 208.906 127.342 208.604 126.87 208.4C126.404 208.19 125.816 208.085 125.106 208.085H122.618V222.522H118.927ZM128.353 214.579L132.691 222.522H128.618L124.373 214.579H128.353ZM144.146 210.087C144.078 209.4 143.785 208.866 143.268 208.485C142.751 208.104 142.049 207.914 141.163 207.914C140.561 207.914 140.052 207.999 139.637 208.17C139.223 208.335 138.904 208.565 138.683 208.86C138.467 209.156 138.359 209.491 138.359 209.866C138.348 210.178 138.413 210.451 138.555 210.684C138.703 210.917 138.904 211.119 139.16 211.289C139.416 211.454 139.711 211.599 140.047 211.724C140.382 211.843 140.74 211.945 141.12 212.031L142.689 212.406C143.45 212.576 144.149 212.803 144.785 213.087C145.422 213.372 145.973 213.721 146.439 214.136C146.904 214.551 147.265 215.039 147.521 215.602C147.782 216.164 147.916 216.809 147.922 217.536C147.916 218.604 147.643 219.531 147.103 220.315C146.569 221.093 145.797 221.698 144.785 222.13C143.779 222.556 142.566 222.769 141.146 222.769C139.737 222.769 138.51 222.553 137.464 222.122C136.424 221.69 135.612 221.051 135.027 220.204C134.447 219.352 134.143 218.298 134.115 217.042H137.686C137.725 217.627 137.893 218.116 138.189 218.508C138.49 218.894 138.89 219.187 139.39 219.386C139.896 219.579 140.467 219.676 141.103 219.676C141.728 219.676 142.271 219.585 142.731 219.403C143.197 219.221 143.558 218.968 143.814 218.644C144.069 218.32 144.197 217.948 144.197 217.528C144.197 217.136 144.081 216.806 143.848 216.539C143.62 216.272 143.285 216.045 142.842 215.857C142.404 215.67 141.868 215.499 141.231 215.346L139.331 214.869C137.859 214.511 136.697 213.951 135.845 213.19C134.993 212.428 134.569 211.403 134.575 210.113C134.569 209.056 134.85 208.133 135.419 207.343C135.993 206.553 136.779 205.937 137.779 205.494C138.779 205.051 139.916 204.829 141.189 204.829C142.484 204.829 143.615 205.051 144.581 205.494C145.552 205.937 146.308 206.553 146.848 207.343C147.387 208.133 147.666 209.048 147.683 210.087H144.146ZM152.458 222.744C151.895 222.744 151.412 222.545 151.009 222.147C150.611 221.744 150.412 221.261 150.412 220.698C150.412 220.141 150.611 219.664 151.009 219.266C151.412 218.869 151.895 218.67 152.458 218.67C153.003 218.67 153.48 218.869 153.89 219.266C154.299 219.664 154.503 220.141 154.503 220.698C154.503 221.073 154.407 221.417 154.213 221.729C154.026 222.036 153.779 222.283 153.472 222.471C153.165 222.653 152.827 222.744 152.458 222.744ZM162.287 222.522V205.068H169.173C170.497 205.068 171.625 205.32 172.556 205.826C173.488 206.326 174.199 207.022 174.687 207.914C175.181 208.801 175.429 209.823 175.429 210.982C175.429 212.141 175.179 213.164 174.679 214.051C174.179 214.937 173.454 215.627 172.505 216.122C171.562 216.616 170.42 216.863 169.079 216.863H164.69V213.906H168.483C169.193 213.906 169.778 213.783 170.238 213.539C170.704 213.289 171.051 212.945 171.278 212.508C171.511 212.065 171.627 211.556 171.627 210.982C171.627 210.403 171.511 209.897 171.278 209.465C171.051 209.028 170.704 208.69 170.238 208.451C169.772 208.207 169.181 208.085 168.466 208.085H165.977V222.522H162.287ZM177.826 222.522V205.068H189.587V208.11H181.516V212.269H188.982V215.312H181.516V219.479H189.621V222.522H177.826ZM195.529 222.522H191.575L197.6 205.068H202.356L208.373 222.522H204.419L200.047 209.056H199.91L195.529 222.522ZM195.282 215.661H204.623V218.542H195.282V215.661ZM225.054 211.178H221.321C221.253 210.695 221.114 210.266 220.904 209.891C220.694 209.511 220.424 209.187 220.094 208.92C219.765 208.653 219.384 208.448 218.952 208.306C218.526 208.164 218.063 208.093 217.563 208.093C216.659 208.093 215.873 208.318 215.202 208.766C214.532 209.21 214.012 209.857 213.642 210.71C213.273 211.556 213.088 212.585 213.088 213.795C213.088 215.039 213.273 216.085 213.642 216.931C214.017 217.778 214.54 218.417 215.211 218.849C215.881 219.281 216.657 219.497 217.537 219.497C218.032 219.497 218.489 219.431 218.909 219.301C219.336 219.17 219.713 218.979 220.043 218.729C220.373 218.474 220.645 218.164 220.861 217.801C221.083 217.437 221.236 217.022 221.321 216.556L225.054 216.573C224.958 217.374 224.716 218.147 224.33 218.891C223.949 219.63 223.435 220.292 222.787 220.877C222.145 221.457 221.378 221.917 220.486 222.258C219.6 222.593 218.597 222.761 217.478 222.761C215.921 222.761 214.529 222.408 213.301 221.704C212.08 220.999 211.114 219.979 210.404 218.644C209.699 217.309 209.347 215.693 209.347 213.795C209.347 211.891 209.705 210.272 210.421 208.937C211.137 207.602 212.108 206.585 213.336 205.886C214.563 205.181 215.944 204.829 217.478 204.829C218.489 204.829 219.426 204.971 220.29 205.255C221.159 205.539 221.929 205.954 222.6 206.499C223.27 207.039 223.816 207.701 224.236 208.485C224.662 209.269 224.935 210.167 225.054 211.178ZM243.74 213.795C243.74 215.698 243.38 217.318 242.658 218.653C241.942 219.988 240.965 221.008 239.726 221.712C238.493 222.411 237.107 222.761 235.567 222.761C234.016 222.761 232.624 222.408 231.391 221.704C230.158 220.999 229.184 219.979 228.468 218.644C227.752 217.309 227.394 215.693 227.394 213.795C227.394 211.891 227.752 210.272 228.468 208.937C229.184 207.602 230.158 206.585 231.391 205.886C232.624 205.181 234.016 204.829 235.567 204.829C237.107 204.829 238.493 205.181 239.726 205.886C240.965 206.585 241.942 207.602 242.658 208.937C243.38 210.272 243.74 211.891 243.74 213.795ZM239.999 213.795C239.999 212.562 239.814 211.522 239.445 210.676C239.081 209.829 238.567 209.187 237.902 208.749C237.238 208.312 236.459 208.093 235.567 208.093C234.675 208.093 233.897 208.312 233.232 208.749C232.567 209.187 232.05 209.829 231.681 210.676C231.317 211.522 231.135 212.562 231.135 213.795C231.135 215.028 231.317 216.068 231.681 216.914C232.05 217.761 232.567 218.403 233.232 218.84C233.897 219.278 234.675 219.497 235.567 219.497C236.459 219.497 237.238 219.278 237.902 218.84C238.567 218.403 239.081 217.761 239.445 216.914C239.814 216.068 239.999 215.028 239.999 213.795ZM261.875 211.178H258.142C258.074 210.695 257.934 210.266 257.724 209.891C257.514 209.511 257.244 209.187 256.914 208.92C256.585 208.653 256.204 208.448 255.772 208.306C255.346 208.164 254.883 208.093 254.383 208.093C253.48 208.093 252.693 208.318 252.022 208.766C251.352 209.21 250.832 209.857 250.463 210.71C250.093 211.556 249.909 212.585 249.909 213.795C249.909 215.039 250.093 216.085 250.463 216.931C250.838 217.778 251.36 218.417 252.031 218.849C252.701 219.281 253.477 219.497 254.358 219.497C254.852 219.497 255.309 219.431 255.73 219.301C256.156 219.17 256.534 218.979 256.863 218.729C257.193 218.474 257.466 218.164 257.681 217.801C257.903 217.437 258.056 217.022 258.142 216.556L261.875 216.573C261.778 217.374 261.537 218.147 261.15 218.891C260.77 219.63 260.255 220.292 259.608 220.877C258.966 221.457 258.199 221.917 257.306 222.258C256.42 222.593 255.417 222.761 254.298 222.761C252.741 222.761 251.349 222.408 250.122 221.704C248.9 220.999 247.934 219.979 247.224 218.644C246.52 217.309 246.167 215.693 246.167 213.795C246.167 211.891 246.525 210.272 247.241 208.937C247.957 207.602 248.929 206.585 250.156 205.886C251.383 205.181 252.764 204.829 254.298 204.829C255.309 204.829 256.247 204.971 257.11 205.255C257.98 205.539 258.75 205.954 259.42 206.499C260.091 207.039 260.636 207.701 261.056 208.485C261.483 209.269 261.755 210.167 261.875 211.178ZM264.521 222.522V205.068H268.211V212.764H268.441L274.723 205.068H279.146L272.669 212.883L279.223 222.522H274.808L270.027 215.346L268.211 217.562V222.522H264.521Z" fill="#044210"/>
<rect x="34.5" y="199.5" width="29" height="29" rx="2.5" stroke="#044210" stroke-opacity="0.95" stroke-width="5"/>
<rect x="37" y="202" width="24" height="24" fill="#114B1C"/>
<path d="M60.0642 220.537C61.3119 221.784 61.3119 223.8 60.0642 225.043C59.4404 225.666 58.633 226 57.789 226C56.9817 226 56.1743 225.707 55.5505 225.043L49.0183 218.557L42.4862 225.043C41.8624 225.666 41.055 226 40.211 226C39.4037 226 38.5596 225.666 37.9358 225.043C36.6881 223.8 36.6881 221.784 37.9358 220.5L44.4679 214.011L37.9358 207.481C36.6881 206.238 36.6881 204.184 37.9358 202.938C39.1835 201.687 41.2018 201.687 42.4862 202.938L49.0183 209.46L55.5138 202.938C56.7982 201.687 58.8165 201.687 60.0642 202.938C61.3119 204.184 61.3119 206.238 60.0642 207.481L53.5321 214.011L60.0642 220.537Z" fill="white"/>
<path d="M96.9233 244.068H101.474L106.281 255.795H106.486L111.293 244.068H115.844V261.522H112.264V250.161H112.119L107.602 261.437H105.165L100.648 250.119H100.503V261.522H96.9233V244.068ZM122.575 244.068V261.522H118.884V244.068H122.575ZM135.08 249.087C135.011 248.4 134.719 247.866 134.202 247.485C133.685 247.104 132.983 246.914 132.097 246.914C131.494 246.914 130.986 246.999 130.571 247.17C130.156 247.335 129.838 247.565 129.616 247.86C129.401 248.156 129.293 248.491 129.293 248.866C129.281 249.178 129.347 249.451 129.489 249.684C129.636 249.917 129.838 250.119 130.094 250.289C130.349 250.454 130.645 250.599 130.98 250.724C131.315 250.843 131.673 250.945 132.054 251.031L133.622 251.406C134.384 251.576 135.082 251.803 135.719 252.087C136.355 252.372 136.906 252.721 137.372 253.136C137.838 253.551 138.199 254.039 138.455 254.602C138.716 255.164 138.849 255.809 138.855 256.536C138.849 257.604 138.577 258.531 138.037 259.315C137.503 260.093 136.73 260.698 135.719 261.13C134.713 261.556 133.5 261.769 132.08 261.769C130.67 261.769 129.443 261.553 128.398 261.122C127.358 260.69 126.545 260.051 125.96 259.204C125.381 258.352 125.077 257.298 125.048 256.042H128.619C128.659 256.627 128.827 257.116 129.122 257.508C129.423 257.894 129.824 258.187 130.324 258.386C130.83 258.579 131.401 258.676 132.037 258.676C132.662 258.676 133.205 258.585 133.665 258.403C134.131 258.221 134.491 257.968 134.747 257.644C135.003 257.32 135.131 256.948 135.131 256.528C135.131 256.136 135.014 255.806 134.781 255.539C134.554 255.272 134.219 255.045 133.776 254.857C133.338 254.67 132.801 254.499 132.165 254.346L130.264 253.869C128.793 253.511 127.631 252.951 126.778 252.19C125.926 251.428 125.503 250.403 125.509 249.113C125.503 248.056 125.784 247.133 126.352 246.343C126.926 245.553 127.713 244.937 128.713 244.494C129.713 244.051 130.849 243.829 132.122 243.829C133.418 243.829 134.548 244.051 135.514 244.494C136.486 244.937 137.241 245.553 137.781 246.343C138.321 247.133 138.599 248.048 138.616 249.087H135.08ZM150.806 249.087C150.738 248.4 150.445 247.866 149.928 247.485C149.411 247.104 148.71 246.914 147.823 246.914C147.221 246.914 146.712 246.999 146.298 247.17C145.883 247.335 145.565 247.565 145.343 247.86C145.127 248.156 145.019 248.491 145.019 248.866C145.008 249.178 145.073 249.451 145.215 249.684C145.363 249.917 145.565 250.119 145.82 250.289C146.076 250.454 146.371 250.599 146.707 250.724C147.042 250.843 147.4 250.945 147.781 251.031L149.349 251.406C150.11 251.576 150.809 251.803 151.445 252.087C152.082 252.372 152.633 252.721 153.099 253.136C153.565 253.551 153.925 254.039 154.181 254.602C154.442 255.164 154.576 255.809 154.582 256.536C154.576 257.604 154.303 258.531 153.763 259.315C153.229 260.093 152.457 260.698 151.445 261.13C150.44 261.556 149.227 261.769 147.806 261.769C146.397 261.769 145.17 261.553 144.124 261.122C143.085 260.69 142.272 260.051 141.687 259.204C141.107 258.352 140.803 257.298 140.775 256.042H144.346C144.386 256.627 144.553 257.116 144.849 257.508C145.15 257.894 145.55 258.187 146.05 258.386C146.556 258.579 147.127 258.676 147.763 258.676C148.388 258.676 148.931 258.585 149.391 258.403C149.857 258.221 150.218 257.968 150.474 257.644C150.729 257.32 150.857 256.948 150.857 256.528C150.857 256.136 150.741 255.806 150.508 255.539C150.281 255.272 149.945 255.045 149.502 254.857C149.065 254.67 148.528 254.499 147.891 254.346L145.991 253.869C144.519 253.511 143.357 252.951 142.505 252.19C141.653 251.428 141.229 250.403 141.235 249.113C141.229 248.056 141.511 247.133 142.079 246.343C142.653 245.553 143.44 244.937 144.44 244.494C145.44 244.051 146.576 243.829 147.849 243.829C149.144 243.829 150.275 244.051 151.241 244.494C152.212 244.937 152.968 245.553 153.508 246.343C154.048 247.133 154.326 248.048 154.343 249.087H150.806ZM172.087 249.087C172.019 248.4 171.727 247.866 171.21 247.485C170.692 247.104 169.991 246.914 169.104 246.914C168.502 246.914 167.994 246.999 167.579 247.17C167.164 247.335 166.846 247.565 166.624 247.86C166.408 248.156 166.3 248.491 166.3 248.866C166.289 249.178 166.354 249.451 166.496 249.684C166.644 249.917 166.846 250.119 167.102 250.289C167.357 250.454 167.653 250.599 167.988 250.724C168.323 250.843 168.681 250.945 169.062 251.031L170.63 251.406C171.391 251.576 172.09 251.803 172.727 252.087C173.363 252.372 173.914 252.721 174.38 253.136C174.846 253.551 175.207 254.039 175.462 254.602C175.724 255.164 175.857 255.809 175.863 256.536C175.857 257.604 175.585 258.531 175.045 259.315C174.511 260.093 173.738 260.698 172.727 261.13C171.721 261.556 170.508 261.769 169.087 261.769C167.678 261.769 166.451 261.553 165.406 261.122C164.366 260.69 163.553 260.051 162.968 259.204C162.388 258.352 162.085 257.298 162.056 256.042H165.627C165.667 256.627 165.835 257.116 166.13 257.508C166.431 257.894 166.832 258.187 167.332 258.386C167.837 258.579 168.408 258.676 169.045 258.676C169.67 258.676 170.212 258.585 170.673 258.403C171.138 258.221 171.499 257.968 171.755 257.644C172.011 257.32 172.138 256.948 172.138 256.528C172.138 256.136 172.022 255.806 171.789 255.539C171.562 255.272 171.227 255.045 170.783 254.857C170.346 254.67 169.809 254.499 169.173 254.346L167.272 253.869C165.8 253.511 164.638 252.951 163.786 252.19C162.934 251.428 162.511 250.403 162.516 249.113C162.511 248.056 162.792 247.133 163.36 246.343C163.934 245.553 164.721 244.937 165.721 244.494C166.721 244.051 167.857 243.829 169.13 243.829C170.425 243.829 171.556 244.051 172.522 244.494C173.494 244.937 174.249 245.553 174.789 246.343C175.329 247.133 175.607 248.048 175.624 249.087H172.087ZM193.746 250.178H190.013C189.945 249.695 189.805 249.266 189.595 248.891C189.385 248.511 189.115 248.187 188.786 247.92C188.456 247.653 188.075 247.448 187.643 247.306C187.217 247.164 186.754 247.093 186.254 247.093C185.351 247.093 184.564 247.318 183.893 247.766C183.223 248.21 182.703 248.857 182.334 249.71C181.964 250.556 181.78 251.585 181.78 252.795C181.78 254.039 181.964 255.085 182.334 255.931C182.709 256.778 183.232 257.417 183.902 257.849C184.572 258.281 185.348 258.497 186.229 258.497C186.723 258.497 187.18 258.431 187.601 258.301C188.027 258.17 188.405 257.979 188.734 257.729C189.064 257.474 189.337 257.164 189.553 256.801C189.774 256.437 189.928 256.022 190.013 255.556L193.746 255.573C193.649 256.374 193.408 257.147 193.021 257.891C192.641 258.63 192.126 259.292 191.479 259.877C190.837 260.457 190.07 260.917 189.178 261.258C188.291 261.593 187.288 261.761 186.169 261.761C184.612 261.761 183.22 261.408 181.993 260.704C180.771 259.999 179.805 258.979 179.095 257.644C178.391 256.309 178.038 254.693 178.038 252.795C178.038 250.891 178.396 249.272 179.112 247.937C179.828 246.602 180.8 245.585 182.027 244.886C183.254 244.181 184.635 243.829 186.169 243.829C187.18 243.829 188.118 243.971 188.982 244.255C189.851 244.539 190.621 244.954 191.291 245.499C191.962 246.039 192.507 246.701 192.928 247.485C193.354 248.269 193.626 249.167 193.746 250.178ZM199.072 261.522H195.118L201.143 244.068H205.899L211.916 261.522H207.962L203.589 248.056H203.453L199.072 261.522ZM198.825 254.661H208.166V257.542H198.825V254.661ZM214.017 261.522V244.068H220.903C222.222 244.068 223.347 244.303 224.278 244.775C225.216 245.241 225.929 245.903 226.418 246.761C226.912 247.613 227.159 248.616 227.159 249.769C227.159 250.928 226.909 251.926 226.409 252.761C225.909 253.59 225.185 254.227 224.236 254.67C223.293 255.113 222.151 255.335 220.81 255.335H216.199V252.369H220.213C220.918 252.369 221.503 252.272 221.969 252.079C222.435 251.886 222.781 251.596 223.009 251.21C223.241 250.823 223.358 250.343 223.358 249.769C223.358 249.19 223.241 248.701 223.009 248.303C222.781 247.906 222.432 247.604 221.96 247.4C221.494 247.19 220.906 247.085 220.196 247.085H217.707V261.522H214.017ZM223.443 253.579L227.781 261.522H223.707L219.463 253.579H223.443ZM229.767 261.522V244.068H233.457V258.479H240.94V261.522H229.767ZM243.384 261.522V244.068H255.146V247.11H247.075V251.269H254.54V254.312H247.075V258.479H255.18V261.522H243.384ZM257.415 247.11V244.068H271.75V247.11H266.406V261.522H262.759V247.11H257.415Z" fill="#044210"/>
<rect x="34.5" y="238.5" width="29" height="29" rx="2.5" stroke="#044210" stroke-opacity="0.95" stroke-width="5"/>
<rect x="37" y="241" width="24" height="24" fill="#114B1C"/>
<path d="M60.0642 259.537C61.3119 260.784 61.3119 262.8 60.0642 264.043C59.4404 264.666 58.633 265 57.789 265C56.9817 265 56.1743 264.707 55.5505 264.043L49.0183 257.557L42.4862 264.043C41.8624 264.666 41.055 265 40.211 265C39.4037 265 38.5596 264.666 37.9358 264.043C36.6881 262.8 36.6881 260.784 37.9358 259.5L44.4679 253.011L37.9358 246.481C36.6881 245.238 36.6881 243.184 37.9358 241.938C39.1835 240.687 41.2018 240.687 42.4862 241.938L49.0183 248.46L55.5138 241.938C56.7982 240.687 58.8165 240.687 60.0642 241.938C61.3119 243.184 61.3119 245.238 60.0642 246.481L53.5321 253.011L60.0642 259.537Z" fill="white"/>
<path d="M96.7436 283.068H101.295L106.102 294.795H106.306L111.113 283.068H115.664V300.522H112.085V289.161H111.94L107.423 300.437H104.985L100.468 289.119H100.323V300.522H96.7436V283.068ZM118.705 300.522V283.068H125.591C126.909 283.068 128.034 283.303 128.966 283.775C129.903 284.241 130.616 284.903 131.105 285.761C131.599 286.613 131.847 287.616 131.847 288.769C131.847 289.928 131.597 290.926 131.097 291.761C130.597 292.59 129.872 293.227 128.923 293.67C127.98 294.113 126.838 294.335 125.497 294.335H120.886V291.369H124.901C125.605 291.369 126.19 291.272 126.656 291.079C127.122 290.886 127.469 290.596 127.696 290.21C127.929 289.823 128.045 289.343 128.045 288.769C128.045 288.19 127.929 287.701 127.696 287.303C127.469 286.906 127.119 286.604 126.648 286.4C126.182 286.19 125.594 286.085 124.884 286.085H122.395V300.522H118.705ZM128.131 292.579L132.469 300.522H128.395L124.151 292.579H128.131ZM143.923 288.087C143.855 287.4 143.563 286.866 143.045 286.485C142.528 286.104 141.827 285.914 140.94 285.914C140.338 285.914 139.83 285.999 139.415 286.17C139 286.335 138.682 286.565 138.46 286.86C138.244 287.156 138.136 287.491 138.136 287.866C138.125 288.178 138.19 288.451 138.332 288.684C138.48 288.917 138.682 289.119 138.938 289.289C139.193 289.454 139.489 289.599 139.824 289.724C140.159 289.843 140.517 289.945 140.898 290.031L142.466 290.406C143.227 290.576 143.926 290.803 144.562 291.087C145.199 291.372 145.75 291.721 146.216 292.136C146.682 292.551 147.043 293.039 147.298 293.602C147.56 294.164 147.693 294.809 147.699 295.536C147.693 296.604 147.42 297.531 146.881 298.315C146.347 299.093 145.574 299.698 144.562 300.13C143.557 300.556 142.344 300.769 140.923 300.769C139.514 300.769 138.287 300.553 137.241 300.122C136.202 299.69 135.389 299.051 134.804 298.204C134.224 297.352 133.92 296.298 133.892 295.042H137.463C137.503 295.627 137.67 296.116 137.966 296.508C138.267 296.894 138.668 297.187 139.168 297.386C139.673 297.579 140.244 297.676 140.881 297.676C141.506 297.676 142.048 297.585 142.509 297.403C142.974 297.221 143.335 296.968 143.591 296.644C143.847 296.32 143.974 295.948 143.974 295.528C143.974 295.136 143.858 294.806 143.625 294.539C143.398 294.272 143.063 294.045 142.619 293.857C142.182 293.67 141.645 293.499 141.009 293.346L139.108 292.869C137.636 292.511 136.474 291.951 135.622 291.19C134.77 290.428 134.347 289.403 134.352 288.113C134.347 287.056 134.628 286.133 135.196 285.343C135.77 284.553 136.557 283.937 137.557 283.494C138.557 283.051 139.693 282.829 140.966 282.829C142.261 282.829 143.392 283.051 144.358 283.494C145.33 283.937 146.085 284.553 146.625 285.343C147.165 286.133 147.443 287.048 147.46 288.087H143.923ZM152.235 300.744C151.673 300.744 151.19 300.545 150.786 300.147C150.388 299.744 150.19 299.261 150.19 298.698C150.19 298.141 150.388 297.664 150.786 297.266C151.19 296.869 151.673 296.67 152.235 296.67C152.781 296.67 153.258 296.869 153.667 297.266C154.076 297.664 154.281 298.141 154.281 298.698C154.281 299.073 154.184 299.417 153.991 299.729C153.803 300.036 153.556 300.283 153.249 300.471C152.942 300.653 152.604 300.744 152.235 300.744ZM165.993 300.522L160.999 283.068H165.03L167.919 295.195H168.064L171.251 283.068H174.703L177.882 295.221H178.036L180.925 283.068H184.956L179.962 300.522H176.365L173.041 289.11H172.905L169.589 300.522H165.993ZM186.931 300.522V283.068H190.621V290.269H198.113V283.068H201.795V300.522H198.113V293.312H190.621V300.522H186.931ZM208.528 283.068V300.522H204.837V283.068H208.528ZM210.899 286.11V283.068H225.234V286.11H219.891V300.522H216.243V286.11H210.899ZM227.595 300.522V283.068H239.357V286.11H231.286V290.269H238.751V293.312H231.286V297.479H239.391V300.522H227.595Z" fill="#044210"/>
<rect x="34.5" y="277.5" width="29" height="29" rx="2.5" stroke="#044210" stroke-opacity="0.95" stroke-width="5"/>
<rect x="37" y="280" width="24" height="24" fill="#114B1C"/>
<path d="M60.0642 298.537C61.3119 299.784 61.3119 301.8 60.0642 303.043C59.4404 303.666 58.633 304 57.789 304C56.9817 304 56.1743 303.707 55.5505 303.043L49.0183 296.557L42.4862 303.043C41.8624 303.666 41.055 304 40.211 304C39.4037 304 38.5596 303.666 37.9358 303.043C36.6881 301.8 36.6881 299.784 37.9358 298.5L44.4679 292.011L37.9358 285.481C36.6881 284.238 36.6881 282.184 37.9358 280.938C39.1835 279.687 41.2018 279.687 42.4862 280.938L49.0183 287.46L55.5138 280.938C56.7982 279.687 58.8165 279.687 60.0642 280.938C61.3119 282.184 61.3119 284.238 60.0642 285.481L53.5321 292.011L60.0642 298.537Z" fill="white"/>
</svg>
