<?xml version="1.0" standalone="no"?>
<!DOCTYPE svg PUBLIC "-//W3C//DTD SVG 20010904//EN"
 "http://www.w3.org/TR/2001/REC-SVG-20010904/DTD/svg10.dtd">
<svg version="1.0" xmlns="http://www.w3.org/2000/svg"
 width="512.000000pt" height="512.000000pt" viewBox="0 0 512.000000 512.000000"
 preserveAspectRatio="xMidYMid meet">

<g transform="translate(0.000000,512.000000) scale(0.100000,-0.100000)"
fill="#000000" stroke="none">
<path d="M521 4944 c-169 -45 -301 -180 -346 -351 -23 -86 -23 -3980 0 -4066
45 -173 178 -307 350 -352 43 -11 111 -15 247 -15 l188 0 0 748 c0 639 2 756
15 807 45 172 179 305 352 350 87 23 2380 22 2468 0 172 -45 305 -179 350
-352 13 -48 15 -174 15 -805 l0 -748 188 0 c136 0 204 4 247 15 172 45 305
179 350 352 22 83 23 3326 1 3376 -18 41 -1012 1033 -1049 1047 -16 5 -106 10
-202 10 l-174 0 -3 -682 -3 -683 -27 -51 c-40 -76 -70 -107 -140 -145 l-63
-34 -725 0 -725 0 -63 34 c-69 37 -109 79 -144 151 l-23 45 -3 683 -3 682
-512 -1 c-414 0 -522 -3 -566 -15z"/>
<path d="M1920 4320 l0 -640 640 0 640 0 0 640 0 640 -640 0 -640 0 0 -640z"/>
<path d="M1375 1746 c-37 -16 -70 -52 -84 -89 -8 -19 -11 -267 -11 -763 l0
-734 1280 0 1280 0 -2 749 c-3 739 -3 750 -24 777 -11 15 -33 37 -48 48 -27
21 -33 21 -1194 23 -957 2 -1172 0 -1197 -11z"/>
</g>
</svg>
