<svg width="59" height="59" viewBox="0 0 59 59" fill="none" xmlns="http://www.w3.org/2000/svg">
<path d="M46.7378 0.167704C45.4447 0.479445 44.7288 0.952829 43.0893 2.56926L41.5537 4.08178L48.2619 10.7784L54.9586 17.4751L56.2979 16.1473C58.4339 14.0459 58.9997 12.9491 58.9997 10.9632C58.9997 9.83167 58.8034 9.035 58.2723 8.00741C57.7527 6.99137 51.9913 1.22993 50.9637 0.698818C49.659 0.0176067 48.1234 -0.178675 46.7378 0.167704Z" fill="#474747" fill-opacity="0.7"/>
<path d="M23.5531 22.0936L7.33105 38.3157L14.0277 45.0123L20.7244 51.709L36.9464 35.4869L53.1685 19.2648L46.4719 12.5682L39.7752 5.87152L23.5531 22.0936Z" fill="#474747" fill-opacity="0.7"/>
<path d="M3.02504 49.8387C1.36242 54.8381 0 58.96 0 59.0062C0 59.0408 4.13345 57.7015 9.19058 56.0158L18.3812 52.9561L12.2849 46.8483C8.92503 43.4884 6.154 40.7405 6.11936 40.7405C6.08472 40.7405 4.69921 44.8277 3.02504 49.8387Z" fill="#474747" fill-opacity="0.7"/>
</svg>
