<svg width="49" height="59" viewBox="0 0 49 59" fill="none" xmlns="http://www.w3.org/2000/svg">
<path d="M1.94032 0.134891C1.3286 0.354186 0.993889 0.596566 0.636091 1.05824C-0.0333379 1.94697 0.00128773 0.181058 0.00128773 29.6936C0.00128773 59.9795 -0.0679635 57.5096 0.809219 58.306C1.0516 58.5253 1.47865 58.7792 1.75565 58.86C2.15962 58.9754 6.52245 59.01 24.3547 59.01H46.4573L46.9421 58.7561C47.5654 58.4214 48.0963 57.7635 48.304 57.0594C48.5695 56.1938 48.5695 2.84723 48.304 1.98159C48.0963 1.27754 47.5654 0.61965 46.9421 0.284935L46.4573 0.0310138L24.4124 0.00793008C6.22236 -0.0151537 2.28658 0.00793008 1.94032 0.134891ZM42.914 29.4628C42.8794 42.6436 42.8332 53.4468 42.7986 53.4699C42.7639 53.5045 36.2543 53.5161 28.3251 53.5045L13.9208 53.4699L21.6423 49.3379C29.9294 44.9058 30.1371 44.7673 30.4488 43.7516C30.5526 43.3938 30.5873 38.7078 30.5873 24.4767C30.5873 14.1352 30.6219 5.62882 30.6681 5.5942C30.7027 5.54803 33.4958 5.51341 36.8545 5.51341H42.9717L42.914 29.4628ZM19.5532 22.7339C19.8302 22.8147 20.2573 23.1032 20.5689 23.4033C21.3884 24.1997 21.4923 24.7075 21.4461 27.593C21.4115 29.9129 21.4115 29.9245 21.0768 30.5247C20.1534 32.1867 17.9489 32.4868 16.6678 31.1133C15.9175 30.3284 15.8829 30.1553 15.8367 27.593C15.8021 25.7002 15.8252 25.1461 15.9752 24.6268C16.4254 23.0917 17.9835 22.2722 19.5532 22.7339Z" fill="#737373"/>
</svg>
