<svg width="679" height="277" viewBox="0 0 679 277" fill="none" xmlns="http://www.w3.org/2000/svg">
<path d="M220.499 57.092C152.01 -16.608 1.85889 7.08119 1.85889 145.708C11.5177 286.089 159.034 290.476 220.499 226.427L165.181 175.539C137.96 210.634 74.7391 189.577 74.7391 145.708C74.7391 94.8195 134.448 68.498 166.937 109.735L220.499 57.092Z" fill="white"/>
<path d="M302.16 249.239L227.524 275.56V29.8931L302.16 1.81689V249.239Z" fill="white"/>
<path d="M314.453 79.9039H385.578V191.331C385.578 195.133 388.036 202.562 397.871 201.86C407.705 201.158 408.993 194.548 408.407 191.331V79.9039H477.775V199.228C476.019 217.36 461.092 258.012 397.871 260.645C337.95 263.139 317.38 222.04 314.453 199.228V79.9039Z" fill="white"/>
<path fill-rule="evenodd" clip-rule="evenodd" d="M562.992 189.978L677.141 151.374C667.19 120.665 631.482 63.6353 573.529 74.1639C499.489 87.6151 487.477 127.684 488.355 174.185C489.233 220.687 540.162 259.291 573.529 259.291C606.895 259.291 654.311 240.866 673.629 196.12L619.188 175.94C609.237 191.733 584.065 216.651 562.992 189.978ZM600.749 136.458L548.064 155.761C548.064 148.157 552.385 134.598 567.382 130.316C567.571 130.262 567.759 130.209 567.945 130.156C579.84 126.756 585.187 125.228 600.749 136.458Z" fill="white"/>
<path d="M220.499 57.092C152.01 -16.608 1.85889 7.08119 1.85889 145.708C11.5177 286.089 159.034 290.476 220.499 226.427L165.181 175.539C137.96 210.634 74.7391 189.577 74.7391 145.708C74.7391 94.8195 134.448 68.498 166.937 109.735L220.499 57.092Z" stroke="black" stroke-width="2"/>
<path d="M302.16 249.239L227.524 275.56V29.8931L302.16 1.81689V249.239Z" stroke="black" stroke-width="2"/>
<path d="M314.453 79.9039H385.578V191.331C385.578 195.133 388.036 202.562 397.871 201.86C407.705 201.158 408.993 194.548 408.407 191.331V79.9039H477.775V199.228C476.019 217.36 461.092 258.012 397.871 260.645C337.95 263.139 317.38 222.04 314.453 199.228V79.9039Z" stroke="black" stroke-width="2"/>
<path fill-rule="evenodd" clip-rule="evenodd" d="M562.992 189.978L677.141 151.374C667.19 120.665 631.482 63.6353 573.529 74.1639C499.489 87.6151 487.477 127.684 488.355 174.185C489.233 220.687 540.162 259.291 573.529 259.291C606.895 259.291 654.311 240.866 673.629 196.12L619.188 175.94C609.237 191.733 584.065 216.651 562.992 189.978ZM600.749 136.458L548.064 155.761C548.064 148.157 552.385 134.598 567.382 130.316C567.571 130.262 567.759 130.209 567.945 130.156C579.84 126.756 585.187 125.228 600.749 136.458Z" stroke="black" stroke-width="2"/>
</svg>
