<svg width="420" height="491" viewBox="0 0 420 491" fill="none" xmlns="http://www.w3.org/2000/svg">
<path d="M0 0.5439V490.522H420V61.7717H240.22C240.22 -2.45883 240.22 0.543926 175.171 0.543926L0 0.5439Z" fill="white"/>
<path d="M240.22 64.2717H417.5V488.022H2.5V3.0439L175.171 3.04393C178.1 3.04393 180.891 3.03798 183.551 3.03231C195.738 3.00634 205.178 2.98623 212.58 3.57059C221.643 4.28601 227.009 5.88043 230.421 8.93413C233.783 11.9433 235.722 16.8088 236.72 25.396C237.715 33.9679 237.72 45.6481 237.72 61.7717V64.2717H240.22Z" stroke="#044210" stroke-opacity="0.95" stroke-width="5"/>
<path d="M31.2667 49.522L23.7752 23.3402H29.8221L34.1559 41.5319H34.3732L39.1545 23.3402H44.332L49.1005 41.5703H49.3306L53.6644 23.3402H59.7113L52.2198 49.522H46.8249L41.8391 32.4041H41.6346L36.6616 49.522H31.2667ZM62.674 49.522V23.3402H80.3161V27.9041H68.2095V34.1427H79.4084V38.7066H68.2095V44.9581H80.3672V49.522H62.674ZM89.2298 49.522H83.2979L92.3363 23.3402H99.4698L108.495 49.522H102.564L96.0053 29.3231H95.8008L89.2298 49.522ZM88.859 39.2308H102.87V43.5518H88.859V39.2308ZM111.647 49.522V23.3402H121.976C123.962 23.3402 125.654 23.7194 127.051 24.4779C128.449 25.2279 129.515 26.272 130.248 27.61C130.989 28.9396 131.36 30.4737 131.36 32.2123C131.36 33.9509 130.985 35.485 130.235 36.8146C129.485 38.1441 128.398 39.1796 126.975 39.9211C125.56 40.6626 123.847 41.0333 121.836 41.0333H115.252V36.5973H120.941C122.006 36.5973 122.884 36.414 123.574 36.0475C124.273 35.6725 124.793 35.1569 125.134 34.5007C125.483 33.8359 125.658 33.0731 125.658 32.2123C125.658 31.343 125.483 30.5845 125.134 29.9367C124.793 29.2805 124.273 28.7734 123.574 28.4154C122.875 28.049 121.989 27.8657 120.915 27.8657H117.182V49.522H111.647ZM159.015 36.4311C159.015 39.2862 158.474 41.7152 157.391 43.718C156.317 45.7208 154.852 47.2507 152.994 48.3075C151.144 49.3558 149.065 49.8799 146.755 49.8799C144.428 49.8799 142.34 49.3515 140.491 48.2947C138.641 47.2379 137.18 45.7081 136.106 43.7052C135.032 41.7024 134.495 39.2777 134.495 36.4311C134.495 33.5759 135.032 31.147 136.106 29.1441C137.18 27.1413 138.641 25.6157 140.491 24.5674C142.34 23.5106 144.428 22.9822 146.755 22.9822C149.065 22.9822 151.144 23.5106 152.994 24.5674C154.852 25.6157 156.317 27.1413 157.391 29.1441C158.474 31.147 159.015 33.5759 159.015 36.4311ZM153.403 36.4311C153.403 34.5816 153.126 33.022 152.572 31.7521C152.026 30.4822 151.255 29.5191 150.258 28.8629C149.261 28.2066 148.093 27.8785 146.755 27.8785C145.417 27.8785 144.249 28.2066 143.252 28.8629C142.255 29.5191 141.479 30.4822 140.925 31.7521C140.38 33.022 140.107 34.5816 140.107 36.4311C140.107 38.2805 140.38 39.8402 140.925 41.11C141.479 42.3799 142.255 43.343 143.252 43.9992C144.249 44.6555 145.417 44.9836 146.755 44.9836C148.093 44.9836 149.261 44.6555 150.258 43.9992C151.255 43.343 152.026 42.3799 152.572 41.11C153.126 39.8402 153.403 38.2805 153.403 36.4311ZM185.015 23.3402V49.522H180.233L168.843 33.0433H168.651V49.522H163.115V23.3402H167.973L179.275 39.8061H179.505V23.3402H185.015ZM203.791 30.87C203.689 29.8387 203.25 29.0376 202.474 28.4666C201.699 27.8956 200.646 27.61 199.317 27.61C198.413 27.61 197.651 27.7379 197.028 27.9936C196.406 28.2407 195.929 28.5859 195.597 29.0291C195.273 29.4723 195.111 29.9751 195.111 30.5376C195.094 31.0063 195.192 31.4154 195.405 31.7649C195.626 32.1143 195.929 32.4169 196.312 32.6725C196.696 32.9197 197.139 33.137 197.642 33.3245C198.145 33.5035 198.682 33.6569 199.253 33.7848L201.605 34.3473C202.747 34.6029 203.795 34.9438 204.75 35.37C205.705 35.7961 206.531 36.3203 207.23 36.9424C207.929 37.5646 208.47 38.2975 208.854 39.1413C209.246 39.985 209.446 40.9524 209.455 42.0433C209.446 43.6456 209.037 45.0348 208.227 46.2109C207.426 47.3785 206.267 48.2862 204.75 48.9339C203.241 49.5731 201.422 49.8927 199.291 49.8927C197.178 49.8927 195.337 49.5688 193.768 48.9211C192.209 48.2734 190.99 47.3146 190.112 46.0447C189.243 44.7663 188.787 43.1853 188.744 41.3018H194.101C194.161 42.1796 194.412 42.9126 194.855 43.5007C195.307 44.0802 195.908 44.5191 196.658 44.8174C197.416 45.1072 198.273 45.2521 199.227 45.2521C200.165 45.2521 200.979 45.1157 201.669 44.843C202.368 44.5703 202.909 44.191 203.293 43.7052C203.676 43.2194 203.868 42.6612 203.868 42.0305C203.868 41.4424 203.693 40.9481 203.344 40.5475C203.003 40.147 202.5 39.8061 201.835 39.5248C201.179 39.2436 200.374 38.9879 199.419 38.7578L196.568 38.0419C194.361 37.5049 192.618 36.6654 191.339 35.5234C190.061 34.3813 189.426 32.843 189.435 30.9083C189.426 29.3231 189.848 27.9382 190.7 26.7535C191.561 25.5688 192.741 24.6441 194.241 23.9794C195.741 23.3146 197.446 22.9822 199.355 22.9822C201.298 22.9822 202.994 23.3146 204.443 23.9794C205.901 24.6441 207.034 25.5688 207.844 26.7535C208.653 27.9382 209.071 29.3103 209.097 30.87H203.791Z" fill="#044210"/>
<path d="M101.689 114.522V97.0674H105.379V104.763H105.609L111.891 97.0674H116.314L109.837 104.883L116.391 114.522H111.976L107.195 107.346L105.379 109.562V114.522H101.689ZM132.835 97.0674V114.522H129.648L122.054 103.536H121.926V114.522H118.236V97.0674H121.474L129.009 108.045H129.162V97.0674H132.835ZM139.575 97.0674V114.522H135.884V97.0674H139.575ZM142.611 114.522V97.0674H154.168V100.11H146.301V104.269H153.401V107.312H146.301V114.522H142.611ZM156.65 114.522V97.0674H168.411V100.11H160.34V104.269H167.806V107.312H160.34V111.479H168.445V114.522H156.65Z" fill="#044210"/>
<rect x="39.5" y="91.5" width="29" height="29" rx="2.5" stroke="#044210" stroke-opacity="0.95" stroke-width="5"/>
<rect x="42" y="94" width="24" height="24" fill="#114B1C"/>
<path d="M65.0642 112.537C66.3119 113.784 66.3119 115.8 65.0642 117.043C64.4404 117.666 63.633 118 62.789 118C61.9817 118 61.1743 117.707 60.5505 117.043L54.0183 110.557L47.4862 117.043C46.8624 117.666 46.055 118 45.211 118C44.4037 118 43.5596 117.666 42.9358 117.043C41.6881 115.8 41.6881 113.784 42.9358 112.5L49.4679 106.011L42.9358 99.4805C41.6881 98.2376 41.6881 96.1843 42.9358 94.9377C44.1835 93.6874 46.2018 93.6874 47.4862 94.9377L54.0183 101.46L60.5138 94.9377C61.7982 93.6874 63.8165 93.6874 65.0642 94.9377C66.3119 96.1843 66.3119 98.2376 65.0642 99.4805L58.5321 106.011L65.0642 112.537Z" fill="white"/>
<path d="M117.332 142.178H113.599C113.531 141.695 113.391 141.266 113.181 140.891C112.971 140.511 112.701 140.187 112.371 139.92C112.042 139.653 111.661 139.448 111.229 139.306C110.803 139.164 110.34 139.093 109.84 139.093C108.937 139.093 108.15 139.317 107.479 139.766C106.809 140.209 106.289 140.857 105.92 141.709C105.55 142.556 105.366 143.584 105.366 144.795C105.366 146.039 105.55 147.084 105.92 147.931C106.295 148.778 106.817 149.417 107.488 149.849C108.158 150.28 108.934 150.496 109.815 150.496C110.309 150.496 110.766 150.431 111.187 150.3C111.613 150.17 111.991 149.979 112.32 149.729C112.65 149.474 112.923 149.164 113.138 148.8C113.36 148.437 113.513 148.022 113.599 147.556L117.332 147.573C117.235 148.374 116.994 149.147 116.607 149.891C116.227 150.63 115.712 151.292 115.065 151.877C114.423 152.457 113.656 152.917 112.763 153.258C111.877 153.593 110.874 153.761 109.755 153.761C108.198 153.761 106.806 153.408 105.579 152.704C104.357 151.999 103.391 150.979 102.681 149.644C101.977 148.309 101.624 146.692 101.624 144.795C101.624 142.891 101.982 141.272 102.698 139.937C103.414 138.602 104.386 137.584 105.613 136.886C106.84 136.181 108.221 135.829 109.755 135.829C110.766 135.829 111.704 135.971 112.567 136.255C113.437 136.539 114.207 136.954 114.877 137.499C115.548 138.039 116.093 138.701 116.513 139.485C116.94 140.269 117.212 141.167 117.332 142.178ZM122.658 153.522H118.704L124.729 136.067H129.485L135.502 153.522H131.548L127.175 140.056H127.039L122.658 153.522ZM122.411 146.661H131.752V149.542H122.411V146.661ZM152.202 136.067V153.522H149.015L141.421 142.536H141.293V153.522H137.603V136.067H140.842L148.376 147.045H148.529V136.067H152.202ZM161.439 153.522H155.251V136.067H161.49C163.246 136.067 164.757 136.417 166.024 137.116C167.291 137.809 168.266 138.806 168.947 140.107C169.635 141.408 169.979 142.965 169.979 144.778C169.979 146.596 169.635 148.158 168.947 149.465C168.266 150.772 167.286 151.775 166.007 152.474C164.734 153.173 163.212 153.522 161.439 153.522ZM158.942 150.36H161.286C162.376 150.36 163.294 150.167 164.038 149.78C164.788 149.388 165.351 148.783 165.726 147.965C166.107 147.141 166.297 146.079 166.297 144.778C166.297 143.488 166.107 142.434 165.726 141.616C165.351 140.798 164.791 140.195 164.047 139.809C163.303 139.423 162.385 139.229 161.294 139.229H158.942V150.36ZM172.712 153.522V136.067H176.403V150.479H183.886V153.522H172.712ZM186.33 153.522V136.067H198.091V139.11H190.02V143.269H197.486V146.312H190.02V150.479H198.125V153.522H186.33ZM210.494 141.087C210.425 140.4 210.133 139.866 209.616 139.485C209.099 139.104 208.397 138.914 207.511 138.914C206.908 138.914 206.4 138.999 205.985 139.17C205.57 139.334 205.252 139.565 205.031 139.86C204.815 140.155 204.707 140.491 204.707 140.866C204.695 141.178 204.761 141.451 204.903 141.684C205.05 141.917 205.252 142.119 205.508 142.289C205.763 142.454 206.059 142.599 206.394 142.724C206.729 142.843 207.087 142.945 207.468 143.03L209.036 143.405C209.798 143.576 210.496 143.803 211.133 144.087C211.769 144.371 212.32 144.721 212.786 145.136C213.252 145.55 213.613 146.039 213.869 146.602C214.13 147.164 214.263 147.809 214.269 148.536C214.263 149.604 213.991 150.53 213.451 151.315C212.917 152.093 212.144 152.698 211.133 153.13C210.127 153.556 208.914 153.769 207.494 153.769C206.085 153.769 204.857 153.553 203.812 153.121C202.772 152.69 201.96 152.05 201.374 151.204C200.795 150.352 200.491 149.298 200.462 148.042H204.033C204.073 148.627 204.241 149.116 204.536 149.508C204.837 149.894 205.238 150.187 205.738 150.386C206.244 150.579 206.815 150.675 207.451 150.675C208.076 150.675 208.619 150.584 209.079 150.403C209.545 150.221 209.906 149.968 210.161 149.644C210.417 149.32 210.545 148.948 210.545 148.528C210.545 148.136 210.428 147.806 210.195 147.539C209.968 147.272 209.633 147.045 209.19 146.857C208.752 146.67 208.215 146.499 207.579 146.346L205.678 145.869C204.207 145.511 203.045 144.951 202.192 144.19C201.34 143.428 200.917 142.403 200.923 141.113C200.917 140.056 201.198 139.133 201.766 138.343C202.34 137.553 203.127 136.937 204.127 136.494C205.127 136.05 206.263 135.829 207.536 135.829C208.832 135.829 209.962 136.05 210.928 136.494C211.9 136.937 212.656 137.553 213.195 138.343C213.735 139.133 214.013 140.048 214.031 141.087H210.494ZM216.087 139.11V136.067H230.422V139.11H225.078V153.522H221.43V139.11H216.087ZM236.473 136.067V153.522H232.783V136.067H236.473ZM254.91 142.178H251.177C251.109 141.695 250.969 141.266 250.759 140.891C250.549 140.511 250.279 140.187 249.95 139.92C249.62 139.653 249.239 139.448 248.808 139.306C248.381 139.164 247.918 139.093 247.418 139.093C246.515 139.093 245.728 139.317 245.058 139.766C244.387 140.209 243.867 140.857 243.498 141.709C243.129 142.556 242.944 143.584 242.944 144.795C242.944 146.039 243.129 147.084 243.498 147.931C243.873 148.778 244.396 149.417 245.066 149.849C245.737 150.28 246.512 150.496 247.393 150.496C247.887 150.496 248.344 150.431 248.765 150.3C249.191 150.17 249.569 149.979 249.898 149.729C250.228 149.474 250.501 149.164 250.717 148.8C250.938 148.437 251.092 148.022 251.177 147.556L254.91 147.573C254.813 148.374 254.572 149.147 254.185 149.891C253.805 150.63 253.29 151.292 252.643 151.877C252.001 152.457 251.234 152.917 250.342 153.258C249.455 153.593 248.452 153.761 247.333 153.761C245.776 153.761 244.384 153.408 243.157 152.704C241.935 151.999 240.969 150.979 240.259 149.644C239.555 148.309 239.202 146.692 239.202 144.795C239.202 142.891 239.56 141.272 240.276 139.937C240.992 138.602 241.964 137.584 243.191 136.886C244.418 136.181 245.799 135.829 247.333 135.829C248.344 135.829 249.282 135.971 250.146 136.255C251.015 136.539 251.785 136.954 252.455 137.499C253.126 138.039 253.671 138.701 254.092 139.485C254.518 140.269 254.79 141.167 254.91 142.178ZM257.556 153.522V136.067H261.246V143.763H261.477L267.758 136.067H272.181L265.704 143.883L272.258 153.522H267.843L263.062 146.346L261.246 148.562V153.522H257.556Z" fill="#044210"/>
<rect x="39.5" y="130.5" width="29" height="29" rx="2.5" stroke="#044210" stroke-opacity="0.95" stroke-width="5"/>
<rect x="42" y="133" width="24" height="24" fill="#114B1C"/>
<path d="M65.0642 151.537C66.3119 152.784 66.3119 154.8 65.0642 156.043C64.4404 156.666 63.633 157 62.789 157C61.9817 157 61.1743 156.707 60.5505 156.043L54.0183 149.557L47.4862 156.043C46.8624 156.666 46.055 157 45.211 157C44.4037 157 43.5596 156.666 42.9358 156.043C41.6881 154.8 41.6881 152.784 42.9358 151.5L49.4679 145.011L42.9358 138.481C41.6881 137.238 41.6881 135.184 42.9358 133.938C44.1835 132.687 46.2018 132.687 47.4862 133.938L54.0183 140.46L60.5138 133.938C61.7982 132.687 63.8165 132.687 65.0642 133.938C66.3119 135.184 66.3119 137.238 65.0642 138.481L58.5321 145.011L65.0642 151.537Z" fill="white"/>
<path d="M101.853 192.522V175.067H108.739C110.058 175.067 111.183 175.303 112.114 175.775C113.052 176.241 113.765 176.903 114.254 177.761C114.748 178.613 114.995 179.616 114.995 180.769C114.995 181.928 114.745 182.925 114.245 183.761C113.745 184.59 113.021 185.227 112.072 185.67C111.129 186.113 109.987 186.334 108.646 186.334H104.035V183.369H108.049C108.754 183.369 109.339 183.272 109.805 183.079C110.271 182.886 110.617 182.596 110.844 182.209C111.077 181.823 111.194 181.343 111.194 180.769C111.194 180.19 111.077 179.701 110.844 179.303C110.617 178.905 110.268 178.604 109.796 178.4C109.33 178.19 108.742 178.084 108.032 178.084H105.543V192.522H101.853ZM111.279 184.579L115.617 192.522H111.543L107.299 184.579H111.279ZM117.603 192.522V175.067H129.364V178.11H121.293V182.269H128.759V185.312H121.293V189.479H129.398V192.522H117.603ZM135.452 175.067L139.67 188.329H139.832L144.06 175.067H148.151L142.134 192.522H137.378L131.352 175.067H135.452ZM165.307 183.795C165.307 185.698 164.946 187.317 164.224 188.653C163.509 189.988 162.531 191.008 161.293 191.712C160.06 192.411 158.673 192.761 157.134 192.761C155.582 192.761 154.19 192.408 152.957 191.704C151.724 190.999 150.75 189.979 150.034 188.644C149.318 187.309 148.96 185.692 148.96 183.795C148.96 181.891 149.318 180.272 150.034 178.937C150.75 177.602 151.724 176.584 152.957 175.886C154.19 175.181 155.582 174.829 157.134 174.829C158.673 174.829 160.06 175.181 161.293 175.886C162.531 176.584 163.509 177.602 164.224 178.937C164.946 180.272 165.307 181.891 165.307 183.795ZM161.565 183.795C161.565 182.562 161.381 181.522 161.011 180.675C160.648 179.829 160.134 179.187 159.469 178.749C158.804 178.312 158.026 178.093 157.134 178.093C156.241 178.093 155.463 178.312 154.798 178.749C154.134 179.187 153.616 179.829 153.247 180.675C152.884 181.522 152.702 182.562 152.702 183.795C152.702 185.028 152.884 186.067 153.247 186.914C153.616 187.761 154.134 188.403 154.798 188.84C155.463 189.278 156.241 189.496 157.134 189.496C158.026 189.496 158.804 189.278 159.469 188.84C160.134 188.403 160.648 187.761 161.011 186.914C161.381 186.067 161.565 185.028 161.565 183.795ZM168.04 192.522V175.067H171.731V189.479H179.214V192.522H168.04ZM182.936 175.067L187.155 188.329H187.317L191.544 175.067H195.635L189.618 192.522H184.862L178.837 175.067H182.936ZM197.736 192.522V175.067H209.497V178.11H201.426V182.269H208.892V185.312H201.426V189.479H209.531V192.522H197.736ZM212.431 192.522V175.067H219.317C220.636 175.067 221.761 175.303 222.692 175.775C223.63 176.241 224.343 176.903 224.832 177.761C225.326 178.613 225.573 179.616 225.573 180.769C225.573 181.928 225.323 182.925 224.823 183.761C224.323 184.59 223.599 185.227 222.65 185.67C221.707 186.113 220.565 186.334 219.224 186.334H214.613V183.369H218.627C219.332 183.369 219.917 183.272 220.383 183.079C220.849 182.886 221.195 182.596 221.423 182.209C221.656 181.823 221.772 181.343 221.772 180.769C221.772 180.19 221.656 179.701 221.423 179.303C221.195 178.905 220.846 178.604 220.374 178.4C219.908 178.19 219.32 178.084 218.61 178.084H216.121V192.522H212.431ZM221.857 184.579L226.195 192.522H222.121L217.877 184.579H221.857Z" fill="#044210"/>
<rect x="39.5" y="169.5" width="29" height="29" rx="2.5" stroke="#044210" stroke-opacity="0.95" stroke-width="5"/>
<rect x="42" y="172" width="24" height="24" fill="#114B1C"/>
<path d="M65.0642 190.537C66.3119 191.784 66.3119 193.8 65.0642 195.043C64.4404 195.666 63.633 196 62.789 196C61.9817 196 61.1743 195.707 60.5505 195.043L54.0183 188.557L47.4862 195.043C46.8624 195.666 46.055 196 45.211 196C44.4037 196 43.5596 195.666 42.9358 195.043C41.6881 193.8 41.6881 191.784 42.9358 190.5L49.4679 184.011L42.9358 177.481C41.6881 176.238 41.6881 174.184 42.9358 172.938C44.1835 171.687 46.2018 171.687 47.4862 172.938L54.0183 179.46L60.5138 172.938C61.7982 171.687 63.8165 171.687 65.0642 172.938C66.3119 174.184 66.3119 176.238 65.0642 177.481L58.5321 184.011L65.0642 190.537Z" fill="white"/>
<path d="M101.638 231.522V214.067H108.525C109.843 214.067 110.968 214.303 111.9 214.775C112.837 215.241 113.55 215.903 114.039 216.761C114.533 217.613 114.78 218.616 114.78 219.769C114.78 220.928 114.53 221.925 114.03 222.761C113.53 223.59 112.806 224.227 111.857 224.67C110.914 225.113 109.772 225.334 108.431 225.334H103.82V222.369H107.834C108.539 222.369 109.124 222.272 109.59 222.079C110.056 221.886 110.402 221.596 110.63 221.209C110.863 220.823 110.979 220.343 110.979 219.769C110.979 219.19 110.863 218.701 110.63 218.303C110.402 217.905 110.053 217.604 109.581 217.4C109.115 217.19 108.527 217.084 107.817 217.084H105.328V231.522H101.638ZM111.064 223.579L115.402 231.522H111.328L107.084 223.579H111.064ZM133.428 222.795C133.428 224.698 133.067 226.317 132.346 227.653C131.63 228.988 130.652 230.008 129.414 230.712C128.181 231.411 126.794 231.761 125.255 231.761C123.703 231.761 122.311 231.408 121.078 230.704C119.846 229.999 118.871 228.979 118.155 227.644C117.439 226.309 117.081 224.692 117.081 222.795C117.081 220.891 117.439 219.272 118.155 217.937C118.871 216.602 119.846 215.584 121.078 214.886C122.311 214.181 123.703 213.829 125.255 213.829C126.794 213.829 128.181 214.181 129.414 214.886C130.652 215.584 131.63 216.602 132.346 217.937C133.067 219.272 133.428 220.891 133.428 222.795ZM129.686 222.795C129.686 221.562 129.502 220.522 129.132 219.675C128.769 218.829 128.255 218.187 127.59 217.749C126.925 217.312 126.147 217.093 125.255 217.093C124.363 217.093 123.584 217.312 122.919 217.749C122.255 218.187 121.738 218.829 121.368 219.675C121.005 220.522 120.823 221.562 120.823 222.795C120.823 224.028 121.005 225.067 121.368 225.914C121.738 226.761 122.255 227.403 122.919 227.84C123.584 228.278 124.363 228.496 125.255 228.496C126.147 228.496 126.925 228.278 127.59 227.84C128.255 227.403 128.769 226.761 129.132 225.914C129.502 225.067 129.686 224.028 129.686 222.795ZM136.162 231.522V214.067H143.048C144.372 214.067 145.5 214.32 146.431 214.826C147.363 215.326 148.074 216.022 148.562 216.914C149.056 217.8 149.304 218.823 149.304 219.982C149.304 221.141 149.054 222.164 148.554 223.05C148.054 223.937 147.329 224.627 146.38 225.121C145.437 225.616 144.295 225.863 142.954 225.863H138.565V222.905H142.358C143.068 222.905 143.653 222.783 144.113 222.539C144.579 222.289 144.926 221.945 145.153 221.508C145.386 221.065 145.502 220.556 145.502 219.982C145.502 219.403 145.386 218.897 145.153 218.465C144.926 218.028 144.579 217.69 144.113 217.451C143.647 217.207 143.056 217.084 142.341 217.084H139.852V231.522H136.162ZM151.701 231.522V214.067H163.462V217.11H155.391V221.269H162.857V224.312H155.391V228.479H163.496V231.522H151.701Z" fill="#044210"/>
<rect x="39.5" y="208.5" width="29" height="29" rx="2.5" stroke="#044210" stroke-opacity="0.95" stroke-width="5"/>
<rect x="42" y="211" width="24" height="24" fill="#114B1C"/>
<path d="M65.0642 229.537C66.3119 230.784 66.3119 232.8 65.0642 234.043C64.4404 234.666 63.633 235 62.789 235C61.9817 235 61.1743 234.707 60.5505 234.043L54.0183 227.557L47.4862 234.043C46.8624 234.666 46.055 235 45.211 235C44.4037 235 43.5596 234.666 42.9358 234.043C41.6881 232.8 41.6881 230.784 42.9358 229.5L49.4679 223.011L42.9358 216.481C41.6881 215.238 41.6881 213.184 42.9358 211.938C44.1835 210.687 46.2018 210.687 47.4862 211.938L54.0183 218.46L60.5138 211.938C61.7982 210.687 63.8165 210.687 65.0642 211.938C66.3119 213.184 66.3119 215.238 65.0642 216.481L58.5321 223.011L65.0642 229.537Z" fill="white"/>
<path d="M101.626 270.522V253.067H105.317V267.479H112.8V270.522H101.626ZM115.244 270.522V253.067H127.005V256.11H118.934V260.269H126.4V263.312H118.934V267.479H127.039V270.522H115.244ZM132.947 270.522H128.993L135.018 253.067H139.774L145.791 270.522H141.837L137.464 257.056H137.328L132.947 270.522ZM132.7 263.661H142.041V266.542H132.7V263.661ZM154.08 270.522H147.892V253.067H154.131C155.886 253.067 157.398 253.417 158.665 254.116C159.932 254.809 160.906 255.806 161.588 257.107C162.276 258.408 162.619 259.965 162.619 261.778C162.619 263.596 162.276 265.158 161.588 266.465C160.906 267.772 159.926 268.775 158.648 269.474C157.375 270.173 155.852 270.522 154.08 270.522ZM151.582 267.36H153.926C155.017 267.36 155.935 267.167 156.679 266.78C157.429 266.388 157.991 265.783 158.366 264.965C158.747 264.141 158.938 263.079 158.938 261.778C158.938 260.488 158.747 259.434 158.366 258.616C157.991 257.798 157.432 257.195 156.688 256.809C155.943 256.423 155.026 256.229 153.935 256.229H151.582V267.36ZM170.908 270.522V253.067H177.794C179.118 253.067 180.246 253.32 181.178 253.826C182.109 254.326 182.82 255.022 183.308 255.914C183.803 256.8 184.05 257.823 184.05 258.982C184.05 260.141 183.8 261.164 183.3 262.05C182.8 262.937 182.075 263.627 181.126 264.121C180.183 264.616 179.041 264.863 177.7 264.863H173.311V261.905H177.104C177.814 261.905 178.399 261.783 178.859 261.539C179.325 261.289 179.672 260.945 179.899 260.508C180.132 260.065 180.249 259.556 180.249 258.982C180.249 258.403 180.132 257.897 179.899 257.465C179.672 257.028 179.325 256.69 178.859 256.451C178.393 256.207 177.803 256.084 177.087 256.084H174.598V270.522H170.908ZM190.137 253.067V270.522H186.447V253.067H190.137ZM193.173 270.522V253.067H200.06C201.384 253.067 202.511 253.32 203.443 253.826C204.375 254.326 205.085 255.022 205.574 255.914C206.068 256.8 206.315 257.823 206.315 258.982C206.315 260.141 206.065 261.164 205.565 262.05C205.065 262.937 204.341 263.627 203.392 264.121C202.449 264.616 201.307 264.863 199.966 264.863H195.577V261.905H199.369C200.08 261.905 200.665 261.783 201.125 261.539C201.591 261.289 201.938 260.945 202.165 260.508C202.398 260.065 202.514 259.556 202.514 258.982C202.514 258.403 202.398 257.897 202.165 257.465C201.938 257.028 201.591 256.69 201.125 256.451C200.659 256.207 200.068 256.084 199.352 256.084H196.864V270.522H193.173ZM208.712 270.522V253.067H220.474V256.11H212.403V260.269H219.869V263.312H212.403V267.479H220.508V270.522H208.712Z" fill="#044210"/>
<rect x="39.5" y="247.5" width="29" height="29" rx="2.5" stroke="#044210" stroke-opacity="0.95" stroke-width="5"/>
<rect x="42" y="250" width="24" height="24" fill="#114B1C"/>
<path d="M65.0642 268.537C66.3119 269.784 66.3119 271.8 65.0642 273.043C64.4404 273.666 63.633 274 62.789 274C61.9817 274 61.1743 273.707 60.5505 273.043L54.0183 266.557L47.4862 273.043C46.8624 273.666 46.055 274 45.211 274C44.4037 274 43.5596 273.666 42.9358 273.043C41.6881 271.8 41.6881 269.784 42.9358 268.5L49.4679 262.011L42.9358 255.481C41.6881 254.238 41.6881 252.184 42.9358 250.938C44.1835 249.687 46.2018 249.687 47.4862 250.938L54.0183 257.46L60.5138 250.938C61.7982 249.687 63.8165 249.687 65.0642 250.938C66.3119 252.184 66.3119 254.238 65.0642 255.481L58.5321 262.011L65.0642 268.537Z" fill="white"/>
<path d="M105.489 309.522L100.495 292.067H104.526L107.415 304.195H107.56L110.748 292.067H114.199L117.378 304.221H117.532L120.421 292.067H124.452L119.458 309.522H115.861L112.537 298.11H112.401L109.086 309.522H105.489ZM126.427 309.522V292.067H133.314C134.632 292.067 135.757 292.303 136.689 292.775C137.626 293.241 138.339 293.903 138.828 294.761C139.322 295.613 139.569 296.616 139.569 297.769C139.569 298.928 139.319 299.925 138.819 300.761C138.319 301.59 137.595 302.227 136.646 302.67C135.703 303.113 134.561 303.334 133.22 303.334H128.609V300.369H132.623C133.328 300.369 133.913 300.272 134.379 300.079C134.845 299.886 135.191 299.596 135.419 299.209C135.652 298.823 135.768 298.343 135.768 297.769C135.768 297.19 135.652 296.701 135.419 296.303C135.191 295.905 134.842 295.604 134.37 295.4C133.904 295.19 133.316 295.084 132.606 295.084H130.118V309.522H126.427ZM135.853 301.579L140.191 309.522H136.118L131.873 301.579H135.853ZM142.177 309.522V292.067H153.939V295.11H145.868V299.269H153.333V302.312H145.868V306.479H153.973V309.522H142.177ZM171.472 292.067V309.522H168.284L160.691 298.536H160.563V309.522H156.873V292.067H160.111L167.645 303.045H167.799V292.067H171.472ZM189.922 298.178H186.189C186.12 297.695 185.981 297.266 185.771 296.891C185.561 296.511 185.291 296.187 184.961 295.92C184.632 295.653 184.251 295.448 183.819 295.306C183.393 295.164 182.93 295.093 182.43 295.093C181.527 295.093 180.74 295.317 180.069 295.766C179.399 296.209 178.879 296.857 178.51 297.709C178.14 298.556 177.956 299.584 177.956 300.795C177.956 302.039 178.14 303.084 178.51 303.931C178.885 304.778 179.407 305.417 180.078 305.849C180.748 306.28 181.524 306.496 182.404 306.496C182.899 306.496 183.356 306.431 183.777 306.3C184.203 306.17 184.581 305.979 184.91 305.729C185.24 305.474 185.512 305.164 185.728 304.8C185.95 304.437 186.103 304.022 186.189 303.556L189.922 303.573C189.825 304.374 189.583 305.147 189.197 305.891C188.816 306.63 188.302 307.292 187.654 307.877C187.012 308.457 186.245 308.917 185.353 309.258C184.467 309.593 183.464 309.761 182.345 309.761C180.788 309.761 179.396 309.408 178.169 308.704C176.947 307.999 175.981 306.979 175.271 305.644C174.566 304.309 174.214 302.692 174.214 300.795C174.214 298.891 174.572 297.272 175.288 295.937C176.004 294.602 176.975 293.584 178.203 292.886C179.43 292.181 180.811 291.829 182.345 291.829C183.356 291.829 184.294 291.971 185.157 292.255C186.027 292.539 186.797 292.954 187.467 293.499C188.137 294.039 188.683 294.701 189.103 295.485C189.529 296.269 189.802 297.167 189.922 298.178ZM192.568 309.522V292.067H196.258V299.269H203.75V292.067H207.431V309.522H203.75V302.312H196.258V309.522H192.568Z" fill="#044210"/>
<rect x="39.5" y="286.5" width="29" height="29" rx="2.5" stroke="#044210" stroke-opacity="0.95" stroke-width="5"/>
<rect x="42" y="289" width="24" height="24" fill="#114B1C"/>
<path d="M65.0642 307.537C66.3119 308.784 66.3119 310.8 65.0642 312.043C64.4404 312.666 63.633 313 62.789 313C61.9817 313 61.1743 312.707 60.5505 312.043L54.0183 305.557L47.4862 312.043C46.8624 312.666 46.055 313 45.211 313C44.4037 313 43.5596 312.666 42.9358 312.043C41.6881 310.8 41.6881 308.784 42.9358 307.5L49.4679 301.011L42.9358 294.481C41.6881 293.238 41.6881 291.184 42.9358 289.938C44.1835 288.687 46.2018 288.687 47.4862 289.938L54.0183 296.46L60.5138 289.938C61.7982 288.687 63.8165 288.687 65.0642 289.938C66.3119 291.184 66.3119 293.238 65.0642 294.481L58.5321 301.011L65.0642 307.537Z" fill="white"/>
</svg>
